<svg width="25" height="52" fill="none" xmlns="http://www.w3.org/2000/svg"><path d="M14.852.575h-4.438C5.062.575.707 4.944.707 10.313v36.723a4.171 4.171 0 004.16 4.173H20.4a4.171 4.171 0 004.16-4.173V10.313c0-5.37-4.355-9.738-9.707-9.738zM9.505 2.298A8.288 8.288 0 012.424 9.4c.42-3.72 3.371-6.681 7.08-7.102zM2.37 24.112c0-1.522.331-2.967.925-4.268l2.187 3.123a2.49 2.49 0 00-.338 1.256v12.241c0 .381.085.742.238 1.066l-2.54 3.625a2.495 2.495 0 01-.472-1.464v-15.58zm5.27 14.856h9.984c.381 0 .742-.086 1.064-.24l2.367 3.379a2.48 2.48 0 01-.657.088H4.867a2.48 2.48 0 01-.657-.088l2.367-3.378c.323.153.683.24 1.064.24zm-.832-2.504v-12.24c0-.461.373-.835.832-.835h9.984c.46 0 .833.374.833.834v12.241c0 .46-.373.835-.832.835H7.64a.834.834 0 01-.832-.835zm11.7-14.582a2.48 2.48 0 00-.884-.163H7.641a2.48 2.48 0 00-.884.163l-2.55-3.639c1.856-2.673 4.94-4.425 8.426-4.425 3.486 0 6.57 1.752 8.426 4.425l-2.55 3.639zm4.386 25.154c0 1.38-1.12 2.504-2.496 2.504H4.867a2.503 2.503 0 01-2.496-2.504v-4.008a4.13 4.13 0 002.496.837H20.4c.936 0 1.8-.312 2.496-.837v4.008zm0-7.345c0 .546-.175 1.052-.472 1.463l-2.54-3.624c.153-.324.239-.685.239-1.066v-12.24c0-.459-.124-.888-.339-1.257l2.188-3.123c.593 1.301.924 2.746.924 4.268v15.58zm0-21.668c-2.08-3.513-5.9-5.874-10.262-5.874-4.36 0-8.182 2.36-10.262 5.874v-6.936c4.642-.498 8.319-4.186 8.816-8.842h3.225a9.958 9.958 0 002.738 5.86 9.9 9.9 0 005.745 2.94v6.978zm-6.792-15.68c3.53.555 6.303 3.421 6.732 7.001-3.48-.631-6.226-3.487-6.732-7.001z" fill="#B19A7C"/></svg>