<svg width="16" height="16" fill="none" xmlns="http://www.w3.org/2000/svg"><g clip-path="url(#clip0)"><path d="M53.532 96.577H42.586v69.75c-2.636-2.513-6.102-5.027-10.4-7.541-4.256-2.513-8.087-4.398-11.492-5.655v10.581c6.121 2.879 11.473 6.365 16.054 10.46 4.58 4.094 7.824 8.067 9.73 11.919h7.053V96.577zm29.736 20.615l10.52.973c.892-4.946 2.595-8.534 5.108-10.764 2.514-2.229 5.737-3.344 9.669-3.344 3.365 0 6.304.77 8.818 2.311 2.554 1.54 4.642 3.587 6.263 6.141 1.622 2.595 2.98 6.082 4.075 10.46a54.98 54.98 0 011.642 13.378c0 .487-.021 1.217-.061 2.189-2.189-3.486-5.189-6.324-9-8.513-3.771-2.149-7.865-3.223-12.284-3.223-7.378 0-13.622 2.676-18.73 8.027-5.108 5.351-7.662 12.405-7.662 21.162 0 9.041 2.655 16.318 7.966 21.831 5.352 5.514 12.041 8.271 20.068 8.271 5.797 0 11.088-1.561 15.871-4.683 4.825-3.122 8.473-7.581 10.946-13.378 2.514-5.757 3.771-14.108 3.771-25.054 0-11.392-1.237-20.473-3.71-27.244-2.473-6.729-6.162-11.858-11.067-15.385-4.865-3.527-10.581-5.29-17.149-5.29-6.973 0-12.669 1.925-17.088 5.777-4.419 3.892-7.074 9.344-7.966 16.358zm44.818 39.344c0 6.284-1.683 11.271-5.048 14.96-3.324 3.689-7.338 5.534-12.04 5.534-4.865 0-9.102-1.987-12.71-5.96-3.608-3.973-5.412-9.121-5.412-15.446 0-5.675 1.703-10.297 5.108-13.865 3.446-3.527 7.683-5.29 12.71-5.29 5.067 0 9.223 1.763 12.466 5.29 3.284 3.568 4.926 8.494 4.926 14.777zM69.829-35.903v-10.52H10.903a19.363 19.363 0 001.277 7.601c1.5 4.014 3.892 7.967 7.176 11.859 3.324 3.891 8.108 8.391 14.351 13.5C43.397-5.518 49.944.767 53.35 5.387c3.405 4.663 5.108 9.062 5.108 13.197 0 4.338-1.56 7.986-4.682 10.946-3.081 3-7.115 4.5-12.102 4.5-5.27 0-9.486-1.581-12.648-4.744-3.162-3.162-4.764-7.54-4.804-13.135l-11.25 1.156c.77 8.392 3.669 14.777 8.696 19.155 5.027 4.42 11.777 6.628 20.25 6.628 8.554 0 15.324-2.371 20.31-7.114 4.987-4.744 7.48-10.622 7.48-17.636 0-3.567-.73-7.074-2.19-10.52-1.459-3.446-3.89-7.074-7.296-10.885-3.365-3.81-8.98-9.04-16.845-15.69-6.567-5.513-10.784-9.263-12.649-11.25-1.864-1.945-3.405-3.911-4.621-5.898h43.723zm13.439 10.095l10.52.973c.892-4.946 2.595-8.534 5.108-10.764 2.514-2.23 5.737-3.344 9.669-3.344 3.365 0 6.304.77 8.818 2.31 2.554 1.541 4.642 3.588 6.263 6.143 1.622 2.594 2.98 6.08 4.075 10.459a54.982 54.982 0 011.642 13.378c0 .487-.021 1.217-.061 2.19-2.189-3.487-5.189-6.325-9-8.514-3.771-2.149-7.865-3.223-12.284-3.223-7.378 0-13.622 2.676-18.73 8.027-5.108 5.351-7.662 12.405-7.662 21.162 0 9.04 2.655 16.318 7.966 21.831 5.352 5.514 12.041 8.27 20.068 8.27 5.797 0 11.088-1.56 15.871-4.682 4.825-3.122 8.473-7.581 10.946-13.378 2.514-5.757 3.771-14.108 3.771-25.054 0-11.392-1.237-20.473-3.71-27.244-2.473-6.73-6.162-11.858-11.067-15.385-4.865-3.527-10.581-5.29-17.149-5.29-6.973 0-12.669 1.925-17.088 5.777-4.419 3.892-7.074 9.344-7.966 16.358zm44.818 39.344c0 6.284-1.683 11.27-5.048 14.96-3.324 3.69-7.338 5.534-12.04 5.534-4.865 0-9.102-1.987-12.71-5.96-3.608-3.973-5.412-9.121-5.412-15.446 0-5.675 1.703-10.297 5.108-13.865 3.446-3.527 7.683-5.29 12.71-5.29 5.067 0 9.223 1.763 12.466 5.29 3.284 3.568 4.926 8.494 4.926 14.777zM12.362-165.889l10.946 1.459c1.257-6.202 3.386-10.682 6.386-13.439 3.04-2.716 6.73-4.074 11.067-4.074 5.149 0 9.487 1.784 13.014 5.351 3.567 3.568 5.351 7.987 5.351 13.257 0 5.027-1.642 9.162-4.926 12.405-3.283 3.284-7.46 4.926-12.527 4.926-2.067 0-4.642-.405-7.723-1.216l1.217 9.608a16.77 16.77 0 011.763-.122c4.662 0 8.858 1.216 12.588 3.649 3.73 2.432 5.594 6.182 5.594 11.25 0 4.013-1.358 7.338-4.074 9.973-2.716 2.635-6.223 3.953-10.52 3.953-4.257 0-7.804-1.338-10.642-4.014-2.838-2.676-4.662-6.689-5.473-12.041l-10.946 1.946c1.338 7.338 4.378 13.014 9.122 17.027 4.743 4.055 10.642 6.082 17.696 6.082 4.865 0 9.344-1.055 13.439-3.163 4.095-2.067 7.216-4.905 9.365-8.513 2.189-3.608 3.283-7.439 3.283-11.493 0-3.852-1.033-7.358-3.1-10.521-2.068-3.162-5.13-5.675-9.183-7.54 5.27-1.216 9.365-3.75 12.283-7.602 2.92-3.81 4.379-8.594 4.379-14.351 0-7.784-2.838-14.392-8.514-19.824-5.675-5.392-12.85-8.088-21.527-8.088-7.824 0-14.33 2.331-19.52 6.993-5.148 4.662-8.088 10.703-8.817 18.122zm70.906-2.919l10.52.973c.892-4.946 2.595-8.534 5.108-10.764 2.514-2.229 5.737-3.344 9.669-3.344 3.365 0 6.304.77 8.818 2.311 2.554 1.54 4.642 3.587 6.263 6.141 1.622 2.595 2.98 6.082 4.075 10.46a54.98 54.98 0 011.642 13.378c0 .487-.021 1.217-.061 2.189-2.189-3.486-5.189-6.324-9-8.513-3.771-2.149-7.865-3.223-12.284-3.223-7.378 0-13.622 2.676-18.73 8.027-5.108 5.351-7.662 12.405-7.662 21.162 0 9.041 2.655 16.318 7.966 21.831 5.352 5.514 12.041 8.27 20.068 8.27 5.797 0 11.088-1.56 15.871-4.682 4.825-3.122 8.473-7.581 10.946-13.378 2.514-5.757 3.771-14.108 3.771-25.054 0-11.392-1.237-20.473-3.71-27.244-2.473-6.729-6.162-11.858-11.067-15.385-4.865-3.527-10.581-5.29-17.149-5.29-6.973 0-12.669 1.925-17.088 5.777-4.419 3.892-7.074 9.344-7.966 16.358zm44.818 39.344c0 6.284-1.683 11.271-5.048 14.96-3.324 3.689-7.338 5.534-12.04 5.534-4.865 0-9.102-1.987-12.71-5.96-3.608-3.973-5.412-9.121-5.412-15.446 0-5.675 1.703-10.297 5.108-13.865 3.446-3.527 7.683-5.29 12.71-5.29 5.067 0 9.223 1.763 12.466 5.29 3.284 3.568 4.926 8.494 4.926 14.777zM47.39-332.423v21.345H8.714v10.033l40.682 57.771h8.94v-57.771h12.04v-10.033h-12.04v-21.345H47.39zm0 31.378v40.196l-27.913-40.196H47.39zm35.878-10.763l10.52.973c.892-4.946 2.595-8.534 5.108-10.764 2.514-2.229 5.737-3.344 9.669-3.344 3.365 0 6.304.77 8.818 2.311 2.554 1.54 4.642 3.587 6.263 6.141 1.622 2.595 2.98 6.082 4.075 10.46a54.98 54.98 0 011.642 13.378c0 .487-.021 1.217-.061 2.189-2.189-3.486-5.189-6.324-9-8.513-3.771-2.149-7.865-3.223-12.284-3.223-7.378 0-13.622 2.676-18.73 8.027-5.108 5.351-7.662 12.405-7.662 21.162 0 9.041 2.655 16.318 7.966 21.831 5.352 5.514 12.041 8.271 20.068 8.271 5.797 0 11.088-1.561 15.871-4.683 4.825-3.122 8.473-7.581 10.946-13.378 2.514-5.757 3.771-14.108 3.771-25.054 0-11.392-1.237-20.473-3.71-27.244-2.473-6.729-6.162-11.858-11.067-15.385-4.865-3.527-10.581-5.29-17.149-5.29-6.973 0-12.669 1.925-17.088 5.777-4.419 3.892-7.074 9.344-7.966 16.358zm44.818 39.344c0 6.284-1.683 11.271-5.048 14.96-3.324 3.689-7.338 5.534-12.04 5.534-4.865 0-9.102-1.987-12.71-5.96-3.608-3.973-5.412-9.121-5.412-15.446 0-5.675 1.703-10.297 5.108-13.865 3.446-3.527 7.683-5.29 12.71-5.29 5.067 0 9.223 1.763 12.466 5.29 3.284 3.568 4.926 8.494 4.926 14.777zM12.302-452.072l11.493.973c.851-5.594 2.817-9.81 5.899-12.648 3.121-2.798 6.871-4.196 11.25-4.196 5.27 0 9.73 1.986 13.378 5.959 3.649 3.973 5.473 9.243 5.473 15.811 0 6.243-1.764 11.169-5.29 14.777-3.487 3.608-8.068 5.412-13.744 5.412-3.527 0-6.71-.811-9.547-2.432-2.838-1.581-5.068-3.649-6.69-6.203l-10.276 1.338 8.635 45.79h44.33v-10.459H31.64l-4.805-23.959c5.352 3.729 10.967 5.594 16.845 5.594 7.784 0 14.352-2.696 19.703-8.088 5.351-5.392 8.027-12.324 8.027-20.797 0-8.068-2.352-15.041-7.054-20.919-5.716-7.216-13.52-10.824-23.412-10.824-8.108 0-14.737 2.27-19.886 6.811-5.108 4.54-8.027 10.56-8.756 18.06zm70.966-2.736l10.52.973c.892-4.946 2.595-8.534 5.108-10.764 2.514-2.229 5.737-3.344 9.669-3.344 3.365 0 6.304.77 8.818 2.311 2.554 1.54 4.642 3.587 6.263 6.141 1.622 2.595 2.98 6.082 4.075 10.46a54.98 54.98 0 011.642 13.378c0 .487-.021 1.217-.061 2.189-2.189-3.486-5.189-6.324-9-8.513-3.771-2.149-7.865-3.223-12.284-3.223-7.378 0-13.622 2.676-18.73 8.027-5.108 5.351-7.662 12.405-7.662 21.162 0 9.041 2.655 16.318 7.966 21.831 5.352 5.514 12.041 8.271 20.068 8.271 5.797 0 11.088-1.561 15.871-4.683 4.825-3.122 8.473-7.581 10.946-13.378 2.514-5.757 3.771-14.108 3.771-25.054 0-11.392-1.237-20.473-3.71-27.244-2.473-6.729-6.162-11.858-11.067-15.385-4.865-3.527-10.581-5.29-17.149-5.29-6.973 0-12.669 1.925-17.088 5.777-4.419 3.892-7.074 9.344-7.966 16.358zm44.818 39.344c0 6.284-1.683 11.271-5.048 14.96-3.324 3.689-7.338 5.534-12.04 5.534-4.865 0-9.102-1.987-12.71-5.96-3.608-3.973-5.412-9.121-5.412-15.446 0-5.675 1.703-10.297 5.108-13.865 3.446-3.527 7.683-5.29 12.71-5.29 5.067 0 9.223 1.763 12.466 5.29 3.284 3.568 4.926 8.494 4.926 14.777zM69.099-551.105l-10.885-.852c-.973 4.298-2.352 7.419-4.135 9.365-2.96 3.122-6.608 4.683-10.946 4.683-3.487 0-6.547-.973-9.183-2.919-3.446-2.514-6.162-6.183-8.148-11.007-1.987-4.824-3.02-11.696-3.102-20.615 2.636 4.014 5.858 6.993 9.67 8.939 3.81 1.946 7.803 2.919 11.979 2.919 7.297 0 13.5-2.696 18.608-8.088 5.149-5.351 7.723-12.284 7.723-20.797 0-5.595-1.216-10.804-3.649-15.628-2.391-4.784-5.696-8.453-9.912-11.007-4.216-2.554-9-3.831-14.351-3.831-9.122 0-16.56 3.344-22.318 10.034-5.756 6.729-8.635 17.797-8.635 33.202 0 17.23 3.183 29.757 9.548 37.581 5.554 6.811 13.033 10.217 22.439 10.217 7.013 0 12.75-1.967 17.21-5.899 4.5-3.933 7.195-9.365 8.087-16.297zm-44.696-38.433c0-3.77.79-7.378 2.372-10.824 1.621-3.446 3.871-6.081 6.75-7.906 2.878-1.783 5.898-2.675 9.06-2.675 4.622 0 8.595 1.865 11.92 5.594 3.324 3.73 4.986 8.798 4.986 15.203 0 6.162-1.642 11.007-4.926 14.534-3.283 3.567-7.419 5.351-12.405 5.351-4.946 0-9.142-1.784-12.588-5.351-3.446-3.527-5.169-8.169-5.169-13.926zm58.865-8.27l10.52.973c.892-4.946 2.595-8.534 5.108-10.764 2.514-2.229 5.737-3.344 9.669-3.344 3.365 0 6.304.77 8.818 2.311 2.554 1.54 4.642 3.587 6.263 6.141 1.622 2.595 2.98 6.082 4.075 10.46a54.98 54.98 0 011.642 13.378c0 .487-.021 1.217-.061 2.189-2.189-3.486-5.189-6.324-9-8.513-3.771-2.149-7.865-3.223-12.284-3.223-7.378 0-13.622 2.676-18.73 8.027-5.108 5.351-7.662 12.405-7.662 21.162 0 9.041 2.655 16.318 7.966 21.831 5.352 5.514 12.041 8.271 20.068 8.271 5.797 0 11.088-1.561 15.871-4.683 4.825-3.122 8.473-7.581 10.946-13.378 2.514-5.757 3.771-14.108 3.771-25.054 0-11.392-1.237-20.473-3.71-27.244-2.473-6.729-6.162-11.858-11.067-15.385-4.865-3.527-10.581-5.29-17.149-5.29-6.973 0-12.669 1.925-17.088 5.777-4.419 3.892-7.074 9.344-7.966 16.358zm44.818 39.344c0 6.284-1.683 11.271-5.048 14.96-3.324 3.689-7.338 5.534-12.04 5.534-4.865 0-9.102-1.987-12.71-5.96-3.608-3.973-5.412-9.121-5.412-15.446 0-5.675 1.703-10.297 5.108-13.865 3.446-3.527 7.683-5.29 12.71-5.29 5.067 0 9.223 1.763 12.466 5.29 3.284 3.568 4.926 8.494 4.926 14.777zM13.031-683.95v10.52h57.71v-8.513c-5.676-6.041-11.31-14.068-16.905-24.081-5.554-10.014-9.852-20.311-12.892-30.892-2.19-7.46-3.588-15.629-4.196-24.507h-11.25c.121 7.014 1.5 15.487 4.135 25.419s6.405 19.5 11.31 28.703c4.947 9.243 10.197 17.027 15.75 23.351H13.033zm70.237-56.858l10.52.973c.892-4.946 2.595-8.534 5.108-10.764 2.514-2.229 5.737-3.344 9.669-3.344 3.365 0 6.304.77 8.818 2.311 2.554 1.54 4.642 3.587 6.263 6.141 1.622 2.595 2.98 6.082 4.075 10.46a54.98 54.98 0 011.642 13.378c0 .487-.021 1.217-.061 2.189-2.189-3.486-5.189-6.324-9-8.513-3.771-2.149-7.865-3.223-12.284-3.223-7.378 0-13.622 2.676-18.73 8.027-5.108 5.351-7.662 12.405-7.662 21.162 0 9.041 2.655 16.318 7.966 21.831 5.352 5.514 12.041 8.271 20.068 8.271 5.797 0 11.088-1.561 15.871-4.683 4.825-3.122 8.473-7.581 10.946-13.378 2.514-5.757 3.771-14.108 3.771-25.054 0-11.392-1.237-20.473-3.71-27.244-2.473-6.729-6.162-11.858-11.067-15.385-4.865-3.527-10.581-5.29-17.149-5.29-6.973 0-12.669 1.925-17.088 5.777-4.419 3.892-7.074 9.344-7.966 16.358zm44.818 39.344c0 6.284-1.683 11.271-5.048 14.96-3.324 3.689-7.338 5.534-12.04 5.534-4.865 0-9.102-1.987-12.71-5.96-3.608-3.973-5.412-9.121-5.412-15.446 0-5.675 1.703-10.297 5.108-13.865 3.446-3.527 7.683-5.29 12.71-5.29 5.067 0 9.223 1.763 12.466 5.29 3.284 3.568 4.926 8.494 4.926 14.777zm-98.94-154.614c-4.54 1.662-7.905 4.033-10.094 7.114-2.19 3.082-3.284 6.771-3.284 11.068 0 6.487 2.331 11.939 6.993 16.358 4.662 4.419 10.865 6.629 18.608 6.629 7.784 0 14.048-2.271 18.79-6.811 4.744-4.5 7.116-9.994 7.116-16.48 0-4.135-1.095-7.743-3.284-10.824-2.149-3.041-5.432-5.392-9.851-7.054 5.472-1.784 9.628-4.663 12.466-8.636 2.878-3.972 4.317-8.716 4.317-14.229 0-7.622-2.696-14.027-8.087-19.216-5.392-5.19-12.487-7.784-21.284-7.784-8.798 0-15.892 2.594-21.284 7.784-5.392 5.229-8.088 11.736-8.088 19.52 0 5.797 1.46 10.642 4.378 14.534 2.96 3.932 7.156 6.608 12.588 8.027zm-2.189 18.547c0-4.216 1.358-7.662 4.075-10.338 2.716-2.676 6.243-4.013 10.58-4.013 4.217 0 7.663 1.317 10.338 3.952 2.717 2.676 4.075 5.939 4.075 9.791 0 4.013-1.399 7.378-4.196 10.094-2.757 2.757-6.203 4.136-10.338 4.136-4.176 0-7.642-1.338-10.399-4.014-2.756-2.676-4.135-5.878-4.135-9.608zM23.43-878.7c0-3.122.73-6.142 2.19-9.061 1.5-2.919 3.709-5.189 6.628-6.811 2.919-1.581 6.06-2.371 9.425-2.371 5.23 0 9.548 1.682 12.953 5.047 3.406 3.365 5.108 7.642 5.108 12.831 0 5.27-1.763 9.629-5.29 13.074-3.487 3.446-7.865 5.169-13.136 5.169-5.148 0-9.425-1.702-12.83-5.108-3.366-3.405-5.048-7.662-5.048-12.77zm59.838-5.108l10.52.973c.892-4.946 2.595-8.534 5.108-10.764 2.514-2.229 5.737-3.344 9.669-3.344 3.365 0 6.304.77 8.818 2.311 2.554 1.54 4.642 3.587 6.263 6.141 1.622 2.595 2.98 6.082 4.075 10.46a54.98 54.98 0 011.642 13.378c0 .487-.021 1.217-.061 2.189-2.189-3.486-5.189-6.324-9-8.513-3.771-2.149-7.865-3.223-12.284-3.223-7.378 0-13.622 2.676-18.73 8.027-5.108 5.351-7.662 12.405-7.662 21.162 0 9.041 2.655 16.318 7.966 21.831 5.352 5.514 12.041 8.271 20.068 8.271 5.797 0 11.088-1.561 15.871-4.683 4.825-3.122 8.473-7.581 10.946-13.378 2.514-5.757 3.771-14.108 3.771-25.054 0-11.392-1.237-20.473-3.71-27.244-2.473-6.729-6.162-11.858-11.067-15.385-4.865-3.527-10.581-5.29-17.149-5.29-6.973 0-12.669 1.925-17.088 5.777-4.419 3.892-7.074 9.344-7.966 16.358zm44.818 39.344c0 6.284-1.683 11.271-5.048 14.96-3.324 3.689-7.338 5.534-12.04 5.534-4.865 0-9.102-1.987-12.71-5.96-3.608-3.973-5.412-9.121-5.412-15.446 0-5.675 1.703-10.297 5.108-13.865 3.446-3.527 7.683-5.29 12.71-5.29 5.067 0 9.223 1.763 12.466 5.29 3.284 3.568 4.926 8.494 4.926 14.777zM13.944-1026.81l10.52.97c.892-4.94 2.595-8.53 5.108-10.76 2.514-2.23 5.737-3.34 9.669-3.34 3.365 0 6.304.77 8.818 2.31 2.553 1.54 4.641 3.59 6.263 6.14 1.622 2.59 2.98 6.08 4.074 10.46a54.978 54.978 0 011.642 13.38c0 .48-.02 1.21-.06 2.19-2.19-3.49-5.19-6.33-9-8.52-3.77-2.15-7.866-3.22-12.284-3.22-7.379 0-13.622 2.68-18.73 8.03-5.108 5.35-7.662 12.402-7.662 21.159 0 9.041 2.655 16.318 7.966 21.831 5.351 5.514 12.04 8.271 20.068 8.271 5.797 0 11.087-1.561 15.871-4.683 4.825-3.122 8.473-7.581 10.946-13.378 2.514-5.757 3.77-14.108 3.77-25.05 0-11.4-1.236-20.48-3.71-27.25-2.472-6.73-6.161-11.86-11.067-15.38-4.864-3.53-10.58-5.29-17.148-5.29-6.973 0-12.67 1.92-17.088 5.77-4.42 3.9-7.075 9.35-7.966 16.36zm44.817 39.346c0 6.284-1.682 11.271-5.047 14.96-3.324 3.689-7.338 5.534-12.04 5.534-4.865 0-9.102-1.987-12.71-5.96-3.608-3.973-5.412-9.121-5.412-15.446 0-5.675 1.702-10.297 5.108-13.864 3.446-3.53 7.682-5.29 12.71-5.29 5.067 0 9.222 1.76 12.466 5.29 3.283 3.567 4.925 8.493 4.925 14.776zm24.507-39.346l10.52.97c.892-4.94 2.595-8.53 5.108-10.76 2.514-2.23 5.737-3.34 9.669-3.34 3.365 0 6.304.77 8.818 2.31 2.554 1.54 4.642 3.59 6.263 6.14 1.622 2.59 2.98 6.08 4.075 10.46a55.008 55.008 0 011.642 13.38c0 .48-.021 1.21-.061 2.19-2.189-3.49-5.189-6.33-9-8.52-3.771-2.15-7.865-3.22-12.284-3.22-7.378 0-13.622 2.68-18.73 8.03-5.108 5.35-7.662 12.402-7.662 21.159 0 9.041 2.655 16.318 7.966 21.831 5.352 5.514 12.041 8.271 20.068 8.271 5.797 0 11.088-1.561 15.871-4.683 4.825-3.122 8.473-7.581 10.946-13.378 2.514-5.757 3.771-14.108 3.771-25.05 0-11.4-1.237-20.48-3.71-27.25-2.473-6.73-6.162-11.86-11.067-15.38-4.865-3.53-10.581-5.29-17.149-5.29-6.973 0-12.669 1.92-17.088 5.77-4.419 3.9-7.074 9.35-7.966 16.36zm44.818 39.346c0 6.284-1.683 11.271-5.048 14.96-3.324 3.689-7.338 5.534-12.04 5.534-4.865 0-9.102-1.987-12.71-5.96-3.608-3.973-5.412-9.121-5.412-15.446 0-5.675 1.703-10.297 5.108-13.864 3.446-3.53 7.683-5.29 12.71-5.29 5.067 0 9.223 1.76 12.466 5.29 3.284 3.567 4.926 8.493 4.926 14.776zM53.531-1190.42H42.586v69.75c-2.636-2.52-6.102-5.03-10.4-7.54-4.256-2.52-8.087-4.4-11.492-5.66v10.58c6.121 2.88 11.473 6.37 16.054 10.46 4.58 4.1 7.824 8.07 9.73 11.92h7.053v-89.51zm28.095 43.96c0 10.54 1.074 19.02 3.223 25.42 2.19 6.45 5.412 11.41 9.669 14.9 4.297 3.49 9.689 5.23 16.176 5.23 4.783 0 8.979-.97 12.587-2.92 3.609-1.9 6.588-4.68 8.94-8.33 2.351-3.61 4.196-8.03 5.533-13.26 1.338-5.19 2.007-12.2 2.007-21.04 0-10.46-1.074-18.91-3.223-25.35-2.148-6.41-5.371-11.38-9.669-14.9-4.256-3.49-9.648-5.23-16.175-5.23-8.595 0-15.345 3.08-20.25 9.24-5.879 7.42-8.818 19.5-8.818 36.24zm11.25 0c0-14.63 1.703-24.38 5.108-29.25 3.446-4.82 7.683-7.23 12.71-7.23 5.027 0 9.243 2.43 12.648 7.29 3.446 4.87 5.169 14.6 5.169 29.19 0 14.68-1.723 24.43-5.169 29.25-3.405 4.83-7.662 7.24-12.77 7.24-5.027 0-9.041-2.13-12.04-6.39-3.77-5.43-5.656-15.46-5.656-30.1zm-78.932-166.35l10.52.97c.892-4.94 2.595-8.53 5.108-10.76 2.514-2.23 5.737-3.34 9.669-3.34 3.365 0 6.304.77 8.818 2.31 2.553 1.54 4.641 3.59 6.263 6.14 1.622 2.59 2.98 6.08 4.074 10.46a54.978 54.978 0 011.642 13.38c0 .48-.02 1.21-.06 2.19-2.19-3.49-5.19-6.33-9-8.52-3.77-2.15-7.866-3.22-12.284-3.22-7.379 0-13.622 2.68-18.73 8.03-5.108 5.35-7.662 12.4-7.662 21.16 0 9.04 2.655 16.32 7.966 21.83 5.351 5.51 12.04 8.27 20.068 8.27 5.797 0 11.087-1.56 15.871-4.68 4.825-3.12 8.473-7.58 10.946-13.38 2.514-5.76 3.77-14.11 3.77-25.05 0-11.4-1.236-20.48-3.71-27.25-2.472-6.73-6.161-11.86-11.067-15.38-4.864-3.53-10.58-5.29-17.148-5.29-6.973 0-12.67 1.92-17.088 5.77-4.42 3.9-7.075 9.35-7.966 16.36zm44.817 39.35c0 6.28-1.682 11.27-5.047 14.96-3.324 3.69-7.338 5.53-12.04 5.53-4.865 0-9.102-1.99-12.71-5.96-3.608-3.97-5.412-9.12-5.412-15.45 0-5.67 1.702-10.29 5.108-13.86 3.446-3.53 7.682-5.29 12.71-5.29 5.067 0 9.222 1.76 12.466 5.29 3.283 3.57 4.925 8.49 4.925 14.78zm64.095-59.96H111.91v69.75c-2.635-2.52-6.102-5.03-10.399-7.54-4.257-2.52-8.088-4.4-11.493-5.66v10.58c6.122 2.88 11.473 6.37 16.054 10.46 4.581 4.1 7.824 8.07 9.73 11.92h7.054v-89.51zm-69.325-143H42.586v69.75c-2.636-2.52-6.102-5.03-10.4-7.54-4.256-2.52-8.087-4.4-11.492-5.66v10.58c6.121 2.88 11.473 6.37 16.054 10.46 4.58 4.1 7.824 8.07 9.73 11.92h7.053v-89.51zm29.737 20.61l10.52.97c.892-4.94 2.595-8.53 5.108-10.76 2.514-2.23 5.737-3.34 9.669-3.34 3.365 0 6.304.77 8.818 2.31 2.554 1.54 4.642 3.59 6.263 6.14 1.622 2.59 2.98 6.08 4.075 10.46a55.008 55.008 0 011.642 13.38c0 .48-.021 1.21-.061 2.19-2.189-3.49-5.189-6.33-9-8.52-3.771-2.15-7.865-3.22-12.284-3.22-7.378 0-13.622 2.68-18.73 8.03-5.108 5.35-7.662 12.4-7.662 21.16 0 9.04 2.655 16.32 7.966 21.83 5.352 5.51 12.041 8.27 20.068 8.27 5.797 0 11.088-1.56 15.871-4.68 4.825-3.12 8.473-7.58 10.946-13.38 2.514-5.76 3.771-14.11 3.771-25.05 0-11.4-1.237-20.48-3.71-27.25-2.473-6.73-6.162-11.86-11.067-15.38-4.865-3.53-10.581-5.29-17.149-5.29-6.973 0-12.669 1.92-17.088 5.77-4.419 3.9-7.074 9.35-7.966 16.36zm44.818 39.35c0 6.28-1.683 11.27-5.048 14.96-3.324 3.69-7.338 5.53-12.04 5.53-4.865 0-9.102-1.99-12.71-5.96-3.608-3.97-5.412-9.12-5.412-15.45 0-5.67 1.703-10.29 5.108-13.86 3.446-3.53 7.683-5.29 12.71-5.29 5.067 0 9.223 1.76 12.466 5.29 3.284 3.57 4.926 8.49 4.926 14.78zm-74.555-202.96H42.586v69.75c-2.636-2.52-6.102-5.03-10.4-7.54-4.256-2.52-8.087-4.4-11.492-5.66v10.58c6.121 2.88 11.473 6.37 16.054 10.46 4.58 4.1 7.824 8.07 9.73 11.92h7.053v-89.51zm85.622 10.52v-10.52H80.227c-.08 2.63.345 5.17 1.277 7.6 1.5 4.01 3.892 7.96 7.176 11.86 3.324 3.89 8.108 8.39 14.351 13.5 9.69 7.94 16.237 14.23 19.642 18.85 3.406 4.66 5.108 9.06 5.108 13.19 0 4.34-1.56 7.99-4.682 10.95-3.081 3-7.115 4.5-12.101 4.5-5.271 0-9.487-1.58-12.649-4.74-3.162-3.17-4.764-7.54-4.804-13.14l-11.25 1.16c.77 8.39 3.669 14.77 8.696 19.15 5.027 4.42 11.777 6.63 20.25 6.63 8.554 0 15.324-2.37 20.311-7.11 4.986-4.75 7.479-10.63 7.479-17.64 0-3.57-.729-7.07-2.189-10.52-1.459-3.45-3.892-7.07-7.297-10.88-3.365-3.82-8.98-9.05-16.845-15.69-6.567-5.52-10.783-9.27-12.648-11.25-1.865-1.95-3.406-3.92-4.622-5.9h43.723zm-125.21-132.91l10.52.97c.893-4.94 2.595-8.53 5.109-10.76 2.514-2.23 5.737-3.34 9.669-3.34 3.365 0 6.304.77 8.818 2.31 2.553 1.54 4.641 3.59 6.263 6.14 1.622 2.59 2.98 6.08 4.074 10.46a54.978 54.978 0 011.642 13.38c0 .48-.02 1.21-.06 2.19-2.19-3.49-5.19-6.33-9-8.52-3.77-2.15-7.866-3.22-12.284-3.22-7.379 0-13.622 2.68-18.73 8.03-5.108 5.35-7.662 12.4-7.662 21.16 0 9.04 2.655 16.32 7.966 21.83 5.351 5.51 12.04 8.27 20.068 8.27 5.797 0 11.087-1.56 15.871-4.68 4.825-3.12 8.473-7.58 10.946-13.38 2.514-5.76 3.77-14.11 3.77-25.05 0-11.4-1.236-20.48-3.71-27.25-2.472-6.73-6.161-11.86-11.067-15.38-4.864-3.53-10.58-5.29-17.148-5.29-6.973 0-12.67 1.92-17.088 5.77-4.42 3.9-7.075 9.35-7.966 16.36zm44.818 39.35c0 6.28-1.682 11.27-5.047 14.96-3.324 3.69-7.338 5.53-12.04 5.53-4.865 0-9.102-1.99-12.71-5.96-3.608-3.97-5.412-9.12-5.412-15.45 0-5.67 1.702-10.29 5.108-13.86 3.446-3.53 7.682-5.29 12.71-5.29 5.067 0 9.222 1.76 12.466 5.29 3.283 3.57 4.925 8.49 4.925 14.78zm64.095-59.96H111.91v69.75c-2.635-2.52-6.102-5.03-10.399-7.54-4.257-2.52-8.088-4.4-11.493-5.66v10.58c6.122 2.88 11.473 6.37 16.054 10.46 4.581 4.1 7.824 8.07 9.73 11.92h7.054v-89.51zM12.363-1881.89l10.945 1.46c1.257-6.2 3.386-10.68 6.386-13.44 3.04-2.72 6.73-4.07 11.067-4.07 5.149 0 9.487 1.78 13.014 5.35 3.567 3.57 5.351 7.98 5.351 13.25 0 5.03-1.642 9.17-4.926 12.41-3.283 3.28-7.46 4.93-12.527 4.93-2.067 0-4.642-.41-7.723-1.22l1.217 9.61c.73-.08 1.317-.12 1.763-.12 4.662 0 8.858 1.21 12.588 3.64 3.73 2.44 5.594 6.19 5.594 11.25 0 4.02-1.358 7.34-4.074 9.98-2.716 2.63-6.223 3.95-10.52 3.95-4.257 0-7.804-1.34-10.642-4.01-2.838-2.68-4.662-6.69-5.473-12.04l-10.946 1.94c1.338 7.34 4.378 13.02 9.122 17.03 4.743 4.05 10.642 6.08 17.696 6.08 4.865 0 9.344-1.05 13.439-3.16 4.095-2.07 7.216-4.91 9.365-8.52 2.189-3.6 3.283-7.43 3.283-11.49 0-3.85-1.033-7.36-3.1-10.52-2.068-3.16-5.13-5.67-9.183-7.54 5.27-1.22 9.365-3.75 12.283-7.6 2.92-3.81 4.379-8.6 4.379-14.35 0-7.79-2.838-14.39-8.514-19.83-5.675-5.39-12.85-8.08-21.527-8.08-7.824 0-14.33 2.33-19.52 6.99-5.148 4.66-8.088 10.7-8.817 18.12zm70.905-2.92l10.52.97c.892-4.94 2.595-8.53 5.108-10.76 2.514-2.23 5.737-3.34 9.669-3.34 3.365 0 6.304.77 8.818 2.31 2.554 1.54 4.642 3.59 6.263 6.14 1.622 2.59 2.98 6.08 4.075 10.46a55.008 55.008 0 011.642 13.38c0 .48-.021 1.21-.061 2.19-2.189-3.49-5.189-6.33-9-8.52-3.771-2.15-7.865-3.22-12.284-3.22-7.378 0-13.622 2.68-18.73 8.03-5.108 5.35-7.662 12.4-7.662 21.16 0 9.04 2.655 16.32 7.966 21.83 5.352 5.51 12.041 8.27 20.068 8.27 5.797 0 11.088-1.56 15.871-4.68 4.825-3.12 8.473-7.58 10.946-13.38 2.514-5.76 3.771-14.11 3.771-25.05 0-11.4-1.237-20.48-3.71-27.25-2.473-6.73-6.162-11.86-11.067-15.38-4.865-3.53-10.581-5.29-17.149-5.29-6.973 0-12.669 1.92-17.088 5.77-4.419 3.9-7.074 9.35-7.966 16.36zm44.818 39.35c0 6.28-1.683 11.27-5.048 14.96-3.324 3.69-7.338 5.53-12.04 5.53-4.865 0-9.102-1.99-12.71-5.96-3.608-3.97-5.412-9.12-5.412-15.45 0-5.67 1.703-10.29 5.108-13.86 3.446-3.53 7.683-5.29 12.71-5.29 5.067 0 9.223 1.76 12.466 5.29 3.284 3.57 4.926 8.49 4.926 14.78zm-74.555-202.96H42.586v69.75c-2.636-2.52-6.102-5.03-10.4-7.54-4.256-2.52-8.087-4.4-11.492-5.66v10.58c6.121 2.88 11.473 6.37 16.054 10.46 4.58 4.1 7.824 8.07 9.73 11.92h7.053v-89.51zm63.183 0v21.34H78.038v10.04l40.683 57.77h8.939v-57.77h12.04v-10.04h-12.04v-21.34h-10.946zm0 31.38v40.19l-27.912-40.19h27.912zm-102.77-153.77l10.52.97c.892-4.94 2.595-8.53 5.108-10.76 2.514-2.23 5.737-3.34 9.669-3.34 3.365 0 6.304.77 8.818 2.31 2.553 1.54 4.641 3.59 6.263 6.14 1.622 2.59 2.98 6.08 4.074 10.46a54.978 54.978 0 011.642 13.38c0 .48-.02 1.21-.06 2.19-2.19-3.49-5.19-6.33-9-8.52-3.77-2.15-7.866-3.22-12.284-3.22-7.379 0-13.622 2.68-18.73 8.03-5.108 5.35-7.662 12.4-7.662 21.16 0 9.04 2.655 16.32 7.966 21.83 5.351 5.51 12.04 8.27 20.068 8.27 5.797 0 11.087-1.56 15.871-4.68 4.825-3.12 8.473-7.58 10.946-13.38 2.514-5.76 3.77-14.11 3.77-25.05 0-11.4-1.236-20.48-3.71-27.25-2.472-6.73-6.161-11.86-11.067-15.38-4.864-3.53-10.58-5.29-17.148-5.29-6.973 0-12.67 1.92-17.088 5.77-4.42 3.9-7.075 9.35-7.966 16.36zm44.817 39.35c0 6.28-1.682 11.27-5.047 14.96-3.324 3.69-7.338 5.53-12.04 5.53-4.865 0-9.102-1.99-12.71-5.96-3.608-3.97-5.412-9.12-5.412-15.45 0-5.67 1.702-10.29 5.108-13.86 3.446-3.53 7.682-5.29 12.71-5.29 5.067 0 9.222 1.76 12.466 5.29 3.283 3.57 4.925 8.49 4.925 14.78zm64.095-59.96H111.91v69.75c-2.635-2.52-6.102-5.03-10.399-7.54-4.257-2.52-8.088-4.4-11.493-5.66v10.58c6.122 2.88 11.473 6.37 16.054 10.46 4.581 4.1 7.824 8.07 9.73 11.92h7.054v-89.51zM12.302-2311.07l11.493.97c.851-5.59 2.817-9.81 5.899-12.65 3.121-2.79 6.871-4.19 11.25-4.19 5.27 0 9.73 1.98 13.378 5.96 3.649 3.97 5.473 9.24 5.473 15.81 0 6.24-1.764 11.17-5.29 14.77-3.487 3.61-8.068 5.42-13.744 5.42-3.527 0-6.71-.81-9.547-2.44-2.838-1.58-5.068-3.64-6.69-6.2l-10.276 1.34 8.635 45.79h44.33v-10.46H31.64l-4.805-23.96c5.352 3.73 10.967 5.6 16.845 5.6 7.784 0 14.352-2.7 19.703-8.09 5.351-5.39 8.027-12.33 8.027-20.8 0-8.07-2.352-15.04-7.054-20.92-5.716-7.22-13.52-10.82-23.412-10.82-8.108 0-14.737 2.27-19.886 6.81-5.108 4.54-8.027 10.56-8.756 18.06zm70.966-2.74l10.52.97c.892-4.94 2.595-8.53 5.108-10.76 2.514-2.23 5.737-3.34 9.669-3.34 3.365 0 6.304.77 8.818 2.31 2.554 1.54 4.642 3.59 6.263 6.14 1.622 2.59 2.98 6.08 4.075 10.46a55.008 55.008 0 011.642 13.38c0 .48-.021 1.21-.061 2.19-2.189-3.49-5.189-6.33-9-8.52-3.771-2.15-7.865-3.22-12.284-3.22-7.378 0-13.622 2.68-18.73 8.03-5.108 5.35-7.662 12.4-7.662 21.16 0 9.04 2.655 16.32 7.966 21.83 5.352 5.51 12.041 8.27 20.068 8.27 5.797 0 11.088-1.56 15.871-4.68 4.825-3.12 8.473-7.58 10.946-13.38 2.514-5.76 3.771-14.11 3.771-25.05 0-11.4-1.237-20.48-3.71-27.25-2.473-6.73-6.162-11.86-11.067-15.38-4.865-3.53-10.581-5.29-17.149-5.29-6.973 0-12.669 1.92-17.088 5.77-4.419 3.9-7.074 9.35-7.966 16.36zm44.818 39.35c0 6.28-1.683 11.27-5.048 14.96-3.324 3.69-7.338 5.53-12.04 5.53-4.865 0-9.102-1.99-12.71-5.96-3.608-3.97-5.412-9.12-5.412-15.45 0-5.67 1.703-10.29 5.108-13.86 3.446-3.53 7.683-5.29 12.71-5.29 5.067 0 9.223 1.76 12.466 5.29 3.284 3.57 4.926 8.49 4.926 14.78zm-74.555-202.96H42.586v69.75c-2.636-2.52-6.102-5.03-10.4-7.54-4.256-2.52-8.087-4.4-11.492-5.66v10.58c6.121 2.88 11.473 6.37 16.054 10.46 4.58 4.1 7.824 8.07 9.73 11.92h7.053v-89.51zm84.892 67.31l-10.885-.85c-.973 4.3-2.351 7.42-4.135 9.37-2.959 3.12-6.608 4.68-10.946 4.68-3.486 0-6.547-.97-9.182-2.92-3.446-2.51-6.163-6.18-8.149-11.01-1.986-4.82-3.02-11.69-3.101-20.61 2.635 4.01 5.858 6.99 9.669 8.94 3.81 1.95 7.804 2.92 11.979 2.92 7.298 0 13.5-2.7 18.608-8.09 5.149-5.35 7.723-12.28 7.723-20.8 0-5.59-1.216-10.8-3.648-15.63-2.392-4.78-5.696-8.45-9.912-11-4.217-2.56-9-3.83-14.352-3.83-9.121 0-16.56 3.34-22.317 10.03-5.757 6.73-8.635 17.8-8.635 33.2 0 17.23 3.182 29.76 9.547 37.58 5.554 6.82 13.034 10.22 22.439 10.22 7.014 0 12.75-1.97 17.21-5.9 4.5-3.93 7.195-9.36 8.087-16.3zm-44.696-38.43c0-3.77.79-7.38 2.372-10.82 1.622-3.45 3.872-6.08 6.75-7.91 2.878-1.78 5.899-2.67 9.061-2.67 4.621 0 8.594 1.86 11.919 5.59 3.324 3.73 4.986 8.8 4.986 15.2 0 6.17-1.642 11.01-4.925 14.54-3.284 3.57-7.419 5.35-12.406 5.35-4.946 0-9.142-1.78-12.588-5.35-3.446-3.53-5.169-8.17-5.169-13.93zm-79.783-151.27l10.52.97c.892-4.94 2.595-8.53 5.108-10.76 2.514-2.23 5.737-3.34 9.669-3.34 3.365 0 6.304.77 8.818 2.31 2.553 1.54 4.641 3.59 6.263 6.14 1.622 2.59 2.98 6.08 4.074 10.46a54.978 54.978 0 011.642 13.38c0 .48-.02 1.21-.06 2.19-2.19-3.49-5.19-6.33-9-8.52-3.77-2.15-7.866-3.22-12.284-3.22-7.379 0-13.622 2.68-18.73 8.03-5.108 5.35-7.662 12.4-7.662 21.16 0 9.04 2.655 16.32 7.966 21.83 5.351 5.51 12.04 8.27 20.068 8.27 5.797 0 11.087-1.56 15.871-4.68 4.825-3.12 8.473-7.58 10.946-13.38 2.514-5.76 3.77-14.11 3.77-25.05 0-11.4-1.236-20.48-3.71-27.25-2.472-6.73-6.161-11.86-11.067-15.38-4.864-3.53-10.58-5.29-17.148-5.29-6.973 0-12.67 1.92-17.088 5.77-4.42 3.9-7.075 9.35-7.966 16.36zm44.817 39.35c0 6.28-1.682 11.27-5.047 14.96-3.324 3.69-7.338 5.53-12.04 5.53-4.865 0-9.102-1.99-12.71-5.96-3.608-3.97-5.412-9.12-5.412-15.45 0-5.67 1.702-10.29 5.108-13.86 3.446-3.53 7.682-5.29 12.71-5.29 5.067 0 9.222 1.76 12.466 5.29 3.283 3.57 4.925 8.49 4.925 14.78zm64.095-59.96H111.91v69.75c-2.635-2.52-6.102-5.03-10.399-7.54-4.257-2.52-8.088-4.4-11.493-5.66v10.58c6.122 2.88 11.473 6.37 16.054 10.46 4.581 4.1 7.824 8.07 9.73 11.92h7.054v-89.51zm-109.825-65.53v10.52h57.71v-8.51c-5.676-6.04-11.31-14.07-16.905-24.08-5.554-10.02-9.852-20.32-12.892-30.9-2.19-7.46-3.588-15.62-4.196-24.5h-11.25c.121 7.01 1.5 15.48 4.135 25.42 2.635 9.93 6.405 19.5 11.31 28.7 4.947 9.24 10.197 17.03 15.75 23.35H13.033zm70.237-56.86l10.52.97c.892-4.94 2.595-8.53 5.108-10.76 2.514-2.23 5.737-3.34 9.669-3.34 3.365 0 6.304.77 8.818 2.31 2.554 1.54 4.642 3.59 6.263 6.14 1.622 2.59 2.98 6.08 4.075 10.46a55.008 55.008 0 011.642 13.38c0 .48-.021 1.21-.061 2.19-2.189-3.49-5.189-6.33-9-8.52-3.771-2.15-7.865-3.22-12.284-3.22-7.378 0-13.622 2.68-18.73 8.03-5.108 5.35-7.662 12.4-7.662 21.16 0 9.04 2.655 16.32 7.966 21.83 5.352 5.51 12.041 8.27 20.068 8.27 5.797 0 11.088-1.56 15.871-4.68 4.825-3.12 8.473-7.58 10.946-13.38 2.514-5.76 3.771-14.11 3.771-25.05 0-11.4-1.237-20.48-3.71-27.25-2.473-6.73-6.162-11.86-11.067-15.38-4.865-3.53-10.581-5.29-17.149-5.29-6.973 0-12.669 1.92-17.088 5.77-4.419 3.9-7.074 9.35-7.966 16.36zm44.818 39.35c0 6.28-1.683 11.27-5.048 14.96-3.324 3.69-7.338 5.53-12.04 5.53-4.865 0-9.102-1.99-12.71-5.96-3.608-3.97-5.412-9.12-5.412-15.45 0-5.67 1.703-10.29 5.108-13.86 3.446-3.53 7.683-5.29 12.71-5.29 5.067 0 9.223 1.76 12.466 5.29 3.284 3.57 4.926 8.49 4.926 14.78zm-74.555-202.96H42.586v69.75c-2.636-2.52-6.102-5.03-10.4-7.54-4.256-2.52-8.087-4.4-11.492-5.66v10.58c6.121 2.88 11.473 6.37 16.054 10.46 4.58 4.1 7.824 8.07 9.73 11.92h7.053v-89.51zm44.94 48.34c-4.54 1.66-7.906 4.04-10.095 7.12-2.19 3.08-3.284 6.77-3.284 11.06 0 6.49 2.331 11.94 6.993 16.36 4.663 4.42 10.865 6.63 18.609 6.63 7.783 0 14.047-2.27 18.79-6.81 4.743-4.5 7.115-9.99 7.115-16.48 0-4.14-1.095-7.74-3.284-10.82-2.148-3.04-5.432-5.4-9.851-7.06 5.473-1.78 9.628-4.66 12.466-8.63 2.878-3.98 4.318-8.72 4.318-14.23 0-7.62-2.696-14.03-8.088-19.22-5.392-5.19-12.487-7.78-21.284-7.78-8.797 0-15.892 2.59-21.284 7.78-5.392 5.23-8.088 11.74-8.088 19.52 0 5.8 1.46 10.64 4.379 14.53 2.96 3.94 7.155 6.61 12.588 8.03zm-2.19 18.55c0-4.22 1.359-7.66 4.075-10.34 2.716-2.67 6.243-4.01 10.581-4.01 4.216 0 7.662 1.32 10.338 3.95 2.716 2.68 4.074 5.94 4.074 9.79 0 4.01-1.399 7.38-4.196 10.1-2.757 2.75-6.203 4.13-10.338 4.13-4.175 0-7.642-1.34-10.398-4.01-2.757-2.68-4.136-5.88-4.136-9.61zm-3.527-41.17c0-3.12.73-6.14 2.19-9.06 1.5-2.92 3.71-5.19 6.628-6.81 2.919-1.58 6.061-2.37 9.426-2.37 5.229 0 9.547 1.68 12.952 5.04 3.406 3.37 5.108 7.65 5.108 12.84 0 5.27-1.763 9.62-5.29 13.07-3.487 3.45-7.865 5.17-13.135 5.17-5.149 0-9.426-1.7-12.831-5.11-3.365-3.41-5.048-7.66-5.048-12.77zm-78.81-148.11l10.52.97c.892-4.94 2.595-8.53 5.108-10.76 2.514-2.23 5.737-3.34 9.669-3.34 3.365 0 6.304.77 8.818 2.31 2.553 1.54 4.641 3.59 6.263 6.14 1.622 2.59 2.98 6.08 4.074 10.46a54.978 54.978 0 011.642 13.38c0 .48-.02 1.21-.06 2.19-2.19-3.49-5.19-6.33-9-8.52-3.77-2.15-7.866-3.22-12.284-3.22-7.379 0-13.622 2.68-18.73 8.03-5.108 5.35-7.662 12.4-7.662 21.16 0 9.04 2.655 16.32 7.966 21.83 5.351 5.51 12.04 8.27 20.068 8.27 5.797 0 11.087-1.56 15.871-4.68 4.825-3.12 8.473-7.58 10.946-13.38 2.514-5.76 3.77-14.11 3.77-25.05 0-11.4-1.236-20.48-3.71-27.25-2.472-6.73-6.161-11.86-11.067-15.38-4.864-3.53-10.58-5.29-17.148-5.29-6.973 0-12.67 1.92-17.088 5.77-4.42 3.9-7.075 9.35-7.966 16.36zm44.817 39.35c0 6.28-1.682 11.27-5.047 14.96-3.324 3.69-7.338 5.53-12.04 5.53-4.865 0-9.102-1.99-12.71-5.96-3.608-3.97-5.412-9.12-5.412-15.45 0-5.67 1.702-10.29 5.108-13.86 3.446-3.53 7.682-5.29 12.71-5.29 5.067 0 9.222 1.76 12.466 5.29 3.283 3.57 4.925 8.49 4.925 14.78zm64.095-59.96H111.91v69.75c-2.635-2.52-6.102-5.03-10.399-7.54-4.257-2.52-8.088-4.4-11.493-5.66v10.58c6.122 2.88 11.473 6.37 16.054 10.46 4.581 4.1 7.824 8.07 9.73 11.92h7.054v-89.51zM13.944-3171.81l10.52.97c.892-4.94 2.595-8.53 5.108-10.76 2.514-2.23 5.737-3.34 9.669-3.34 3.365 0 6.304.77 8.818 2.31 2.553 1.54 4.641 3.59 6.263 6.14 1.622 2.59 2.98 6.08 4.074 10.46a54.978 54.978 0 011.642 13.38c0 .48-.02 1.21-.06 2.19-2.19-3.49-5.19-6.33-9-8.52-3.77-2.15-7.866-3.22-12.284-3.22-7.379 0-13.622 2.68-18.73 8.03-5.108 5.35-7.662 12.4-7.662 21.16 0 9.04 2.655 16.32 7.966 21.83 5.351 5.51 12.04 8.27 20.068 8.27 5.797 0 11.087-1.56 15.871-4.68 4.825-3.12 8.473-7.58 10.946-13.38 2.514-5.76 3.77-14.11 3.77-25.05 0-11.4-1.236-20.48-3.71-27.25-2.472-6.73-6.161-11.86-11.067-15.38-4.864-3.53-10.58-5.29-17.148-5.29-6.973 0-12.67 1.92-17.088 5.77-4.42 3.9-7.075 9.35-7.966 16.36zm44.817 39.35c0 6.28-1.682 11.27-5.047 14.96-3.324 3.69-7.338 5.53-12.04 5.53-4.865 0-9.102-1.99-12.71-5.96-3.608-3.97-5.412-9.12-5.412-15.45 0-5.67 1.702-10.29 5.108-13.86 3.446-3.53 7.682-5.29 12.71-5.29 5.067 0 9.222 1.76 12.466 5.29 3.283 3.57 4.925 8.49 4.925 14.78zm24.507-39.35l10.52.97c.892-4.94 2.595-8.53 5.108-10.76 2.514-2.23 5.737-3.34 9.669-3.34 3.365 0 6.304.77 8.818 2.31 2.554 1.54 4.642 3.59 6.263 6.14 1.622 2.59 2.98 6.08 4.075 10.46a55.008 55.008 0 011.642 13.38c0 .48-.021 1.21-.061 2.19-2.189-3.49-5.189-6.33-9-8.52-3.771-2.15-7.865-3.22-12.284-3.22-7.378 0-13.622 2.68-18.73 8.03-5.108 5.35-7.662 12.4-7.662 21.16 0 9.04 2.655 16.32 7.966 21.83 5.352 5.51 12.041 8.27 20.068 8.27 5.797 0 11.088-1.56 15.871-4.68 4.825-3.12 8.473-7.58 10.946-13.38 2.514-5.76 3.771-14.11 3.771-25.05 0-11.4-1.237-20.48-3.71-27.25-2.473-6.73-6.162-11.86-11.067-15.38-4.865-3.53-10.581-5.29-17.149-5.29-6.973 0-12.669 1.92-17.088 5.77-4.419 3.9-7.074 9.35-7.966 16.36zm44.818 39.35c0 6.28-1.683 11.27-5.048 14.96-3.324 3.69-7.338 5.53-12.04 5.53-4.865 0-9.102-1.99-12.71-5.96-3.608-3.97-5.412-9.12-5.412-15.45 0-5.67 1.703-10.29 5.108-13.86 3.446-3.53 7.683-5.29 12.71-5.29 5.067 0 9.223 1.76 12.466 5.29 3.284 3.57 4.926 8.49 4.926 14.78zM69.829-3324.9v-10.52H10.903c-.081 2.63.345 5.17 1.277 7.6 1.5 4.01 3.892 7.96 7.176 11.86 3.324 3.89 8.108 8.39 14.351 13.5 9.69 7.94 16.237 14.23 19.642 18.85 3.405 4.66 5.108 9.06 5.108 13.19 0 4.34-1.56 7.99-4.682 10.95-3.081 3-7.115 4.5-12.102 4.5-5.27 0-9.486-1.58-12.648-4.74-3.162-3.17-4.764-7.54-4.804-13.14l-11.25 1.16c.77 8.39 3.669 14.77 8.696 19.15 5.027 4.42 11.777 6.63 20.25 6.63 8.554 0 15.324-2.37 20.31-7.11 4.987-4.75 7.48-10.63 7.48-17.64 0-3.57-.73-7.07-2.19-10.52-1.459-3.45-3.89-7.07-7.296-10.88-3.365-3.82-8.98-9.05-16.845-15.69-6.567-5.52-10.784-9.27-12.649-11.25-1.864-1.95-3.405-3.92-4.621-5.9h43.723zm11.797 33.44c0 10.54 1.074 19.02 3.223 25.42 2.19 6.45 5.412 11.41 9.669 14.9 4.297 3.49 9.689 5.23 16.176 5.23 4.783 0 8.979-.97 12.587-2.92 3.609-1.9 6.588-4.68 8.94-8.33 2.351-3.61 4.196-8.03 5.533-13.26 1.338-5.19 2.007-12.2 2.007-21.04 0-10.46-1.074-18.91-3.223-25.35-2.148-6.41-5.371-11.38-9.669-14.9-4.256-3.49-9.648-5.23-16.175-5.23-8.595 0-15.345 3.08-20.25 9.24-5.879 7.42-8.818 19.5-8.818 36.24zm11.25 0c0-14.63 1.703-24.38 5.108-29.25 3.446-4.82 7.683-7.23 12.71-7.23 5.027 0 9.243 2.43 12.648 7.29 3.446 4.87 5.169 14.6 5.169 29.19 0 14.68-1.723 24.43-5.169 29.25-3.405 4.83-7.662 7.24-12.77 7.24-5.027 0-9.041-2.13-12.04-6.39-3.77-5.43-5.656-15.46-5.656-30.1zm-78.932-166.35l10.52.97c.892-4.94 2.595-8.53 5.108-10.76 2.514-2.23 5.737-3.34 9.669-3.34 3.365 0 6.304.77 8.818 2.31 2.553 1.54 4.641 3.59 6.263 6.14 1.622 2.59 2.98 6.08 4.074 10.46a54.978 54.978 0 011.642 13.38c0 .48-.02 1.21-.06 2.19-2.19-3.49-5.19-6.33-9-8.52-3.77-2.15-7.866-3.22-12.284-3.22-7.379 0-13.622 2.68-18.73 8.03-5.108 5.35-7.662 12.4-7.662 21.16 0 9.04 2.655 16.32 7.966 21.83 5.351 5.51 12.04 8.27 20.068 8.27 5.797 0 11.087-1.56 15.871-4.68 4.825-3.12 8.473-7.58 10.946-13.38 2.514-5.76 3.77-14.11 3.77-25.05 0-11.4-1.236-20.48-3.71-27.25-2.472-6.73-6.161-11.86-11.067-15.38-4.864-3.53-10.58-5.29-17.148-5.29-6.973 0-12.67 1.92-17.088 5.77-4.42 3.9-7.075 9.35-7.966 16.36zm44.817 39.35c0 6.28-1.682 11.27-5.047 14.96-3.324 3.69-7.338 5.53-12.04 5.53-4.865 0-9.102-1.99-12.71-5.96-3.608-3.97-5.412-9.12-5.412-15.45 0-5.67 1.702-10.29 5.108-13.86 3.446-3.53 7.682-5.29 12.71-5.29 5.067 0 9.222 1.76 12.466 5.29 3.283 3.57 4.925 8.49 4.925 14.78zm80.392-49.44v-10.52H80.227c-.08 2.63.345 5.17 1.277 7.6 1.5 4.01 3.892 7.96 7.176 11.86 3.324 3.89 8.108 8.39 14.351 13.5 9.69 7.94 16.237 14.23 19.642 18.85 3.406 4.66 5.108 9.06 5.108 13.19 0 4.34-1.56 7.99-4.682 10.95-3.081 3-7.115 4.5-12.101 4.5-5.271 0-9.487-1.58-12.649-4.74-3.162-3.17-4.764-7.54-4.804-13.14l-11.25 1.16c.77 8.39 3.669 14.77 8.696 19.15 5.027 4.42 11.777 6.63 20.25 6.63 8.554 0 15.324-2.37 20.311-7.11 4.986-4.75 7.479-10.63 7.479-17.64 0-3.57-.729-7.07-2.189-10.52-1.459-3.45-3.892-7.07-7.297-10.88-3.365-3.82-8.98-9.05-16.845-15.69-6.567-5.52-10.783-9.27-12.648-11.25-1.865-1.95-3.406-3.92-4.622-5.9h43.723zm-85.621-153.52H42.585v69.75c-2.636-2.52-6.102-5.03-10.4-7.54-4.256-2.52-8.087-4.4-11.492-5.66v10.58c6.121 2.88 11.473 6.37 16.054 10.46 4.58 4.1 7.824 8.07 9.73 11.92h7.053v-89.51zm29.736 20.61l10.52.97c.892-4.94 2.595-8.53 5.108-10.76 2.514-2.23 5.737-3.34 9.669-3.34 3.365 0 6.304.77 8.818 2.31 2.554 1.54 4.642 3.59 6.263 6.14 1.622 2.59 2.98 6.08 4.075 10.46a55.008 55.008 0 011.642 13.38c0 .48-.021 1.21-.061 2.19-2.189-3.49-5.189-6.33-9-8.52-3.771-2.15-7.865-3.22-12.284-3.22-7.378 0-13.622 2.68-18.73 8.03-5.108 5.35-7.662 12.4-7.662 21.16 0 9.04 2.655 16.32 7.966 21.83 5.352 5.51 12.041 8.27 20.068 8.27 5.797 0 11.088-1.56 15.871-4.68 4.825-3.12 8.473-7.58 10.946-13.38 2.514-5.76 3.771-14.11 3.771-25.05 0-11.4-1.237-20.48-3.71-27.25-2.473-6.73-6.162-11.86-11.067-15.38-4.865-3.53-10.581-5.29-17.149-5.29-6.973 0-12.669 1.92-17.088 5.77-4.419 3.9-7.074 9.35-7.966 16.36zm44.818 39.35c0 6.28-1.683 11.27-5.048 14.96-3.324 3.69-7.338 5.53-12.04 5.53-4.865 0-9.102-1.99-12.71-5.96-3.608-3.97-5.412-9.12-5.412-15.45 0-5.67 1.703-10.29 5.108-13.86 3.446-3.53 7.683-5.29 12.71-5.29 5.067 0 9.223 1.76 12.466 5.29 3.284 3.57 4.926 8.49 4.926 14.78zM69.829-3753.9v-10.52H10.903c-.081 2.63.345 5.17 1.277 7.6 1.5 4.01 3.892 7.96 7.176 11.86 3.324 3.89 8.108 8.39 14.351 13.5 9.69 7.94 16.237 14.23 19.642 18.85 3.405 4.66 5.108 9.06 5.108 13.19 0 4.34-1.56 7.99-4.682 10.95-3.081 3-7.115 4.5-12.102 4.5-5.27 0-9.486-1.58-12.648-4.74-3.162-3.17-4.764-7.54-4.804-13.14l-11.25 1.16c.77 8.39 3.669 14.77 8.696 19.15 5.027 4.42 11.777 6.63 20.25 6.63 8.554 0 15.324-2.37 20.31-7.11 4.987-4.75 7.48-10.63 7.48-17.64 0-3.57-.73-7.07-2.19-10.52-1.459-3.45-3.89-7.07-7.296-10.88-3.365-3.82-8.98-9.05-16.845-15.69-6.567-5.52-10.784-9.27-12.649-11.25-1.864-1.95-3.405-3.92-4.621-5.9h43.723zm69.324 0v-10.52H80.227c-.08 2.63.345 5.17 1.277 7.6 1.5 4.01 3.892 7.96 7.176 11.86 3.324 3.89 8.108 8.39 14.351 13.5 9.69 7.94 16.237 14.23 19.642 18.85 3.406 4.66 5.108 9.06 5.108 13.19 0 4.34-1.56 7.99-4.682 10.95-3.081 3-7.115 4.5-12.101 4.5-5.271 0-9.487-1.58-12.649-4.74-3.162-3.17-4.764-7.54-4.804-13.14l-11.25 1.16c.77 8.39 3.669 14.77 8.696 19.15 5.027 4.42 11.777 6.63 20.25 6.63 8.554 0 15.324-2.37 20.311-7.11 4.986-4.75 7.479-10.63 7.479-17.64 0-3.57-.729-7.07-2.189-10.52-1.459-3.45-3.892-7.07-7.297-10.88-3.365-3.82-8.98-9.05-16.845-15.69-6.567-5.52-10.783-9.27-12.648-11.25-1.865-1.95-3.406-3.92-4.622-5.9h43.723zm-125.21-132.91l10.52.97c.893-4.94 2.595-8.53 5.109-10.76 2.514-2.23 5.737-3.34 9.669-3.34 3.365 0 6.304.77 8.818 2.31 2.553 1.54 4.641 3.59 6.263 6.14 1.622 2.59 2.98 6.08 4.074 10.46a54.978 54.978 0 011.642 13.38c0 .48-.02 1.21-.06 2.19-2.19-3.49-5.19-6.33-9-8.52-3.77-2.15-7.866-3.22-12.284-3.22-7.379 0-13.622 2.68-18.73 8.03-5.108 5.35-7.662 12.4-7.662 21.16 0 9.04 2.655 16.32 7.966 21.83 5.351 5.51 12.04 8.27 20.068 8.27 5.797 0 11.087-1.56 15.871-4.68 4.825-3.12 8.473-7.58 10.946-13.38 2.514-5.76 3.77-14.11 3.77-25.05 0-11.4-1.236-20.48-3.71-27.25-2.472-6.73-6.161-11.86-11.067-15.38-4.864-3.53-10.58-5.29-17.148-5.29-6.973 0-12.67 1.92-17.088 5.77-4.42 3.9-7.075 9.35-7.966 16.36zm44.818 39.35c0 6.28-1.682 11.27-5.047 14.96-3.324 3.69-7.338 5.53-12.04 5.53-4.865 0-9.102-1.99-12.71-5.96-3.608-3.97-5.412-9.12-5.412-15.45 0-5.67 1.702-10.29 5.108-13.86 3.446-3.53 7.682-5.29 12.71-5.29 5.067 0 9.222 1.76 12.466 5.29 3.283 3.57 4.925 8.49 4.925 14.78zm80.392-49.44v-10.52H80.227c-.08 2.63.345 5.17 1.277 7.6 1.5 4.01 3.892 7.96 7.176 11.86 3.324 3.89 8.108 8.39 14.351 13.5 9.69 7.94 16.237 14.23 19.642 18.85 3.406 4.66 5.108 9.06 5.108 13.19 0 4.34-1.56 7.99-4.682 10.95-3.081 3-7.115 4.5-12.101 4.5-5.271 0-9.487-1.58-12.649-4.74-3.162-3.17-4.764-7.54-4.804-13.14l-11.25 1.16c.77 8.39 3.669 14.77 8.696 19.15 5.027 4.42 11.777 6.63 20.25 6.63 8.554 0 15.324-2.37 20.311-7.11 4.986-4.75 7.479-10.63 7.479-17.64 0-3.57-.729-7.07-2.189-10.52-1.459-3.45-3.892-7.07-7.297-10.88-3.365-3.82-8.98-9.05-16.845-15.69-6.567-5.52-10.783-9.27-12.648-11.25-1.865-1.95-3.406-3.92-4.622-5.9h43.723zm-126.79-129.99l10.945 1.46c1.257-6.2 3.386-10.68 6.386-13.44 3.04-2.72 6.73-4.07 11.067-4.07 5.149 0 9.487 1.78 13.014 5.35 3.567 3.57 5.351 7.98 5.351 13.25 0 5.03-1.642 9.17-4.926 12.41-3.283 3.28-7.46 4.93-12.527 4.93-2.067 0-4.642-.41-7.723-1.22l1.217 9.61c.73-.08 1.317-.12 1.763-.12 4.662 0 8.858 1.21 12.588 3.64 3.73 2.44 5.594 6.19 5.594 11.25 0 4.02-1.358 7.34-4.074 9.98-2.716 2.63-6.223 3.95-10.52 3.95-4.257 0-7.804-1.34-10.642-4.01-2.838-2.68-4.662-6.69-5.473-12.04l-10.946 1.94c1.338 7.34 4.378 13.02 9.122 17.03 4.743 4.05 10.642 6.08 17.696 6.08 4.865 0 9.344-1.05 13.439-3.16 4.095-2.07 7.216-4.91 9.365-8.52 2.189-3.6 3.283-7.43 3.283-11.49 0-3.85-1.033-7.36-3.1-10.52-2.068-3.16-5.13-5.67-9.183-7.54 5.27-1.22 9.365-3.75 12.283-7.6 2.92-3.81 4.379-8.6 4.379-14.35 0-7.79-2.838-14.39-8.514-19.83-5.675-5.39-12.85-8.08-21.527-8.08-7.824 0-14.33 2.33-19.52 6.99-5.148 4.66-8.088 10.7-8.817 18.12zm70.905-2.92l10.52.97c.892-4.94 2.595-8.53 5.108-10.76 2.514-2.23 5.737-3.34 9.669-3.34 3.365 0 6.304.77 8.818 2.31 2.554 1.54 4.642 3.59 6.263 6.14 1.622 2.59 2.98 6.08 4.075 10.46a55.008 55.008 0 011.642 13.38c0 .48-.021 1.21-.061 2.19-2.189-3.49-5.189-6.33-9-8.52-3.771-2.15-7.865-3.22-12.284-3.22-7.378 0-13.622 2.68-18.73 8.03-5.108 5.35-7.662 12.4-7.662 21.16 0 9.04 2.655 16.32 7.966 21.83 5.352 5.51 12.041 8.27 20.068 8.27 5.797 0 11.088-1.56 15.871-4.68 4.825-3.12 8.473-7.58 10.946-13.38 2.514-5.76 3.771-14.11 3.771-25.05 0-11.4-1.237-20.48-3.71-27.25-2.473-6.73-6.162-11.86-11.067-15.38-4.865-3.53-10.581-5.29-17.149-5.29-6.973 0-12.669 1.92-17.088 5.77-4.419 3.9-7.074 9.35-7.966 16.36zm44.818 39.35c0 6.28-1.683 11.27-5.048 14.96-3.324 3.69-7.338 5.53-12.04 5.53-4.865 0-9.102-1.99-12.71-5.96-3.608-3.97-5.412-9.12-5.412-15.45 0-5.67 1.703-10.29 5.108-13.86 3.446-3.53 7.683-5.29 12.71-5.29 5.067 0 9.223 1.76 12.466 5.29 3.284 3.57 4.926 8.49 4.926 14.78zM69.829-4182.9v-10.52H10.903c-.081 2.63.345 5.17 1.277 7.6 1.5 4.01 3.892 7.96 7.176 11.86 3.324 3.89 8.108 8.39 14.351 13.5 9.69 7.94 16.237 14.23 19.642 18.85 3.405 4.66 5.108 9.06 5.108 13.19 0 4.34-1.56 7.99-4.682 10.95-3.081 3-7.115 4.5-12.102 4.5-5.27 0-9.486-1.58-12.648-4.74-3.162-3.17-4.764-7.54-4.804-13.14l-11.25 1.16c.77 8.39 3.669 14.77 8.696 19.15 5.027 4.42 11.777 6.63 20.25 6.63 8.554 0 15.324-2.37 20.31-7.11 4.987-4.75 7.48-10.63 7.48-17.64 0-3.57-.73-7.07-2.19-10.52-1.459-3.45-3.89-7.07-7.296-10.88-3.365-3.82-8.98-9.05-16.845-15.69-6.567-5.52-10.784-9.27-12.649-11.25-1.864-1.95-3.405-3.92-4.621-5.9h43.723zm46.885-10.52v21.34H78.038v10.04l40.683 57.77h8.939v-57.77h12.04v-10.04h-12.04v-21.34h-10.946zm0 31.38v40.19l-27.912-40.19h27.912zm-102.77-153.77l10.52.97c.892-4.94 2.595-8.53 5.108-10.76 2.514-2.23 5.737-3.34 9.669-3.34 3.365 0 6.304.77 8.818 2.31 2.553 1.54 4.641 3.59 6.263 6.14 1.622 2.59 2.98 6.08 4.074 10.46a54.978 54.978 0 011.642 13.38c0 .48-.02 1.21-.06 2.19-2.19-3.49-5.19-6.33-9-8.52-3.77-2.15-7.866-3.22-12.284-3.22-7.379 0-13.622 2.68-18.73 8.03-5.108 5.35-7.662 12.4-7.662 21.16 0 9.04 2.655 16.32 7.966 21.83 5.351 5.51 12.04 8.27 20.068 8.27 5.797 0 11.087-1.56 15.871-4.68 4.825-3.12 8.473-7.58 10.946-13.38 2.514-5.76 3.77-14.11 3.77-25.05 0-11.4-1.236-20.48-3.71-27.25-2.472-6.73-6.161-11.86-11.067-15.38-4.864-3.53-10.58-5.29-17.148-5.29-6.973 0-12.67 1.92-17.088 5.77-4.42 3.9-7.075 9.35-7.966 16.36zm44.817 39.35c0 6.28-1.682 11.27-5.047 14.96-3.324 3.69-7.338 5.53-12.04 5.53-4.865 0-9.102-1.99-12.71-5.96-3.608-3.97-5.412-9.12-5.412-15.45 0-5.67 1.702-10.29 5.108-13.86 3.446-3.53 7.682-5.29 12.71-5.29 5.067 0 9.222 1.76 12.466 5.29 3.283 3.57 4.925 8.49 4.925 14.78zm80.392-49.44v-10.52H80.227c-.08 2.63.345 5.17 1.277 7.6 1.5 4.01 3.892 7.96 7.176 11.86 3.324 3.89 8.108 8.39 14.351 13.5 9.69 7.94 16.237 14.23 19.642 18.85 3.406 4.66 5.108 9.06 5.108 13.19 0 4.34-1.56 7.99-4.682 10.95-3.081 3-7.115 4.5-12.101 4.5-5.271 0-9.487-1.58-12.649-4.74-3.162-3.17-4.764-7.54-4.804-13.14l-11.25 1.16c.77 8.39 3.669 14.77 8.696 19.15 5.027 4.42 11.777 6.63 20.25 6.63 8.554 0 15.324-2.37 20.311-7.11 4.986-4.75 7.479-10.63 7.479-17.64 0-3.57-.729-7.07-2.189-10.52-1.459-3.45-3.892-7.07-7.297-10.88-3.365-3.82-8.98-9.05-16.845-15.69-6.567-5.52-10.783-9.27-12.648-11.25-1.865-1.95-3.406-3.92-4.622-5.9h43.723zM12.302-4456.07l11.493.97c.851-5.59 2.817-9.81 5.899-12.65 3.121-2.79 6.871-4.19 11.25-4.19 5.27 0 9.73 1.98 13.378 5.96 3.649 3.97 5.473 9.24 5.473 15.81 0 6.24-1.764 11.17-5.29 14.77-3.487 3.61-8.068 5.42-13.744 5.42-3.527 0-6.71-.81-9.547-2.44-2.838-1.58-5.068-3.64-6.69-6.2l-10.276 1.34 8.635 45.79h44.33v-10.46H31.64l-4.805-23.96c5.352 3.73 10.967 5.6 16.845 5.6 7.784 0 14.352-2.7 19.703-8.09 5.351-5.39 8.027-12.33 8.027-20.8 0-8.07-2.352-15.04-7.054-20.92-5.716-7.22-13.52-10.82-23.412-10.82-8.108 0-14.737 2.27-19.886 6.81-5.108 4.54-8.027 10.56-8.756 18.06zm70.966-2.74l10.52.97c.892-4.94 2.595-8.53 5.108-10.76 2.514-2.23 5.737-3.34 9.669-3.34 3.365 0 6.304.77 8.818 2.31 2.554 1.54 4.642 3.59 6.263 6.14 1.622 2.59 2.98 6.08 4.075 10.46a55.008 55.008 0 011.642 13.38c0 .48-.021 1.21-.061 2.19-2.189-3.49-5.189-6.33-9-8.52-3.771-2.15-7.865-3.22-12.284-3.22-7.378 0-13.622 2.68-18.73 8.03-5.108 5.35-7.662 12.4-7.662 21.16 0 9.04 2.655 16.32 7.966 21.83 5.352 5.51 12.041 8.27 20.068 8.27 5.797 0 11.088-1.56 15.871-4.68 4.825-3.12 8.473-7.58 10.946-13.38 2.514-5.76 3.771-14.11 3.771-25.05 0-11.4-1.237-20.48-3.71-27.25-2.473-6.73-6.162-11.86-11.067-15.38-4.865-3.53-10.581-5.29-17.149-5.29-6.973 0-12.669 1.92-17.088 5.77-4.419 3.9-7.074 9.35-7.966 16.36zm44.818 39.35c0 6.28-1.683 11.27-5.048 14.96-3.324 3.69-7.338 5.53-12.04 5.53-4.865 0-9.102-1.99-12.71-5.96-3.608-3.97-5.412-9.12-5.412-15.45 0-5.67 1.703-10.29 5.108-13.86 3.446-3.53 7.683-5.29 12.71-5.29 5.067 0 9.223 1.76 12.466 5.29 3.284 3.57 4.926 8.49 4.926 14.78zM69.829-4611.9v-10.52H10.903c-.081 2.63.345 5.17 1.277 7.6 1.5 4.01 3.892 7.96 7.176 11.86 3.324 3.89 8.108 8.39 14.351 13.5 9.69 7.94 16.237 14.23 19.642 18.85 3.405 4.66 5.108 9.06 5.108 13.19 0 4.34-1.56 7.99-4.682 10.95-3.081 3-7.115 4.5-12.102 4.5-5.27 0-9.486-1.58-12.648-4.74-3.162-3.17-4.764-7.54-4.804-13.14l-11.25 1.16c.77 8.39 3.669 14.77 8.696 19.15 5.027 4.42 11.777 6.63 20.25 6.63 8.554 0 15.324-2.37 20.31-7.11 4.987-4.75 7.48-10.63 7.48-17.64 0-3.57-.73-7.07-2.19-10.52-1.459-3.45-3.89-7.07-7.296-10.88-3.365-3.82-8.98-9.05-16.845-15.69-6.567-5.52-10.784-9.27-12.649-11.25-1.864-1.95-3.405-3.92-4.621-5.9h43.723zm68.594 56.79l-10.885-.85c-.973 4.3-2.351 7.42-4.135 9.37-2.959 3.12-6.608 4.68-10.946 4.68-3.486 0-6.547-.97-9.182-2.92-3.446-2.51-6.163-6.18-8.149-11.01-1.986-4.82-3.02-11.69-3.101-20.61 2.635 4.01 5.858 6.99 9.669 8.94 3.81 1.95 7.804 2.92 11.979 2.92 7.298 0 13.5-2.7 18.608-8.09 5.149-5.35 7.723-12.28 7.723-20.8 0-5.59-1.216-10.8-3.648-15.63-2.392-4.78-5.696-8.45-9.912-11-4.217-2.56-9-3.83-14.352-3.83-9.121 0-16.56 3.34-22.317 10.03-5.757 6.73-8.635 17.8-8.635 33.2 0 17.23 3.182 29.76 9.547 37.58 5.554 6.82 13.034 10.22 22.439 10.22 7.014 0 12.75-1.97 17.21-5.9 4.5-3.93 7.195-9.36 8.087-16.3zm-44.696-38.43c0-3.77.79-7.38 2.372-10.82 1.622-3.45 3.872-6.08 6.75-7.91 2.878-1.78 5.899-2.67 9.061-2.67 4.621 0 8.594 1.86 11.919 5.59 3.324 3.73 4.986 8.8 4.986 15.2 0 6.17-1.642 11.01-4.925 14.54-3.284 3.57-7.419 5.35-12.406 5.35-4.946 0-9.142-1.78-12.588-5.35-3.446-3.53-5.169-8.17-5.169-13.93zm-79.783-151.27l10.52.97c.892-4.94 2.595-8.53 5.108-10.76 2.514-2.23 5.737-3.34 9.669-3.34 3.365 0 6.304.77 8.818 2.31 2.553 1.54 4.641 3.59 6.263 6.14 1.622 2.59 2.98 6.08 4.074 10.46a54.978 54.978 0 011.642 13.38c0 .48-.02 1.21-.06 2.19-2.19-3.49-5.19-6.33-9-8.52-3.77-2.15-7.866-3.22-12.284-3.22-7.379 0-13.622 2.68-18.73 8.03-5.108 5.35-7.662 12.4-7.662 21.16 0 9.04 2.655 16.32 7.966 21.83 5.351 5.51 12.04 8.27 20.068 8.27 5.797 0 11.087-1.56 15.871-4.68 4.825-3.12 8.473-7.58 10.946-13.38 2.514-5.76 3.77-14.11 3.77-25.05 0-11.4-1.236-20.48-3.71-27.25-2.472-6.73-6.161-11.86-11.067-15.38-4.864-3.53-10.58-5.29-17.148-5.29-6.973 0-12.67 1.92-17.088 5.77-4.42 3.9-7.075 9.35-7.966 16.36zm44.817 39.35c0 6.28-1.682 11.27-5.047 14.96-3.324 3.69-7.338 5.53-12.04 5.53-4.865 0-9.102-1.99-12.71-5.96-3.608-3.97-5.412-9.12-5.412-15.45 0-5.67 1.702-10.29 5.108-13.86 3.446-3.53 7.682-5.29 12.71-5.29 5.067 0 9.222 1.76 12.466 5.29 3.283 3.57 4.925 8.49 4.925 14.78zm80.392-49.44v-10.52H80.227c-.08 2.63.345 5.17 1.277 7.6 1.5 4.01 3.892 7.96 7.176 11.86 3.324 3.89 8.108 8.39 14.351 13.5 9.69 7.94 16.237 14.23 19.642 18.85 3.406 4.66 5.108 9.06 5.108 13.19 0 4.34-1.56 7.99-4.682 10.95-3.081 3-7.115 4.5-12.101 4.5-5.271 0-9.487-1.58-12.649-4.74-3.162-3.17-4.764-7.54-4.804-13.14l-11.25 1.16c.77 8.39 3.669 14.77 8.696 19.15 5.027 4.42 11.777 6.63 20.25 6.63 8.554 0 15.324-2.37 20.311-7.11 4.986-4.75 7.479-10.63 7.479-17.64 0-3.57-.729-7.07-2.189-10.52-1.459-3.45-3.892-7.07-7.297-10.88-3.365-3.82-8.98-9.05-16.845-15.69-6.567-5.52-10.783-9.27-12.648-11.25-1.865-1.95-3.406-3.92-4.622-5.9h43.723zm-126.121-76.05v10.52H70.74v-8.51c-5.676-6.04-11.31-14.07-16.905-24.08-5.554-10.02-9.852-20.32-12.892-30.9-2.19-7.46-3.588-15.62-4.196-24.5h-11.25c.121 7.01 1.5 15.48 4.135 25.42 2.635 9.93 6.405 19.5 11.31 28.7 4.947 9.24 10.197 17.03 15.75 23.35H13.033zm70.236-56.86l10.52.97c.892-4.94 2.595-8.53 5.108-10.76 2.514-2.23 5.737-3.34 9.669-3.34 3.365 0 6.304.77 8.818 2.31 2.554 1.54 4.642 3.59 6.263 6.14 1.622 2.59 2.98 6.08 4.075 10.46a55.008 55.008 0 011.642 13.38c0 .48-.021 1.21-.061 2.19-2.189-3.49-5.189-6.33-9-8.52-3.771-2.15-7.865-3.22-12.284-3.22-7.378 0-13.622 2.68-18.73 8.03-5.108 5.35-7.662 12.4-7.662 21.16 0 9.04 2.655 16.32 7.966 21.83 5.352 5.51 12.041 8.27 20.068 8.27 5.797 0 11.088-1.56 15.871-4.68 4.825-3.12 8.473-7.58 10.946-13.38 2.514-5.76 3.771-14.11 3.771-25.05 0-11.4-1.237-20.48-3.71-27.25-2.473-6.73-6.162-11.86-11.067-15.38-4.865-3.53-10.581-5.29-17.149-5.29-6.973 0-12.669 1.92-17.088 5.77-4.419 3.9-7.074 9.35-7.966 16.36zm44.818 39.35c0 6.28-1.683 11.27-5.048 14.96-3.324 3.69-7.338 5.53-12.04 5.53-4.865 0-9.102-1.99-12.71-5.96-3.608-3.97-5.412-9.12-5.412-15.45 0-5.67 1.703-10.29 5.108-13.86 3.446-3.53 7.683-5.29 12.71-5.29 5.067 0 9.223 1.76 12.466 5.29 3.284 3.57 4.926 8.49 4.926 14.78zM69.829-5040.9v-10.52H10.903c-.081 2.63.345 5.17 1.277 7.6 1.5 4.01 3.892 7.96 7.176 11.86 3.324 3.89 8.108 8.39 14.351 13.5 9.69 7.94 16.237 14.23 19.642 18.85 3.405 4.66 5.108 9.06 5.108 13.19 0 4.34-1.56 7.99-4.682 10.95-3.081 3-7.115 4.5-12.102 4.5-5.27 0-9.486-1.58-12.648-4.74-3.162-3.17-4.764-7.54-4.804-13.14l-11.25 1.16c.77 8.39 3.669 14.77 8.696 19.15 5.027 4.42 11.777 6.63 20.25 6.63 8.554 0 15.324-2.37 20.31-7.11 4.987-4.75 7.48-10.63 7.48-17.64 0-3.57-.73-7.07-2.19-10.52-1.459-3.45-3.89-7.07-7.296-10.88-3.365-3.82-8.98-9.05-16.845-15.69-6.567-5.52-10.784-9.27-12.649-11.25-1.864-1.95-3.405-3.92-4.621-5.9h43.723zm28.642 37.82c-4.54 1.66-7.906 4.04-10.095 7.12-2.19 3.08-3.284 6.77-3.284 11.06 0 6.49 2.331 11.94 6.993 16.36 4.663 4.42 10.865 6.63 18.609 6.63 7.783 0 14.047-2.27 18.79-6.81 4.743-4.5 7.115-9.99 7.115-16.48 0-4.14-1.095-7.74-3.284-10.82-2.148-3.04-5.432-5.4-9.851-7.06 5.473-1.78 9.628-4.66 12.466-8.63 2.878-3.98 4.318-8.72 4.318-14.23 0-7.62-2.696-14.03-8.088-19.22-5.392-5.19-12.487-7.78-21.284-7.78-8.797 0-15.892 2.59-21.284 7.78-5.392 5.23-8.088 11.74-8.088 19.52 0 5.8 1.46 10.64 4.379 14.53 2.96 3.94 7.155 6.61 12.588 8.03zm-2.19 18.55c0-4.22 1.359-7.66 4.075-10.34 2.716-2.67 6.243-4.01 10.581-4.01 4.216 0 7.662 1.32 10.338 3.95 2.716 2.68 4.074 5.94 4.074 9.79 0 4.01-1.399 7.38-4.196 10.1-2.757 2.75-6.203 4.13-10.338 4.13-4.175 0-7.642-1.34-10.398-4.01-2.757-2.68-4.136-5.88-4.136-9.61zm-3.527-41.17c0-3.12.73-6.14 2.19-9.06 1.5-2.92 3.71-5.19 6.628-6.81 2.919-1.58 6.061-2.37 9.426-2.37 5.229 0 9.547 1.68 12.952 5.04 3.406 3.37 5.108 7.65 5.108 12.84 0 5.27-1.763 9.62-5.29 13.07-3.487 3.45-7.865 5.17-13.135 5.17-5.149 0-9.426-1.7-12.831-5.11-3.365-3.41-5.048-7.66-5.048-12.77zm-78.81-148.11l10.52.97c.892-4.94 2.595-8.53 5.108-10.76 2.514-2.23 5.737-3.34 9.669-3.34 3.365 0 6.304.77 8.818 2.31 2.553 1.54 4.641 3.59 6.263 6.14 1.622 2.59 2.98 6.08 4.074 10.46a54.978 54.978 0 011.642 13.38c0 .48-.02 1.21-.06 2.19-2.19-3.49-5.19-6.33-9-8.52-3.77-2.15-7.866-3.22-12.284-3.22-7.379 0-13.622 2.68-18.73 8.03-5.108 5.35-7.662 12.4-7.662 21.16 0 9.04 2.655 16.32 7.966 21.83 5.351 5.51 12.04 8.27 20.068 8.27 5.797 0 11.087-1.56 15.871-4.68 4.825-3.12 8.473-7.58 10.946-13.38 2.514-5.76 3.77-14.11 3.77-25.05 0-11.4-1.236-20.48-3.71-27.25-2.472-6.73-6.161-11.86-11.067-15.38-4.864-3.53-10.58-5.29-17.148-5.29-6.973 0-12.67 1.92-17.088 5.77-4.42 3.9-7.075 9.35-7.966 16.36zm44.817 39.35c0 6.28-1.682 11.27-5.047 14.96-3.324 3.69-7.338 5.53-12.04 5.53-4.865 0-9.102-1.99-12.71-5.96-3.608-3.97-5.412-9.12-5.412-15.45 0-5.67 1.702-10.29 5.108-13.86 3.446-3.53 7.682-5.29 12.71-5.29 5.067 0 9.222 1.76 12.466 5.29 3.283 3.57 4.925 8.49 4.925 14.78zm80.392-49.44v-10.52H80.227c-.08 2.63.345 5.17 1.277 7.6 1.5 4.01 3.892 7.96 7.176 11.86 3.324 3.89 8.108 8.39 14.351 13.5 9.69 7.94 16.237 14.23 19.642 18.85 3.406 4.66 5.108 9.06 5.108 13.19 0 4.34-1.56 7.99-4.682 10.95-3.081 3-7.115 4.5-12.101 4.5-5.271 0-9.487-1.58-12.649-4.74-3.162-3.17-4.764-7.54-4.804-13.14l-11.25 1.16c.77 8.39 3.669 14.77 8.696 19.15 5.027 4.42 11.777 6.63 20.25 6.63 8.554 0 15.324-2.37 20.311-7.11 4.986-4.75 7.479-10.63 7.479-17.64 0-3.57-.729-7.07-2.189-10.52-1.459-3.45-3.892-7.07-7.297-10.88-3.365-3.82-8.98-9.05-16.845-15.69-6.567-5.52-10.783-9.27-12.648-11.25-1.865-1.95-3.406-3.92-4.622-5.9h43.723zm-125.21-132.91l10.52.97c.893-4.94 2.595-8.53 5.109-10.76 2.514-2.23 5.737-3.34 9.669-3.34 3.365 0 6.304.77 8.818 2.31 2.553 1.54 4.641 3.59 6.263 6.14 1.622 2.59 2.98 6.08 4.074 10.46a54.978 54.978 0 011.642 13.38c0 .48-.02 1.21-.06 2.19-2.19-3.49-5.19-6.33-9-8.52-3.77-2.15-7.866-3.22-12.284-3.22-7.379 0-13.622 2.68-18.73 8.03-5.108 5.35-7.662 12.4-7.662 21.16 0 9.04 2.655 16.32 7.966 21.83 5.351 5.51 12.04 8.27 20.068 8.27 5.797 0 11.087-1.56 15.871-4.68 4.825-3.12 8.473-7.58 10.946-13.38 2.514-5.76 3.77-14.11 3.77-25.05 0-11.4-1.236-20.48-3.71-27.25-2.472-6.73-6.161-11.86-11.067-15.38-4.864-3.53-10.58-5.29-17.148-5.29-6.973 0-12.67 1.92-17.088 5.77-4.42 3.9-7.075 9.35-7.966 16.36zm44.818 39.35c0 6.28-1.682 11.27-5.047 14.96-3.324 3.69-7.338 5.53-12.04 5.53-4.865 0-9.102-1.99-12.71-5.96-3.608-3.97-5.412-9.12-5.412-15.45 0-5.67 1.702-10.29 5.108-13.86 3.446-3.53 7.682-5.29 12.71-5.29 5.067 0 9.222 1.76 12.466 5.29 3.283 3.57 4.925 8.49 4.925 14.78zm24.507-39.35l10.52.97c.892-4.94 2.595-8.53 5.108-10.76 2.514-2.23 5.737-3.34 9.669-3.34 3.365 0 6.304.77 8.818 2.31 2.554 1.54 4.642 3.59 6.263 6.14 1.622 2.59 2.98 6.08 4.075 10.46a55.008 55.008 0 011.642 13.38c0 .48-.021 1.21-.061 2.19-2.189-3.49-5.189-6.33-9-8.52-3.771-2.15-7.865-3.22-12.284-3.22-7.378 0-13.622 2.68-18.73 8.03-5.108 5.35-7.662 12.4-7.662 21.16 0 9.04 2.655 16.32 7.966 21.83 5.352 5.51 12.041 8.27 20.068 8.27 5.797 0 11.088-1.56 15.871-4.68 4.825-3.12 8.473-7.58 10.946-13.38 2.514-5.76 3.771-14.11 3.771-25.05 0-11.4-1.237-20.48-3.71-27.25-2.473-6.73-6.162-11.86-11.067-15.38-4.865-3.53-10.581-5.29-17.149-5.29-6.973 0-12.669 1.92-17.088 5.77-4.419 3.9-7.074 9.35-7.966 16.36zm44.818 39.35c0 6.28-1.683 11.27-5.048 14.96-3.324 3.69-7.338 5.53-12.04 5.53-4.865 0-9.102-1.99-12.71-5.96-3.608-3.97-5.412-9.12-5.412-15.45 0-5.67 1.703-10.29 5.108-13.86 3.446-3.53 7.683-5.29 12.71-5.29 5.067 0 9.223 1.76 12.466 5.29 3.284 3.57 4.926 8.49 4.926 14.78z" fill="#005BB9"/><path d="M13.405 10.461h-.432v2.512H10.46v.432h2.728a.216.216 0 00.216-.216v-2.728z" fill="#005BB9"/><path d="M9.143 9.45l3.891 3.891.306-.306-3.891-3.89-.306.305zM3.027 10.461h-.432v2.728a.216.216 0 00.216.216h2.727v-.432H3.027V10.46z" fill="#005BB9"/><path d="M2.657 13.036l.306.306L6.854 9.45l-.306-.305-3.89 3.89zM13.19 2.595H10.46v.432h2.512v2.511h.432V2.811a.216.216 0 00-.216-.216z" fill="#005BB9"/><path d="M9.142 6.55l.306.305 3.891-3.891-.305-.306L9.142 6.55zM5.538 2.595H2.811a.216.216 0 00-.216.216v2.727h.432V3.027h2.511v-.432z" fill="#005BB9"/><path d="M2.656 2.965l3.892 3.89.306-.305L2.962 2.66l-.306.306z" fill="#005BB9"/><path stroke="#005BB9" d="M.5.5h15v15H.5z"/></g><defs><clipPath id="clip0"><path fill="#fff" transform="matrix(1 0 0 -1 0 16)" d="M0 0h16v16H0z"/></clipPath></defs></svg>