<svg width="16" height="16" fill="none" xmlns="http://www.w3.org/2000/svg"><g clip-path="url(#clip0)" fill="#005BB9"><path d="M12.545 16H2c-1.103 0-2-.897-2-2V3.455c0-1.103.897-2 2-2h6.909a.546.546 0 010 1.09H2a.91.91 0 00-.91.91V14a.91.91 0 00.91.91h10.545a.91.91 0 00.91-.91V7.091a.546.546 0 011.09 0v6.91c0 1.102-.897 1.999-2 1.999z"/><path d="M7.09 9.455a.546.546 0 01-.385-.932L15.07.16a.546.546 0 11.771.771L7.477 9.295a.544.544 0 01-.386.16z"/><path d="M10.791 0h4.67c.298 0 .539.241.539.539v4.67a.539.539 0 01-1.078 0V1.078h-4.13a.539.539 0 010-1.078z"/></g><defs><clipPath id="clip0"><path fill="#fff" d="M0 0h16v16H0z"/></clipPath></defs></svg>