<svg width="78" height="100" fill="none" xmlns="http://www.w3.org/2000/svg"><path fill="#fff" d="M0 0h78v100H0z"/><path d="M40.534 26.58h-4.438c-5.351 0-9.706 4.368-9.706 9.737v36.724c0 2.301 1.866 4.173 4.16 4.173h15.53c2.294 0 4.16-1.872 4.16-4.173V36.317c0-5.369-4.354-9.737-9.706-9.737zm-5.347 1.722a8.288 8.288 0 01-7.08 7.103c.42-3.721 3.37-6.682 7.08-7.103zm-7.133 21.814c0-1.521.331-2.966.924-4.267l2.188 3.122a2.49 2.49 0 00-.339 1.257v12.24c0 .382.086.743.238 1.066l-2.539 3.625a2.495 2.495 0 01-.472-1.463v-15.58zm5.27 14.857h9.983c.38 0 .74-.086 1.064-.24l2.366 3.378a2.48 2.48 0 01-.657.089H30.55a2.48 2.48 0 01-.657-.089l2.366-3.378c.323.154.684.24 1.064.24zm-.833-2.504V50.228c0-.46.373-.835.832-.835h9.984c.459 0 .832.374.832.835v12.24c0 .461-.373.835-.832.835h-9.984a.834.834 0 01-.832-.834zm11.7-14.583a2.478 2.478 0 00-.884-.162h-9.984c-.311 0-.609.058-.884.162l-2.549-3.639c1.855-2.672 4.94-4.424 8.425-4.424 3.485 0 6.57 1.752 8.425 4.425l-2.55 3.638zm4.385 25.155c0 1.38-1.12 2.504-2.496 2.504H30.55a2.503 2.503 0 01-2.496-2.504v-4.009a4.13 4.13 0 002.496.837h15.53c.936 0 1.8-.311 2.496-.837v4.009zm0-7.345c0 .546-.175 1.051-.472 1.463l-2.54-3.625c.153-.323.239-.684.239-1.065V50.228a2.49 2.49 0 00-.339-1.257l2.188-3.122c.593 1.3.924 2.746.924 4.267v15.58zm0-21.668c-2.08-3.514-5.9-5.875-10.261-5.875-4.36 0-8.181 2.361-10.261 5.875v-6.936c4.641-.499 8.318-4.187 8.815-8.843h3.225a9.958 9.958 0 002.737 5.86 9.898 9.898 0 005.745 2.94v6.979zm-6.792-15.68c3.53.555 6.303 3.421 6.732 7-3.48-.63-6.226-3.486-6.732-7z" fill="#B19A7C"/><path stroke="#B19A7C" stroke-width="2" d="M65 8v84H12V8z"/><path d="M59.51 54.354a.5.5 0 000-.708l-3.183-3.181a.5.5 0 10-.707.707L58.45 54l-2.829 2.828a.5.5 0 10.707.707l3.182-3.181zm-7.04.146h6.686v-1H52.47v1zM16.25 53.646a.5.5 0 000 .708l3.183 3.181a.5.5 0 10.707-.707L17.31 54l2.829-2.828a.5.5 0 10-.707-.707l-3.182 3.181zm7.04-.146h-6.686v1h6.686v-1z" fill="#B19A7C"/></svg>