<svg width="78" height="100" fill="none" xmlns="http://www.w3.org/2000/svg"><path fill="#fff" d="M0 0h78v100H0z"/><g clip-path="url(#clip0)" fill="#B19A7C" stroke="#B19A7C" stroke-width=".2"><path d="M56.645 31.244v0h.005a2.587 2.587 0 002.447-2.72h0a2.59 2.59 0 00-2.447-2.451h0H49.335c-1.407-4.989-6.57-7.916-11.568-6.545l.027.097-.027-.097a9.442 9.442 0 00-6.582 6.545h-7.166v0h-.005a2.59 2.59 0 00-2.446 2.719h0a2.586 2.586 0 002.446 2.452h7.171a9.436 9.436 0 002.122 3.802A17.745 17.745 0 0022.6 51.3v19.907a2.28 2.28 0 002.27 2.284h8.402v.564c0 3.87 3.13 7.005 6.99 7.002 3.859 0 6.986-3.135 6.986-7.002v-.564h8.41a2.278 2.278 0 002.269-2.276v0-19.915 0A17.746 17.746 0 0047.22 35.039a9.417 9.417 0 002.12-3.803l7.305.008zm.964-2.52h0c-.04.522-.45.934-.968.975h-6.997c.086-.7.086-1.407 0-2.107h6.997c.578.046 1.014.552.968 1.133zm-34.554-.145h0c.04-.52.45-.933.968-.974h6.857a8.652 8.652 0 000 2.107h-6.857a1.055 1.055 0 01-.968-1.133zm5.829 28.635v2.207c0 .423.34.764.764.764h3.623V71.96h-8.402a.746.746 0 01-.745-.744V51.301A16.22 16.22 0 0134.56 36.187a9.407 9.407 0 001.97 1.161l.03 9.09a11.406 11.406 0 00-7.676 10.776zM55.657 71.96h-8.41V60.185h3.625a.764.764 0 00.765-.764v-2.207h0a11.41 11.41 0 00-7.673-10.776l.033-9.09c.7-.305 1.36-.696 1.965-1.161a16.218 16.218 0 0110.439 15.114v19.907h0a.746.746 0 01-.738.752h0-.001 0-.001 0-.001 0-.001 0-.001 0zm-15.39-35.297v0zm.124-.072l.008-.028h-.133c-4.373-.005-7.911-3.565-7.903-7.947v0c.004-4.384 3.557-7.929 7.928-7.922 4.374.008 7.912 3.567 7.904 7.948V28.655c-.002 4.344-3.486 7.871-7.804 7.936zm5.33 37.465a5.466 5.466 0 01-5.463 5.472 5.465 5.465 0 01-5.46-5.472v-13.87H45.72v13.87zm-15.31-15.4v-1.442c0-5.457 4.411-9.88 9.855-9.88 5.44 0 9.854 4.423 9.854 9.88v1.441H30.41zm7.736-12.627l-.09-8.164a9.088 9.088 0 004.445 0v8.163a11.48 11.48 0 00-4.355 0z"/><path d="M40.258 33.83h0c2.851-.001 5.16-2.318 5.166-5.175v0a5.169 5.169 0 00-5.166-5.174 5.168 5.168 0 00-5.163 5.174 5.169 5.169 0 005.163 5.176zm-6.292-5.166c0-3.485 2.818-6.306 6.292-6.306 3.475.002 6.289 2.823 6.291 6.305 0 3.482-2.816 6.304-6.291 6.304-3.474 0-6.292-2.822-6.292-6.303z"/></g><defs><clipPath id="clip0"><path fill="#fff" transform="translate(19 19)" d="M0 0h40v62H0z"/></clipPath></defs></svg>