<svg width="78" height="100" fill="none" xmlns="http://www.w3.org/2000/svg"><path d="M78 0H0v100h78V0z" fill="#fff"/><path d="M62 97V4H24v93h38z" stroke="#B19A7C" stroke-width="2"/><path d="M45.145 33.3h-4.438C35.355 33.3 31 37.668 31 43.037v36.724a4.171 4.171 0 004.16 4.173h15.532a4.171 4.171 0 004.16-4.173V43.037c0-5.369-4.354-9.737-9.707-9.737zm-5.347 1.722a8.288 8.288 0 01-7.081 7.103c.42-3.721 3.371-6.682 7.08-7.103zm-7.134 21.814c0-1.521.331-2.966.925-4.267l2.187 3.122a2.49 2.49 0 00-.338 1.257v12.24c0 .382.085.743.238 1.066l-2.54 3.625a2.495 2.495 0 01-.472-1.463v-15.58zm5.27 14.857h9.985c.38 0 .74-.086 1.063-.24l2.367 3.378c-.21.058-.43.089-.657.089H35.16c-.227 0-.447-.031-.657-.089l2.367-3.378c.323.154.683.24 1.064.24zm-.832-2.504V56.948c0-.46.373-.835.832-.835h9.985c.458 0 .832.374.832.835v12.24c0 .461-.374.835-.832.835h-9.985a.834.834 0 01-.832-.834zm11.7-14.583a2.478 2.478 0 00-.883-.162h-9.985c-.311 0-.61.058-.884.162l-2.55-3.639c1.856-2.672 4.94-4.424 8.426-4.424 3.486 0 6.57 1.752 8.426 4.425l-2.55 3.638zm4.386 25.155c0 1.38-1.12 2.504-2.496 2.504H35.16a2.503 2.503 0 01-2.496-2.504v-4.009a4.13 4.13 0 002.496.837h15.532c.936 0 1.8-.311 2.496-.837v4.009zm0-7.345c0 .546-.175 1.051-.472 1.463l-2.54-3.625c.153-.323.239-.684.239-1.065V56.948a2.49 2.49 0 00-.339-1.257l2.188-3.122c.593 1.3.924 2.746.924 4.267v15.58zm0-21.668c-2.08-3.514-5.9-5.874-10.262-5.874-4.36 0-8.182 2.36-10.262 5.874v-6.936c4.642-.499 8.319-4.187 8.816-8.843h3.225a9.958 9.958 0 002.738 5.86 9.9 9.9 0 005.745 2.94v6.979zm-6.792-15.68c3.53.555 6.303 3.421 6.732 7-3.48-.63-6.226-3.486-6.732-7z" fill="#B19A7C"/></svg>