<svg width="78" height="100" fill="none" xmlns="http://www.w3.org/2000/svg"><path fill="#fff" d="M0 0h78v100H0z"/><path stroke="#B19A7C" stroke-width="2" d="M58 8v84H20V8z"/><path d="M41.12 32.58h-4.43c-5.343 0-9.69 4.36-9.69 9.72v36.658a4.164 4.164 0 004.153 4.166h15.504a4.164 4.164 0 004.153-4.166V42.3c0-5.36-4.347-9.72-9.69-9.72zm-5.338 1.72a8.273 8.273 0 01-7.068 7.09c.419-3.715 3.365-6.67 7.068-7.09zm-7.12 21.774c0-1.518.33-2.961.922-4.26l2.184 3.117a2.486 2.486 0 00-.338 1.255v12.219c0 .38.085.74.237 1.063l-2.534 3.619a2.49 2.49 0 01-.472-1.46V56.073zm5.26 14.83h9.966c.38 0 .74-.086 1.062-.239l2.363 3.372a2.476 2.476 0 01-.656.089H31.153c-.227 0-.447-.032-.656-.089l2.362-3.372c.323.153.683.24 1.063.24zm-.831-2.5V56.187c0-.46.372-.834.83-.834h9.967c.459 0 .83.374.83.834v12.219c0 .46-.372.833-.83.833h-9.966a.833.833 0 01-.831-.833zm11.68-14.556a2.474 2.474 0 00-.883-.162h-9.966c-.311 0-.608.058-.883.162l-2.545-3.632c1.852-2.668 4.932-4.417 8.41-4.417 3.48 0 6.56 1.75 8.411 4.417l-2.544 3.632zm4.378 25.11c0 1.378-1.118 2.5-2.492 2.5H31.153a2.498 2.498 0 01-2.492-2.5v-4.001a4.123 4.123 0 002.492.835h15.504c.934 0 1.797-.311 2.492-.835v4zm0-7.332c0 .545-.175 1.05-.472 1.46l-2.534-3.618c.151-.322.237-.683.237-1.063v-12.22c0-.456-.123-.885-.338-1.254l2.184-3.116c.592 1.298.923 2.74.923 4.26v15.551zm0-21.63c-2.076-3.507-5.89-5.863-10.244-5.863-4.353 0-8.168 2.356-10.244 5.864v-6.924c4.634-.498 8.304-4.179 8.8-8.827h3.22a9.94 9.94 0 002.732 5.85 9.882 9.882 0 005.736 2.935v6.966zm-6.78-15.652c3.523.554 6.291 3.416 6.72 6.99-3.474-.63-6.215-3.482-6.72-6.99z" fill="#B19A7C"/></svg>