<svg width="20" height="20" fill="none" xmlns="http://www.w3.org/2000/svg"><path fill-rule="evenodd" clip-rule="evenodd" d="M10.128 13.867l2.368-2.392a.626.626 0 00-.008-.883.608.608 0 00-.867 0l-1.312 1.333V7.908a.614.614 0 10-1.23 0v4.017l-1.311-1.333a.608.608 0 00-.866 0 .633.633 0 000 .883l2.36 2.392a.64.64 0 00.437.183.638.638 0 00.429-.183zm5.979-6.346c.194-.002.405-.004.597-.004.214 0 .38.166.38.375v6.7c0 2.066-1.668 3.741-3.714 3.741H6.81c-2.153 0-3.893-1.758-3.893-3.925V5.425c0-2.067 1.658-3.758 3.72-3.758h4.407c.206 0 .38.175.38.383v2.683a2.785 2.785 0 002.755 2.784c.349 0 .66.002.933.005l.56.003c.118 0 .27-.002.435-.004zm.23-1.216c-.678.003-1.477 0-2.052-.006-.913 0-1.664-.759-1.664-1.68V2.421c0-.36.431-.538.677-.279l2.43 2.552.893.938a.397.397 0 01-.284.672z" fill="#9EB0B7"/></svg>