<svg width="15" height="14" fill="none" xmlns="http://www.w3.org/2000/svg"><path fill-rule="evenodd" clip-rule="evenodd" d="M4.532 2.62c0-.766-.627-1.39-1.398-1.39-.771 0-1.399.624-1.399 1.39 0 .766.628 1.39 1.399 1.39s1.398-.624 1.398-1.39zm1.235 0a2.629 2.629 0 01-2.633 2.618A2.63 2.63 0 01.5 2.62 2.63 2.63 0 013.134 0 2.629 2.629 0 015.767 2.62zm8.733.002a.616.616 0 00-.618-.614H8.818a.616.616 0 00-.618.614c0 .339.277.614.618.614h5.064c.341 0 .618-.275.618-.614zm-4.032 8.761c0 .767.626 1.39 1.398 1.39.772 0 1.398-.623 1.398-1.39 0-.767-.626-1.39-1.398-1.39-.772 0-1.398.623-1.398 1.39zm-1.235-.003a2.628 2.628 0 012.633-2.618A2.628 2.628 0 0114.5 11.38 2.629 2.629 0 0111.866 14a2.629 2.629 0 01-2.633-2.619zm-8.115-.612h5.064c.341 0 .618.275.618.614a.616.616 0 01-.618.614H1.118a.616.616 0 01-.617-.614c0-.339.276-.614.617-.614z" fill="#fff"/></svg>