<svg width="40" height="40" viewBox="0 0 40 40" fill="none" xmlns="http://www.w3.org/2000/svg">
<path d="M20 39.82C16.08 39.82 12.248 38.6576 8.98859 36.4797C5.7292 34.3019 3.18883 31.2064 1.6887 27.5848C0.188568 23.9632 -0.203934 19.978 0.560825 16.1333C1.32558 12.2886 3.21326 8.75702 5.98513 5.98514C8.75701 3.21327 12.2886 1.3256 16.1333 0.560837C19.978 -0.203922 23.9631 0.18858 27.5848 1.68871C31.2064 3.18884 34.3019 5.72922 36.4797 8.9886C38.6576 12.248 39.82 16.08 39.82 20C39.8147 25.255 37.7248 30.2932 34.009 34.009C30.2932 37.7248 25.255 39.8147 20 39.82ZM20 6.25333C17.2812 6.25333 14.6234 7.05956 12.3627 8.57007C10.1021 10.0806 8.34018 12.2275 7.29972 14.7394C6.25927 17.2513 5.98704 20.0153 6.51746 22.6818C7.04788 25.3484 8.35712 27.7979 10.2796 29.7204C12.2021 31.6429 14.6516 32.9521 17.3181 33.4825C19.9847 34.0129 22.7487 33.7407 25.2606 32.7003C27.7725 31.6598 29.9194 29.8979 31.4299 27.6372C32.9404 25.3766 33.7467 22.7188 33.7467 20C33.7431 16.3552 32.2937 12.8608 29.7164 10.2835C27.1392 7.7063 23.6447 6.25686 20 6.25333Z" fill="#7C8499"/>
<path d="M19.066 18.386C18.478 18.974 17.74 19.268 16.852 19.268C15.964 19.268 15.22 18.974 14.62 18.386C14.02 17.786 13.72 17.06 13.72 16.208C13.72 15.356 14.02 14.636 14.62 14.048C15.22 13.448 15.964 13.148 16.852 13.148C17.74 13.148 18.478 13.442 19.066 14.03C19.666 14.606 19.966 15.332 19.966 16.208C19.966 17.06 19.666 17.786 19.066 18.386ZM15.214 24.02L23.35 15.02L24.538 15.704L16.402 24.722L15.214 24.02ZM16.15 16.91C16.33 17.102 16.558 17.198 16.834 17.198C17.11 17.198 17.338 17.102 17.518 16.91C17.71 16.706 17.806 16.472 17.806 16.208C17.806 15.92 17.716 15.686 17.536 15.506C17.356 15.314 17.122 15.218 16.834 15.218C16.558 15.218 16.33 15.314 16.15 15.506C15.97 15.698 15.88 15.932 15.88 16.208C15.88 16.484 15.97 16.718 16.15 16.91ZM25.492 25.334C24.904 25.922 24.166 26.216 23.278 26.216C22.39 26.216 21.646 25.922 21.046 25.334C20.446 24.734 20.146 24.008 20.146 23.156C20.146 22.304 20.446 21.584 21.046 20.996C21.646 20.396 22.39 20.096 23.278 20.096C24.166 20.096 24.904 20.396 25.492 20.996C26.092 21.584 26.392 22.304 26.392 23.156C26.392 24.008 26.092 24.734 25.492 25.334ZM22.576 23.858C22.756 24.05 22.984 24.146 23.26 24.146C23.536 24.146 23.764 24.05 23.944 23.858C24.136 23.654 24.232 23.42 24.232 23.156C24.232 22.868 24.142 22.634 23.962 22.454C23.782 22.262 23.548 22.166 23.26 22.166C22.984 22.166 22.756 22.262 22.576 22.454C22.396 22.646 22.306 22.88 22.306 23.156C22.306 23.432 22.396 23.666 22.576 23.858Z" fill="#B19A7C"/>
</svg>
