<svg width="40" height="40" fill="none" xmlns="http://www.w3.org/2000/svg"><rect x=".5" y=".5" width="39" height="39" rx="1.5" stroke="#DADADA"/><g clip-path="url(#clip0)" fill="#DADADA"><path d="M28.297 20.703H16.072a.703.703 0 110-1.406h12.225a.703.703 0 110 1.406zM28.297 25.977H16.072a.703.703 0 110-1.407h12.225a.703.703 0 110 1.407zM28.297 15.43H16.072a.703.703 0 110-1.407h12.225a.703.703 0 110 1.407zM11.95 24.324a.95.95 0 110 1.899.95.95 0 010-1.899zM11.95 19.05a.95.95 0 110 1.9.95.95 0 010-1.9zM11.95 13.777a.95.95 0 110 1.899.95.95 0 010-1.899z"/></g><defs><clipPath id="clip0"><path fill="#fff" transform="matrix(1 0 0 -1 11 29)" d="M0 0h18v18H0z"/></clipPath></defs></svg>