<svg width="40" height="40" fill="none" xmlns="http://www.w3.org/2000/svg"><rect x=".5" y=".5" width="39" height="39" rx="1.5" stroke="#DADADA"/><path d="M11 11.818c0-.452.366-.818.818-.818h6.546c.451 0 .818.366.818.818v6.546a.818.818 0 01-.818.818h-6.546a.818.818 0 01-.818-.818v-6.546zM20.819 11.818c0-.452.366-.818.818-.818h6.546c.451 0 .818.366.818.818v6.546a.818.818 0 01-.819.818h-6.545a.818.818 0 01-.818-.818v-6.546zM20.819 21.637c0-.452.366-.819.818-.819h6.546c.451 0 .818.367.818.819v6.545a.818.818 0 01-.819.818h-6.545a.818.818 0 01-.818-.818v-6.545zM11 21.637c0-.452.366-.819.818-.819h6.546c.451 0 .818.367.818.819v6.545a.818.818 0 01-.818.818h-6.546a.818.818 0 01-.818-.818v-6.545z" fill="#DADADA"/></svg>