<svg width="23" height="22" fill="none" xmlns="http://www.w3.org/2000/svg"><path d="M14.49 5.533a.4.4 0 00.38-.526L13.302.274a.4.4 0 00-.38-.274h-3.21a.4.4 0 00-.38.275l-1.56 4.733a.4.4 0 00.38.525h6.339zM4.26 0a.4.4 0 00-.323.163L.467 4.896a.4.4 0 00.322.637h5.065a.4.4 0 00.38-.275L7.793.525A.4.4 0 007.413 0H4.26zM21.858 5.533a.4.4 0 00.322-.637L18.71.164A.4.4 0 0018.387 0h-3.165a.4.4 0 00-.38.526l1.569 4.733a.4.4 0 00.38.274h5.067zM16.984 6.916a.2.2 0 00-.193.146l-3.066 11c-.06.212.218.35.352.174l8.322-11a.2.2 0 00-.16-.32h-5.255zM10.935 20.465c.108.393.666.392.772-.001l3.516-13.017a.4.4 0 00-.387-.505h-7.08a.4.4 0 00-.385.506l3.564 13.017zM.41 6.916a.2.2 0 00-.16.32l8.275 10.938c.133.176.41.039.352-.174L5.856 7.063a.2.2 0 00-.193-.147H.41z" fill="#B19A7C"/></svg>