<svg width="64" height="64" fill="none" xmlns="http://www.w3.org/2000/svg"><g opacity=".7" clip-path="url(#clip0)"><path d="M37.757 0c-14.47 0-26.242 11.773-26.242 26.243a26.124 26.124 0 006.01 16.697L0 60.465 3.535 64 21.06 46.474a26.121 26.121 0 0016.696 6.011C52.227 52.485 64 40.713 64 26.243S52.227 0 37.757 0zm0 47.487c-11.713 0-21.244-9.53-21.244-21.244s9.53-21.244 21.244-21.244 21.245 9.53 21.245 21.244c0 11.713-9.53 21.244-21.245 21.244zm11.93-29.639l-8.395 8.395 8.395 8.394-3.535 3.535-8.395-8.395-8.394 8.395-3.535-3.535 8.395-8.394-8.395-8.395 3.535-3.534 8.394 8.394 8.395-8.394 3.535 3.534z" fill="url(#paint0_linear)"/></g><defs><linearGradient id="paint0_linear" x1="32" y1="0" x2="32" y2="64" gradientUnits="userSpaceOnUse"><stop stop-color="#3A7B91"/><stop offset="1" stop-color="#133B63"/></linearGradient><clipPath id="clip0"><path fill="#fff" d="M0 0h64v64H0z"/></clipPath></defs></svg>