<svg width="77" height="113" fill="none" xmlns="http://www.w3.org/2000/svg"><path d="M23.72 38.507a4.068 4.068 0 00-4.92 2.409l-7.723 19.521a4.062 4.062 0 00.13 3.286l18.605 37.992a4.072 4.072 0 005.443 1.864l27.88-13.654a4.054 4.054 0 002.059-2.336 4.057 4.057 0 00-.195-3.107L46.393 46.491a4.068 4.068 0 00-2.516-2.117L23.72 38.507zm7.56 10.689a4.828 4.828 0 11-8.67 4.247 4.828 4.828 0 018.67-4.247z" fill="#CC2A21"/><path d="M23 3C1-7.5 12.334 25.834 24.5 48c.834 1.334 2.3 2.9 1.5-1.5" stroke="#9C9C9C" stroke-width=".3"/></svg>