<svg width="55" height="55" fill="none" xmlns="http://www.w3.org/2000/svg"><path d="M27.5 55A27.5 27.5 0 1155 27.5 27.527 27.527 0 0127.5 55zm0-46.573A19.074 19.074 0 1046.573 27.5 19.092 19.092 0 0027.5 8.427z" fill="#E6E5E6"/><circle cx="27.5" cy="27.5" r="19.643" fill="#fff"/><path d="M30.667 24.944a.4.4 0 00.38-.525l-1.569-4.733a.4.4 0 00-.38-.274h-3.21a.4.4 0 00-.38.275l-1.56 4.732a.4.4 0 00.38.525h6.339zM20.436 19.412a.4.4 0 00-.322.163l-3.47 4.733a.4.4 0 00.322.636h5.064a.4.4 0 00.38-.274l1.56-4.733a.4.4 0 00-.38-.525h-3.154zM38.034 24.944a.4.4 0 00.323-.636l-3.47-4.733a.4.4 0 00-.323-.163h-3.165a.4.4 0 00-.38.526l1.568 4.732a.4.4 0 00.38.274h5.067zM33.16 26.328a.2.2 0 00-.193.146l-3.066 10.999c-.06.212.218.35.352.174l8.322-10.999a.2.2 0 00-.16-.32H33.16zM27.111 39.877c.108.393.666.392.772-.002L31.4 26.859a.4.4 0 00-.387-.504h-7.08a.4.4 0 00-.385.506l3.564 13.017zM16.586 26.328a.2.2 0 00-.16.32l8.275 10.938c.133.176.411.039.352-.174l-3.02-10.938a.2.2 0 00-.193-.146h-5.254z" fill="#B19A7C"/></svg>