<svg width="32" height="32" fill="none" xmlns="http://www.w3.org/2000/svg"><g clip-path="url(#clip0)"><path d="M16 0C7.164 0 .001 7.164.001 16c0 8.835 7.163 16 16 16 8.835 0 16-7.164 16-16 0-8.837-7.164-16-16-16zm7.785 10.61l-3.46 3.275 2.194 8.837-1.31 1.308-4.187-6.83-.097-.096-4.308 4.08c-.024.024-.051.043-.076.066l-.138 3.144-4.797-4.796 3.144-.138c.023-.025.042-.052.067-.077l4.079-4.308-.035-.035-6.891-4.249 1.309-1.309 8.797 2.235 3.315-3.502a1.693 1.693 0 112.394 2.394z" fill="#005BB9"/></g><defs><clipPath id="clip0"><path fill="#fff" d="M0 0h32v32H0z"/></clipPath></defs></svg>