<svg width="32" height="32" fill="none" xmlns="http://www.w3.org/2000/svg"><circle cx="16" cy="16" r="16" fill="#005BB9"/><g clip-path="url(#clip0)" fill="#fff"><path d="M10.015 18.858H8.017S7 18.857 7 20.407c.048 1 .83 1.16.969 1.16h4.068s1.019.002 1.064-1.221c.002-.047.005-.001.006-.048.002-.18 0-1.114 0-1.114.002-.133.104-.284.24-.284h3.186c.047 0 .087.038.092.085l.752 1.702c.28.696.827 1.206 1.739.878.863-.31.907-.994.755-1.475L18 14.42c-.281-.672-.99-1.064-1.878-1.064h-4.388c-2.374 0-4.367 2.767-1.67 5.426.02.043-.002.077-.049.077zM21.053 15.228a2.947 2.947 0 100-5.895 2.947 2.947 0 000 5.895z"/></g><defs><clipPath id="clip0"><path fill="#fff" transform="translate(7 7)" d="M0 0h17v17H0z"/></clipPath></defs></svg>