<svg width="32" height="32" fill="none" xmlns="http://www.w3.org/2000/svg"><circle cx="16" cy="16" r="16" fill="#005BB9"/><path d="M7.605 21.559l.143.257h.294l15.884-.007h.302l.14-.267-.442-.233.442.233h0l.002-.003.003-.005.009-.018.031-.063a8.8 8.8 0 00.413-1.069c.223-.71.446-1.709.446-2.866 0-5.16-4.164-9.348-9.306-9.348-5.141 0-9.306 4.187-9.306 9.348l.945 4.041zm0 0l.437-.243m-.437.243l.437-.243m0 0l-.437.243m.437-.243l-.437.243m0 0h0m0 0h0m0 0v-.001m0 0h0m0 0l-.002-.002m.001.002v-.002m0 0L7.6 21.55m.003.006L7.6 21.55m0 0l-.01-.018m.01.018l-.01-.018m0 0a3.44 3.44 0 01-.032-.063m.033.063l-.033-.063m0 0a5.774 5.774 0 01-.11-.23m.11.23l-.11-.23m0 0a8.409 8.409 0 01-.322-.837m.322.837l-.322-.837m0 0a9.33 9.33 0 01-.466-2.884l.466 2.884zm.426 1.54l.052.104 16.805-.001a8.283 8.283 0 00.47-1.04c.31-.826.621-2.015.621-3.455 0-5.304-4.258-9.595-9.5-9.595s-9.5 4.291-9.5 9.595c0 1.345.31 2.535.624 3.391.156.427.312.768.428 1z" fill="005BB9" stroke="#fff"/><path d="M14.32 16.394l1.655 2.973 1.727-2.98.541-.933.363 1.015 1.063 2.977.154.433h2.258l-.032-.08-3.381-8.512-2.258 4.307-.45.857-.439-.862-2.231-4.372-3.334 8.578-.032.084h2.271l.155-.433 1.063-2.977.37-1.039.537.964z" fill="#fff" stroke="#fff"/></svg>