<svg width="32" height="32" fill="none" xmlns="http://www.w3.org/2000/svg"><circle cx="16" cy="16" r="16" fill="#005BB9"/><path d="M17.319 18.473l-2.149-3.009H16a.469.469 0 00.39-.728l-2.014-3.022h.687a.469.469 0 00.374-.75l-2.343-3.78a.485.485 0 00-.75 0L10 10.963a.469.469 0 00.375.75h.687l-2.014 3.022a.47.47 0 00.39.728h.83l-2.18 3.01a.468.468 0 00.38.74h8.47a.468.468 0 00.38-.74zM23.531 22.057H20.22v-1.906h-1.875v1.906h-4.688v-1.906h-1.875v1.906H8.47a.469.469 0 100 .938H23.53a.469.469 0 100-.938zM23.913 18.472l-2.18-3.009h.83a.469.469 0 00.39-.728l-2.015-3.021h.687a.469.469 0 00.375-.75l-2.344-3.782a.485.485 0 00-.75 0l-2.343 3.782a.468.468 0 00.375.75h.686l-1.06 1.59.606.91a1.404 1.404 0 01-.361 1.932l1.273 1.782c.27.379.322.855.167 1.285h5.282a.468.468 0 00.382-.74z" fill="#fff"/></svg>