<svg width="32" height="32" fill="none" xmlns="http://www.w3.org/2000/svg"><circle cx="16" cy="16" r="16" fill="#005BB9"/><path d="M8.779 9.202a.213.213 0 00-.214.213v2.635a.215.215 0 01-.43 0V9.415a.214.214 0 00-.213-.213h-.003a.213.213 0 00-.214.213v2.635a.215.215 0 01-.429 0V9.415a.214.214 0 00-.214-.213H7.06a.213.213 0 00-.214.213v2.635a.215.215 0 01-.43 0V9.415a.214.214 0 00-.213-.213.203.203 0 00-.203.202v2.841c0 .869.291 1.34.725 1.561.35.178.556.554.518.946l-.626 6.382a.879.879 0 001.524.674.876.876 0 00.223-.674l-.625-6.382a.956.956 0 01.518-.946c.434-.22.725-.692.725-1.56V9.403a.202.202 0 00-.203-.202zM25.424 15.291c.08 0 .146-.065.146-.146V9.459a.257.257 0 00-.257-.257.275.275 0 00-.264.199l-.891 3.107a3.16 3.16 0 00.435 2.663.28.28 0 00.23.12l-.573 5.842a.876.876 0 101.746 0l-.572-5.842zM16.5 9a6.5 6.5 0 100 13 6.5 6.5 0 000-13zm0 11.14a4.645 4.645 0 01-4.64-4.64 4.646 4.646 0 014.64-4.64 4.646 4.646 0 014.64 4.64 4.645 4.645 0 01-4.64 4.64z" fill="#fff"/><path d="M16.5 12c-1.93 0-3.5 1.57-3.5 3.5s1.57 3.5 3.5 3.5 3.5-1.57 3.5-3.5-1.57-3.5-3.5-3.5z" fill="#fff"/></svg>