<svg width="32" height="32" fill="none" xmlns="http://www.w3.org/2000/svg"><circle cx="16" cy="16" r="16" fill="#005BB9"/><path d="M16.909 18.29a2 2 0 01-1.637 0l-4.416-1.98a.5.5 0 00-.705.456v2.407a.5.5 0 00.311.463l4.873 1.989a2 2 0 001.512 0l4.872-1.989a.5.5 0 00.311-.463v-2.407a.5.5 0 00-.704-.456l-4.417 1.98z" fill="#fff"/><path d="M24.038 13.51a.5.5 0 000-.904l-7.096-3.339a2 2 0 00-1.702 0l-7.096 3.339a.5.5 0 000 .905l7.096 3.338a2 2 0 001.702 0l5.96-2.804v3.208a.523.523 0 001.046 0v-3.7l.09-.042z" fill="#fff"/></svg>