<svg width="32" height="32" fill="none" xmlns="http://www.w3.org/2000/svg"><circle cx="16" cy="16" r="16" fill="#005BB9"/><path d="M13.898 16.497a9.107 9.107 0 01-2.663 5.947A7.941 7.941 0 0015.533 24v-7.503h-1.635zM13.9 15.558h1.633V8a7.94 7.94 0 00-4.298 1.556 9.107 9.107 0 012.666 6.002zM18.106 16.497h-1.634V24a7.94 7.94 0 004.297-1.556 9.107 9.107 0 01-2.663-5.947zM18.103 15.558a9.106 9.106 0 012.666-6.002A7.94 7.94 0 0016.472 8v7.558h1.631zM10.513 21.838a8.168 8.168 0 002.444-5.341H8.004a7.955 7.955 0 002.509 5.341zM12.96 15.558a8.168 8.168 0 00-2.447-5.396A7.955 7.955 0 008 15.558h4.96zM21.491 10.162a8.167 8.167 0 00-2.447 5.396h4.96a8.001 8.001 0 00-2.513-5.396zM24 16.497h-4.953a8.168 8.168 0 002.444 5.341 8.001 8.001 0 002.51-5.341z" fill="#fff"/></svg>