<svg width="32" height="32" fill="none" xmlns="http://www.w3.org/2000/svg"><circle cx="16" cy="16" r="16" fill="#005BB9"/><g clip-path="url(#clip0)"><path d="M16 8c-3.722 0-6.737.421-6.737 3.368v8a2.948 2.948 0 002.948 2.948l-1.264 1.263V24h10.106v-.421l-1.264-1.263a2.945 2.945 0 002.948-2.948v-8C22.737 8.421 19.722 8 16 8zm-3.79 12.632a1.261 1.261 0 01-1.263-1.264c0-.698.565-1.263 1.264-1.263.698 0 1.263.564 1.263 1.263 0 .7-.565 1.264-1.263 1.264zm2.948-5.053h-4.21v-4.21h4.21v4.21zm4.632 5.053a1.261 1.261 0 01-1.264-1.264c0-.698.565-1.263 1.264-1.263.698 0 1.263.564 1.263 1.263 0 .7-.565 1.264-1.264 1.264zm1.263-5.053h-4.21v-4.21h4.21v4.21z" fill="#fff"/></g><defs><clipPath id="clip0"><path fill="#fff" transform="translate(8 8)" d="M0 0h16v16H0z"/></clipPath></defs></svg>