<svg width="52" height="52" viewBox="0 0 52 52" fill="none" xmlns="http://www.w3.org/2000/svg">
<circle cx="26" cy="26" r="26" fill="#3A393C"/>
<g clip-path="url(#clip0)">
<path d="M25.6465 14.1465L18.1465 21.6465C17.9512 21.8418 17.9512 22.1582 18.1465 22.3535C18.3418 22.5488 18.6582 22.5488 18.8535 22.3535L25.5 15.707L25.5 37.5C25.5 37.7764 25.7237 38 26 38C26.2764 38 26.5 37.7764 26.5 37.5L26.5 15.707L33.1465 22.3535C33.3418 22.5488 33.6582 22.5488 33.8535 22.3535C33.9512 22.2559 34 22.1279 34 22C34 21.872 33.9512 21.7441 33.8535 21.6464L26.3535 14.1464C26.1582 13.9512 25.8418 13.9512 25.6465 14.1465Z" fill="white"/>
</g>
<defs>
<clipPath id="clip0">
<rect width="24" height="24" fill="white" transform="translate(14 38) rotate(-90)"/>
</clipPath>
</defs>
</svg>
