<svg width="16" height="16" viewBox="0 0 16 16" fill="none" xmlns="http://www.w3.org/2000/svg">
<g clip-path="url(#clip0)">
<path d="M14.8461 0H1.15393C0.516602 0 0 0.516602 0 1.15393V14.8461C0 15.4834 0.516602 16 1.15393 16H14.8461C15.4834 16 16 15.4834 16 14.8461V1.15393C16 0.516602 15.4834 0 14.8461 0ZM11.6527 6.23755C11.6562 6.31628 11.658 6.39539 11.658 6.47485C11.658 8.90125 9.81104 11.6992 6.43347 11.6993C5.39648 11.6993 4.43152 11.3954 3.6189 10.8745C3.76257 10.8915 3.90881 10.8999 4.05688 10.8999C4.91724 10.8999 5.70898 10.6064 6.33752 10.1139C5.53369 10.099 4.85596 9.56812 4.62207 8.8385C4.73401 8.85999 4.84912 8.8717 4.96716 8.8717C5.13477 8.8717 5.29712 8.84912 5.45142 8.80701C4.61121 8.63879 3.97827 7.89624 3.97827 7.00708C3.97827 6.99878 3.97827 6.99133 3.97852 6.98364C4.22595 7.12122 4.50891 7.20398 4.81018 7.21326C4.31714 6.88428 3.99304 6.3219 3.99304 5.68481C3.99304 5.34839 4.08398 5.0332 4.2417 4.76184C5.14722 5.87292 6.50049 6.60364 8.02661 6.68042C7.99512 6.5459 7.97888 6.40576 7.97888 6.26172C7.97888 5.24805 8.80127 4.42566 9.81531 4.42566C10.3435 4.42566 10.8206 4.64893 11.1556 5.00586C11.574 4.92334 11.9668 4.77051 12.3217 4.56018C12.1843 4.98877 11.8933 5.34839 11.5142 5.57581C11.8856 5.53137 12.2396 5.43286 12.5686 5.28662C12.3229 5.65491 12.0112 5.97839 11.6527 6.23755Z" fill="#3A393C"/>
</g>
<defs>
<clipPath id="clip0">
<rect width="16" height="16" fill="white"/>
</clipPath>
</defs>
</svg>
