<svg width="16" height="16" viewBox="0 0 16 16" fill="none" xmlns="http://www.w3.org/2000/svg">
<path d="M15.1489 0H0.851064C0.380936 0 0 0.381106 0 0.851064V15.1489C0 15.6189 0.380936 16 0.851064 16H15.1489C15.6191 16 16 15.6189 16 15.1489V0.851064C16 0.381106 15.6191 0 15.1489 0ZM12.7437 9.01157C13.1797 9.43711 13.6409 9.83779 14.0325 10.3081C14.2058 10.5157 14.3692 10.7302 14.4936 10.9717C14.6708 11.3163 14.5108 11.6946 14.202 11.7149L12.2861 11.7144C11.7915 11.7551 11.3976 11.5559 11.0654 11.2177C10.8007 10.9479 10.5546 10.6599 10.2994 10.3813C10.1954 10.2667 10.0851 10.159 9.95472 10.0739C9.69362 9.90434 9.46672 9.95608 9.31677 10.2286C9.16426 10.506 9.12902 10.8138 9.11506 11.1231C9.09379 11.575 8.95762 11.6929 8.50434 11.7139C7.53583 11.7595 6.61651 11.6124 5.76255 11.1244C5.00868 10.6938 4.4257 10.0854 3.91779 9.39745C2.92783 8.05566 2.1697 6.58281 1.48885 5.06774C1.33549 4.72647 1.44766 4.54383 1.82366 4.53685C2.44936 4.52443 3.07489 4.52613 3.69974 4.53617C3.95438 4.54008 4.12272 4.68579 4.22026 4.92579C4.55813 5.75728 4.97277 6.54843 5.49191 7.28204C5.6303 7.47728 5.77157 7.67217 5.97243 7.81021C6.19438 7.96272 6.36357 7.91251 6.46826 7.66485C6.53515 7.50689 6.56408 7.33906 6.57838 7.17021C6.62808 6.59217 6.63404 6.01413 6.54826 5.4383C6.49464 5.07813 6.29174 4.84545 5.9326 4.77736C5.74979 4.74264 5.77651 4.67489 5.86536 4.57055C6.01957 4.38979 6.16494 4.27813 6.45362 4.27813L8.61889 4.27779C8.96034 4.34451 9.03625 4.4977 9.08272 4.84136L9.08477 7.24698C9.08119 7.38008 9.15132 7.7743 9.3903 7.86145C9.58145 7.9246 9.70825 7.77123 9.82264 7.6497C10.3414 7.09906 10.7111 6.44868 11.0426 5.77583C11.1884 5.47915 11.3149 5.17174 11.4374 4.86417C11.5282 4.6366 11.6701 4.5246 11.9268 4.52868L14.0112 4.53089C14.0725 4.53089 14.1353 4.53157 14.1961 4.54162C14.5471 4.60204 14.6432 4.75319 14.5348 5.096C14.3639 5.63438 14.0311 6.08306 13.7057 6.53277C13.358 7.01362 12.9867 7.47864 12.6415 7.96187C12.3253 8.40511 12.3508 8.62774 12.7437 9.01157Z" fill="#3A393C"/>
</svg>
