<svg width="225" height="60" fill="none" xmlns="http://www.w3.org/2000/svg"><g clip-path="url(#clip0)" fill="#fff"><path d="M11.378 47.949h-.773v2.894h-.862v-6.43h.862v2.829h.663l2.253-2.828h1.038l-2.452 3.115 2.651 3.314H13.72l-2.342-2.894zM15.531 50.844v-6.452h2.1c.33 0 .618.045.883.11.265.067.486.178.663.31.177.133.331.31.42.53.088.221.154.486.154.774 0 .31-.088.574-.265.795-.177.243-.398.42-.707.53.177.044.332.133.486.221.133.089.265.221.354.354.088.132.177.287.22.442.045.176.067.331.067.53 0 .31-.044.574-.155.795-.11.243-.243.42-.442.597-.176.154-.42.287-.684.353-.265.089-.553.11-.884.11h-2.21zm.84-3.69h1.304c.176 0 .353-.022.508-.066.154-.044.287-.11.397-.199a.722.722 0 00.243-.331.93.93 0 00.089-.442c0-.354-.11-.619-.31-.773-.198-.155-.53-.244-.95-.244h-1.259v2.055h-.022zm0 .685v2.32h1.392c.199 0 .375-.022.552-.088.177-.067.287-.133.398-.221a.785.785 0 00.243-.354 1.19 1.19 0 00.088-.486c0-.177-.022-.331-.066-.486-.044-.155-.133-.265-.22-.376-.111-.11-.222-.176-.398-.243a2.065 2.065 0 00-.553-.088l-1.436.022zM24.722 49.165h-2.695l-.619 1.679h-.883l2.452-6.452h.73l2.474 6.452h-.884l-.575-1.68zm-2.43-.685h2.187l-1.104-3.005-1.083 3.005zM27.926 48.325v2.519h-.861v-6.452h2.386c.375 0 .684.045.972.155.287.089.508.243.707.42.198.177.331.376.442.619.088.242.154.508.154.795 0 .31-.044.596-.154.817a1.524 1.524 0 01-.442.619c-.2.177-.42.287-.707.376a3.233 3.233 0 01-.972.132h-1.525zm0-.685h1.525c.243 0 .463-.022.64-.088a1.24 1.24 0 00.442-.265.924.924 0 00.243-.398c.044-.155.088-.31.088-.508a1.19 1.19 0 00-.088-.486 1.16 1.16 0 00-.243-.42c-.11-.11-.265-.22-.442-.287a1.847 1.847 0 00-.64-.11h-1.525v2.562zM37.25 45.1h-2.077v5.744h-.84V45.1h-2.055v-.685h4.971v.685zM41.425 49.165H38.73l-.619 1.679h-.883l2.452-6.452h.729l2.474 6.452H42l-.575-1.68zm-2.452-.685h2.187l-1.104-3.005-1.083 3.005zM48.716 44.415v6.451h-.861v-5.744h-2.298l-.067 2.32a13.525 13.525 0 01-.132 1.524c-.066.442-.177.795-.331 1.06a1.675 1.675 0 01-.597.641c-.243.133-.552.199-.906.199h-.22v-.707h.176a.88.88 0 00.53-.155c.133-.11.265-.265.354-.486.088-.22.154-.508.199-.84.044-.353.088-.773.088-1.259l.11-3.004h3.955z"/><path d="M59.21 59.526H0V.316h59.21v59.21zm-56.492-2.74H56.47V3.057H2.718v53.73z"/><path d="M31.505 40.924H9.81v-3.027l10.848-12.04c.994-1.105 1.834-2.078 2.497-2.94a19.65 19.65 0 001.569-2.341c.397-.707.662-1.37.817-1.989.155-.618.22-1.237.22-1.878 0-.817-.132-1.59-.397-2.32a5.86 5.86 0 00-1.104-1.877 5.242 5.242 0 00-1.79-1.26c-.707-.309-1.524-.464-2.452-.464-1.127 0-2.1.177-2.917.508-.817.332-1.502.796-2.054 1.392-.553.597-.95 1.304-1.216 2.121a8.909 8.909 0 00-.42 2.74H9.214c0-1.392.22-2.717.707-3.955a9.236 9.236 0 012.055-3.247c.905-.928 2.032-1.657 3.38-2.188 1.348-.53 2.916-.817 4.684-.817 1.568 0 2.96.22 4.197.64 1.238.42 2.276 1.017 3.138 1.812.861.773 1.502 1.723 1.966 2.806.464 1.083.685 2.298.685 3.623 0 .973-.177 1.945-.508 2.939a15.178 15.178 0 01-1.348 2.938 22.756 22.756 0 01-1.988 2.917c-.752.972-1.547 1.9-2.386 2.828l-8.882 9.632h16.614l-.022 3.447zM48.716 40.924h-4.22V12.887l-8.484 3.115V12.18l12.041-4.53h.663v33.274z"/></g><g clip-path="url(#clip1)" fill="#fff"><path d="M130.025 21.311v-2.298h9.356V16.86h-9.356V14.73h10.285v-2.57H130.405c-2.091 0-3.548 1.107-3.548 3.447v8.276h10.011c2.302 0 3.632-.335 3.865-2.57h-10.708zM119.972 27.81h-3.865c-2.661 0-5.027.67-5.027 4.222v3.26c0 3.553 2.345 4.242 5.027 4.242h3.865c2.682 0 5.047-.69 5.047-4.242v-3.26c0-3.553-2.471-4.221-5.047-4.221zm1.858 7.064c0 1.714-.739 1.902-1.858 1.902h-3.865c-1.12 0-1.838-.188-1.838-1.902v-2.403c0-1.714.718-1.881 1.838-1.881h3.865c1.035 0 1.858.167 1.858 1.88v2.404zM153.087 29.462l-6.082 6.227v-7.878h-3.147v11.723h2.007c1.246 0 1.858-.752 2.745-1.63l6.083-6.248v7.878h3.146V27.811h-2.006c-1.246 0-1.901.773-2.746 1.65zM183.204 27.81c-1.119 0-1.774.732-2.281 1.714l-5.216 10.01h3.548l1.035-2.006h7.56l1.056 2.006h3.527l-6.124-11.723h-3.105zm-1.69 7.294l2.514-4.828 2.534 4.807-5.048.02zM171.208 27.81l.021 4.703h-7.645l-.021-4.702h-3.126v11.723h3.147v-4.848h7.645l.021 4.848h3.147V27.811h-3.189zM110.426 38.99c-.465-.877-1.056-1.504-1.965-1.63h-.063l-4.984-9.55h-3.063c-1.098 0-1.774.711-2.28 1.693l-4.098 7.879c-.887.146-1.478.773-1.922 1.63l-.274.501v.042H110.7v-.042l-.274-.522zm-12.947-1.63l3.675-7.104 3.759 7.105h-7.434zM136.445 27.81h-3.062c-1.099 0-1.753.711-2.281 1.693l-5.238 10.031h3.569l4.731-9.278 4.942 9.278h3.464l-6.125-11.723zM152.538 12.158h-9.63v11.724h3.147v-3.01h6.483c3.316 0 4.055-1.128 4.055-4.409 0-3.072-1.119-4.305-4.055-4.305zm-.38 5.998h-6.103v-3.281h6.103c1.246 0 1.183.376 1.183 1.588 0 1.505.063 1.693-1.183 1.693zM181.979 12.158c-1.119 0-1.774.732-2.281 1.693l-5.238 10.03h3.527l1.035-2.005h7.561l1.056 2.006h3.527l-6.103-11.724h-3.084zm-1.69 7.273l2.493-4.828 2.534 4.807-5.027.02zM81.238 18.72v-1.609c0-1.65.317-2.173 1.627-2.173h8.89c-.337-2.425-1.963-2.78-4.35-2.78h-4.203c-2.956 0-5.174.543-5.174 4.347v2.988c0 4.2 2.471 4.389 5.217 4.389h3.822c1.479 0 2.64 0 3.696-.836.634-.543.887-1.233 1.014-1.923h-8.85c-1.456 0-1.689-.668-1.689-2.403zM122.21 17.989v-.126c1.563-.25 1.859-1.212 1.859-2.695 0-2.57-1.373-3.01-3.738-3.01h-9.927v11.724h10.011c2.513 0 3.865-.397 3.865-3.26 0-1.463-.296-2.508-2.07-2.633zm-8.638-3.26h6.357c.908 0 .993.313.993.982 0 .94-.275 1.128-1.373 1.128h-5.977v-2.11zm6.083 6.582h-6.083v-2.298h6.167c1.014 0 1.394.146 1.394 1.107-.021.962-.465 1.191-1.478 1.191zM169.962 12.158v4.702h-7.645v-4.702h-3.126v11.724h3.147v-4.848h7.645v4.848h3.168V12.158h-3.189zM196.531 12.158c-2.936 0-4.034 1.233-4.034 4.305 0 3.281.739 4.41 4.034 4.41h.169l-4.499 3.009h4.731l4.583-3.01h1.521v3.01h3.146V12.158h-9.651zm6.483 5.998h-6.103c-1.246 0-1.183-.188-1.183-1.693 0-1.212-.063-1.588 1.183-1.588h6.103v3.28zM97.521 21.311v-2.298h9.356V16.86h-9.356V14.73h10.286v-2.57h-9.906c-2.09 0-3.548 1.107-3.548 3.447v8.276h10.011c2.302 0 3.633-.335 3.865-2.57H97.521zM82.337 46.013c-.022.23-.085.46-.17.669a1.344 1.344 0 01-.38.522c-.169.146-.359.272-.59.355a2.393 2.393 0 01-.803.126c-.296 0-.57-.063-.824-.167a1.595 1.595 0 01-.634-.481 2.247 2.247 0 01-.401-.731 3.405 3.405 0 01-.148-.962v-.501c0-.356.042-.669.148-.962.106-.292.232-.543.401-.731.17-.209.402-.355.655-.48a2.28 2.28 0 01.866-.168c.296 0 .549.042.76.126.211.083.423.209.57.355.148.146.275.334.38.543.085.21.148.439.17.69h-.676a1.793 1.793 0 00-.127-.48c-.063-.147-.127-.272-.232-.356a1.056 1.056 0 00-.36-.23 1.29 1.29 0 00-.506-.084c-.233 0-.423.042-.592.126a1.16 1.16 0 00-.422.355 1.543 1.543 0 00-.253.564 2.68 2.68 0 00-.085.732v.522c0 .251.021.48.085.69.042.209.126.418.232.564.106.167.253.293.401.376.17.084.36.147.592.147.21 0 .4-.021.549-.084a.712.712 0 00.359-.23 1.04 1.04 0 00.232-.355c.063-.146.106-.293.127-.48h.676v.02zM88.081 45.24c0 .376-.042.71-.148 1.024-.105.292-.232.564-.422.773a1.664 1.664 0 01-.655.48 2.172 2.172 0 01-1.668 0 1.83 1.83 0 01-.655-.48c-.19-.21-.317-.46-.422-.773-.106-.293-.148-.648-.148-1.024v-.314c0-.376.042-.71.148-1.024.105-.292.232-.564.422-.773a1.83 1.83 0 01.655-.48 2.172 2.172 0 011.669 0c.253.104.464.271.654.48.169.209.317.46.422.773.106.293.148.648.148 1.024v.314zm-.676-.314c0-.292-.02-.564-.084-.794a1.672 1.672 0 00-.275-.585 1.192 1.192 0 00-.443-.355 1.298 1.298 0 00-.591-.126c-.212 0-.402.042-.57.126a1.442 1.442 0 00-.444.355 1.672 1.672 0 00-.275.585c-.063.23-.105.502-.105.794v.335c0 .313.042.564.105.794.064.23.17.418.275.585a1.268 1.268 0 001.014.48c.21 0 .422-.041.59-.125.17-.084.318-.209.444-.355.127-.167.212-.355.275-.585.063-.23.084-.502.084-.794v-.335zM89.982 47.622v-5.057h1.668c.254 0 .507.02.697.084.212.041.38.125.528.25.148.105.254.251.338.418.085.167.106.376.106.606 0 .23-.064.44-.211.627-.127.188-.317.314-.55.418.148.042.275.105.38.167.106.084.212.168.275.272.085.105.127.23.17.355.041.126.063.272.063.397 0 .23-.043.44-.127.627-.085.188-.19.335-.338.46a1.402 1.402 0 01-.528.272 2.435 2.435 0 01-.697.104h-1.774zm.676-2.905h1.013c.148 0 .275-.02.402-.062a.764.764 0 00.317-.168.571.571 0 00.19-.25.86.86 0 00.063-.335c0-.271-.085-.48-.253-.606-.17-.125-.423-.188-.74-.188h-.992v1.61zm0 .523v1.818h1.12c.168 0 .295-.02.421-.063a.797.797 0 00.507-.48c.043-.105.064-.23.064-.377 0-.146-.021-.271-.064-.376a1.33 1.33 0 00-.169-.292c-.063-.084-.19-.146-.316-.188a1.417 1.417 0 00-.444-.063h-1.12v.02zM96.022 45.637v1.985h-.676v-5.057h1.88c.296 0 .55.042.76.104.233.084.402.189.57.314.148.146.275.293.338.48.085.189.127.398.127.627 0 .251-.042.46-.127.648-.084.188-.19.356-.337.481-.148.125-.338.23-.57.292a2.903 2.903 0 01-.76.105h-1.205v.02zm0-.543h1.204c.19 0 .36-.021.507-.063a.775.775 0 00.338-.21.786.786 0 00.19-.313 1.205 1.205 0 000-.773.785.785 0 00-.19-.313 1.363 1.363 0 00-.338-.23 1.29 1.29 0 00-.507-.084h-1.204v1.986zM103.668 45.282h-2.218v1.797h2.577v.543h-3.253v-5.057h3.21v.543h-2.534v1.63h2.218v.544zM106.624 42.544l1.669 4.138 1.668-4.138h.866v5.057h-.676v-1.964l.064-2.132-1.69 4.096h-.507l-1.668-4.096.063 2.111v1.965h-.676v-5.058h.887v.021zM115.811 45.282h-2.217v1.797h2.576v.543h-3.252v-5.057h3.21v.543h-2.534v1.63h2.217v.544zM121.83 47.622h-.675v-2.34h-2.598v2.34h-.676v-5.057h.676v2.173h2.577v-2.173h.675v5.057h.021zM127.85 47.622h-.676v-2.34h-2.577v2.34h-.676v-5.057h.676v2.173h2.577v-2.173h.676v5.057zM130.637 44.613h1.225c.275 0 .528.042.739.105.212.062.402.167.549.292.148.125.254.293.338.46.085.188.106.376.106.606 0 .23-.042.418-.106.606-.084.188-.19.355-.338.48-.147.126-.337.23-.549.314-.211.084-.464.105-.739.105h-1.901v-5.058h.676v2.09zm0 .564v1.902h1.225c.19 0 .359-.021.486-.084.127-.062.253-.125.338-.209a.787.787 0 00.19-.313c.042-.126.063-.23.063-.376a.896.896 0 00-.253-.648 1.037 1.037 0 00-.338-.21 1.562 1.562 0 00-.486-.083h-1.225v.021zm4.266 2.445h-.675v-5.057h.675v5.057zM140.268 42.544h.676V47.6h-.676v-3.887l-2.513 3.908h-.676v-5.057h.676v3.908l2.513-3.93zm-.19-1.254a.988.988 0 01-.064.376.93.93 0 01-.211.293.878.878 0 01-.338.188 1.414 1.414 0 01-.443.063c-.169 0-.317-.021-.444-.063a1.087 1.087 0 01-.338-.188.946.946 0 01-.211-.293.994.994 0 01-.084-.376h.528c0 .063 0 .125.021.188a.42.42 0 00.084.167.47.47 0 00.169.105.8.8 0 00.254.042c.084 0 .169-.021.232-.042a.462.462 0 00.169-.105.42.42 0 00.084-.167c.022-.063.022-.125.022-.188h.57zM149.307 45.303h-.549V47.6h-.676v-2.298h-.57l-1.457 2.298h-.845l1.732-2.675-1.584-2.382h.802l1.352 2.194h.57v-2.194h.676v2.215h.549l1.352-2.194h.802l-1.584 2.382 1.732 2.675h-.845l-1.457-2.32zM156.361 42.544h.676V47.6h-.676v-3.887l-2.513 3.908h-.676v-5.057h.676v3.908l2.513-3.93zM163.077 42.544V47.6h-.676v-4.514h-1.816l-.063 1.818c-.021.46-.043.857-.106 1.192a2.797 2.797 0 01-.274.835 1.35 1.35 0 01-.465.502c-.19.105-.422.167-.718.167h-.19v-.543h.148a.718.718 0 00.422-.126.881.881 0 00.275-.376c.063-.167.126-.397.169-.668a10.8 10.8 0 00.084-.983l.085-2.361h3.125zM169.117 45.24c0 .376-.042.71-.147 1.024-.106.292-.233.564-.423.773a1.66 1.66 0 01-.655.48 2.17 2.17 0 01-1.668 0 1.833 1.833 0 01-.655-.48c-.19-.21-.317-.46-.422-.773-.106-.293-.148-.648-.148-1.024v-.314c0-.376.042-.71.148-1.024.105-.292.232-.564.422-.773.19-.209.402-.376.655-.48a2.17 2.17 0 011.668 0c.254.104.465.271.655.48.169.209.317.46.423.773.105.293.147.648.147 1.024v.314zm-.675-.314c0-.292-.022-.564-.085-.794a1.662 1.662 0 00-.275-.585 1.183 1.183 0 00-.443-.355 1.297 1.297 0 00-.591-.126 1.27 1.27 0 00-.571.126 1.444 1.444 0 00-.443.355 1.68 1.68 0 00-.275.585c-.063.23-.105.502-.105.794v.335c0 .313.042.564.105.794.064.23.169.418.275.585a1.27 1.27 0 001.014.48c.211 0 .422-.041.591-.125.169-.084.317-.209.443-.355.127-.167.212-.355.275-.585.063-.23.085-.502.085-.794v-.335zM174.25 42.544h.675V47.6h-.675v-3.887l-2.514 3.908h-.675v-5.057h.675v3.908l2.514-3.93zm-.19-1.254c0 .146-.022.272-.064.376a.946.946 0 01-.211.293.878.878 0 01-.338.188 1.418 1.418 0 01-.443.063c-.169 0-.317-.021-.444-.063a1.076 1.076 0 01-.338-.188.946.946 0 01-.296-.669h.528c0 .063 0 .125.022.188.021.063.042.125.084.167a.462.462 0 00.169.105c.063.02.148.042.253.042.085 0 .169-.021.233-.042a.47.47 0 00.169-.105.42.42 0 00.084-.167c.021-.063.021-.125.021-.188h.571zM180.374 45.637v1.985h-.676v-5.057h1.88c.296 0 .549.042.76.104.233.084.402.189.571.314.148.146.274.293.338.48.084.189.126.398.126.627 0 .251-.042.46-.126.648a1.33 1.33 0 01-.338.481c-.148.125-.338.23-.571.292a2.896 2.896 0 01-.76.105h-1.204v.02zm0-.543h1.204c.19 0 .359-.021.507-.063a.777.777 0 00.338-.21.788.788 0 00.19-.313 1.21 1.21 0 000-.773.787.787 0 00-.19-.313 1.367 1.367 0 00-.338-.23 1.291 1.291 0 00-.507-.084h-1.204v1.986zM187.47 46.285h-2.154l-.486 1.316h-.696l1.964-5.057h.591l1.964 5.057h-.697l-.486-1.316zm-1.943-.544h1.732l-.866-2.361-.866 2.361zM193.447 42.544h.676V47.6h-.676v-3.887l-2.513 3.908h-.676v-5.057h.676v3.908l2.513-3.93zm-.19-1.254c0 .146-.021.272-.063.376a.946.946 0 01-.211.293.886.886 0 01-.338.188 1.425 1.425 0 01-.444.063c-.169 0-.316-.021-.443-.063a1.065 1.065 0 01-.338-.188.93.93 0 01-.296-.669h.528c0 .063 0 .125.021.188a.42.42 0 00.085.167.454.454 0 00.169.105c.063.02.148.042.253.042a.76.76 0 00.232-.042.454.454 0 00.169-.105.408.408 0 00.085-.167c.021-.063.021-.125.021-.188h.57zM200.163 45.24c0 .376-.042.71-.148 1.024-.105.292-.232.564-.422.773a1.66 1.66 0 01-.655.48 2.17 2.17 0 01-1.668 0 1.825 1.825 0 01-.655-.48c-.19-.21-.317-.46-.422-.773-.106-.293-.148-.648-.148-1.024v-.314c0-.376.042-.71.148-1.024.105-.292.232-.564.422-.773.19-.209.401-.376.655-.48a2.17 2.17 0 011.668 0c.254.104.465.271.655.48.169.209.317.46.422.773.106.293.148.648.148 1.024v.314zm-.654-.314c0-.292-.022-.564-.085-.794a1.662 1.662 0 00-.275-.585 1.183 1.183 0 00-.443-.355 1.297 1.297 0 00-.591-.126 1.27 1.27 0 00-.571.126 1.444 1.444 0 00-.443.355 1.68 1.68 0 00-.275.585c-.063.23-.105.502-.105.794v.335c0 .313.042.564.105.794.064.23.169.418.275.585a1.27 1.27 0 001.014.48c.211 0 .422-.041.591-.125.169-.084.317-.209.443-.355.127-.167.212-.355.275-.585.063-.23.085-.502.085-.794v-.335zM206.013 47.622h-.675v-2.34h-2.577v2.34h-.676v-5.057h.676v2.173h2.577v-2.173h.675v5.057z"/></g><defs><clipPath id="clip0"><path fill="#fff" transform="translate(0 .316)" d="M0 0h59.211v59.211H0z"/></clipPath><clipPath id="clip1"><path fill="#fff" transform="translate(59.21 12.158)" d="M0 0h165.789v35.526H0z"/></clipPath></defs></svg>