<svg width="190" height="50" fill="none" xmlns="http://www.w3.org/2000/svg"><path d="M9.608 40.224h-.653v2.444h-.727v-5.43h.727v2.389h.56l1.903-2.388h.877l-2.071 2.63 2.239 2.799h-.877l-1.978-2.444zM13.116 42.668V37.22h1.772c.28 0 .523.038.746.093.224.056.41.15.56.262.15.112.28.26.355.447.074.187.13.41.13.653 0 .262-.074.486-.224.672-.149.205-.335.355-.597.448.15.037.28.112.41.186.113.075.225.187.3.299a1.4 1.4 0 01.186.373c.037.15.056.28.056.448 0 .261-.038.485-.13.672a1.423 1.423 0 01-.952.802c-.224.074-.467.093-.747.093h-1.865zm.709-3.116h1.1c.15 0 .299-.018.43-.056a.945.945 0 00.335-.168.61.61 0 00.206-.28.787.787 0 00.074-.373c0-.298-.093-.522-.261-.652-.168-.131-.448-.206-.802-.206h-1.064v1.735h-.018zm0 .579v1.959H15c.168 0 .317-.019.466-.075.15-.056.243-.112.336-.187a.662.662 0 00.206-.298c.056-.13.074-.261.074-.41 0-.15-.018-.28-.056-.411-.037-.13-.112-.224-.186-.317a.856.856 0 00-.336-.205 1.744 1.744 0 00-.467-.075l-1.212.019zM20.877 41.25H18.6l-.523 1.418h-.746l2.071-5.448h.616l2.09 5.448h-.747l-.485-1.418zm-2.052-.578h1.847l-.933-2.538-.914 2.538zM23.582 40.541v2.127h-.727V37.22h2.014c.318 0 .579.038.821.13.243.075.43.206.597.355.168.15.28.318.373.523.075.205.131.429.131.671 0 .261-.037.504-.13.69a1.288 1.288 0 01-.374.523c-.168.15-.354.242-.597.317a2.73 2.73 0 01-.82.112h-1.288zm0-.578h1.287c.206 0 .392-.019.541-.075.15-.056.28-.13.374-.224a.78.78 0 00.205-.336c.037-.13.074-.26.074-.429 0-.149-.018-.28-.074-.41a.977.977 0 00-.205-.355 1.077 1.077 0 00-.373-.242 1.56 1.56 0 00-.542-.093h-1.287v2.164zM31.455 37.817h-1.753v4.85h-.71v-4.85h-1.734v-.578h4.197v.578zM34.981 41.25h-2.276l-.522 1.418h-.746l2.07-5.448h.616l2.09 5.448h-.746l-.486-1.418zm-2.07-.578h1.846l-.932-2.538-.915 2.538zM41.138 37.239v5.448h-.727v-4.851h-1.94l-.057 1.959a11.43 11.43 0 01-.112 1.287c-.056.373-.149.672-.28.896-.13.242-.298.41-.503.54-.206.113-.467.169-.765.169h-.187v-.597h.15a.744.744 0 00.447-.131 1.02 1.02 0 00.299-.41c.074-.187.13-.43.168-.71a8.37 8.37 0 00.074-1.063l.094-2.537h3.34z" fill="#003048"/><path d="M50 50H0V0h50v50zM2.295 47.687h45.392V2.313H2.295v45.374z" fill="#003048"/><path d="M26.604 34.29H8.284v-2.555l9.16-10.168c.84-.933 1.549-1.754 2.108-2.481.56-.728.989-1.381 1.325-1.978.336-.597.56-1.157.69-1.68.13-.522.187-1.044.187-1.585 0-.69-.112-1.343-.336-1.959a4.947 4.947 0 00-.933-1.586 4.425 4.425 0 00-1.511-1.063c-.597-.261-1.288-.392-2.071-.392-.952 0-1.772.15-2.463.43-.69.279-1.268.67-1.735 1.175a4.74 4.74 0 00-1.026 1.79 7.524 7.524 0 00-.354 2.314H7.78c0-1.175.186-2.295.597-3.34a7.8 7.8 0 011.735-2.742c.765-.784 1.716-1.4 2.854-1.847 1.138-.448 2.463-.69 3.956-.69 1.324 0 2.5.186 3.544.54 1.045.355 1.922.859 2.65 1.53.727.653 1.268 1.456 1.66 2.37.392.914.578 1.94.578 3.06 0 .82-.149 1.641-.429 2.481-.28.84-.653 1.66-1.138 2.481a19.224 19.224 0 01-1.679 2.463 40.084 40.084 0 01-2.015 2.388l-7.5 8.134h14.03l-.019 2.91zM41.138 34.29h-3.563V10.617l-7.165 2.63v-3.228l10.168-3.824h.56V34.29z" fill="#003048"/><g clip-path="url(#clip0)" fill="#003048"><path d="M109.799 17.73v-1.942h7.9v-1.817h-7.9v-1.8h8.685V10h-8.364c-1.766 0-2.996.935-2.996 2.912V19.9h8.453c1.944 0 3.068-.282 3.264-2.17h-9.042zM101.31 23.218h-3.264c-2.247 0-4.245.564-4.245 3.564v2.753c0 3 1.98 3.583 4.245 3.583h3.264c2.265 0 4.262-.583 4.262-3.583v-2.753c0-3-2.087-3.564-4.262-3.564zm1.569 5.965c0 1.447-.624 1.605-1.569 1.605h-3.264c-.945 0-1.552-.159-1.552-1.605v-2.03c0-1.447.607-1.588 1.552-1.588h3.264c.874 0 1.569.141 1.569 1.588v2.03zM129.274 24.612l-5.136 5.259v-6.653h-2.658v9.9h1.695c1.052 0 1.569-.636 2.318-1.377l5.136-5.276v6.653h2.658v-9.9h-1.695c-1.052 0-1.605.653-2.318 1.394zM154.706 23.218c-.945 0-1.498.617-1.926 1.447l-4.405 8.453h2.996l.874-1.694h6.384l.892 1.694h2.978l-5.172-9.9h-2.621zm-1.427 6.159l2.122-4.077 2.14 4.059-4.262.018zM144.576 23.218l.018 3.97h-6.456l-.018-3.97h-2.64v9.9h2.658v-4.094h6.456l.018 4.094h2.657v-9.9h-2.693zM93.249 32.659c-.393-.741-.892-1.27-1.66-1.377h-.053l-4.209-8.064h-2.585c-.928 0-1.499.6-1.927 1.43l-3.46 6.652c-.749.124-1.248.653-1.622 1.377l-.232.423v.035h15.98V33.1l-.232-.441zm-10.933-1.377l3.103-6 3.175 6h-6.278zM115.22 23.218h-2.586c-.927 0-1.48.6-1.926 1.43l-4.423 8.47h3.014l3.995-7.836 4.174 7.836h2.924l-5.172-9.9zM128.81 10h-8.132v9.9h2.657v-2.541h5.475c2.8 0 3.424-.953 3.424-3.724 0-2.594-.945-3.635-3.424-3.635zm-.321 5.065h-5.154v-2.77h5.154c1.052 0 .999.317.999 1.34 0 1.27.053 1.43-.999 1.43zM153.671 10c-.945 0-1.498.618-1.926 1.43l-4.423 8.47h2.979l.874-1.694h6.384l.892 1.694h2.978l-5.154-9.9h-2.604zm-1.426 6.141l2.104-4.076 2.14 4.059-4.244.017zM68.601 15.541v-1.359c0-1.394.268-1.835 1.374-1.835h7.508C77.198 10.3 75.824 10 73.809 10h-3.55c-2.496 0-4.368.459-4.368 3.67v2.524c0 3.547 2.086 3.706 4.405 3.706h3.228c1.248 0 2.229 0 3.12-.706.536-.459.75-1.041.857-1.623h-7.473c-1.23 0-1.427-.565-1.427-2.03zM103.2 14.924v-.106c1.32-.212 1.569-1.024 1.569-2.277 0-2.17-1.159-2.541-3.156-2.541h-8.382v9.9h8.453c2.122 0 3.264-.335 3.264-2.753 0-1.235-.25-2.118-1.748-2.223zm-7.294-2.753h5.368c.767 0 .838.264.838.829 0 .794-.232.953-1.159.953h-5.047V12.17zm5.136 5.558h-5.136v-1.94h5.207c.856 0 1.177.123 1.177.935-.017.811-.392 1.005-1.248 1.005zM143.524 10v3.97h-6.456V10h-2.64v9.9h2.657v-4.094h6.456V19.9h2.676V10h-2.693zM165.959 10c-2.479 0-3.406 1.041-3.406 3.635 0 2.77.624 3.724 3.406 3.724h.143l-3.799 2.541h3.995l3.87-2.541h1.284V19.9h2.658V10h-8.151zm5.475 5.065h-5.154c-1.052 0-.998-.16-.998-1.43 0-1.023-.054-1.34.998-1.34h5.154v2.77zM82.352 17.73v-1.942h7.9v-1.817h-7.9v-1.8h8.685V10h-8.364c-1.766 0-2.996.935-2.996 2.912V19.9h8.453c1.944 0 3.068-.282 3.264-2.17h-9.042zM69.529 38.588a2.025 2.025 0 01-.143.565 1.135 1.135 0 01-.32.441c-.144.124-.304.23-.5.3a2.02 2.02 0 01-.678.106 1.81 1.81 0 01-.696-.141 1.346 1.346 0 01-.535-.406 1.894 1.894 0 01-.338-.618 2.871 2.871 0 01-.125-.812V37.6c0-.3.035-.565.125-.812.089-.247.196-.459.338-.617.143-.177.34-.3.553-.406.214-.089.464-.142.732-.142.25 0 .463.036.642.106.178.071.356.177.481.3.125.124.232.283.321.46.071.176.125.37.143.582h-.57a1.516 1.516 0 00-.108-.406c-.053-.124-.107-.23-.196-.3a.892.892 0 00-.303-.194 1.09 1.09 0 00-.428-.071c-.197 0-.357.035-.5.106a.98.98 0 00-.356.3c-.09.123-.179.3-.214.476a2.26 2.26 0 00-.072.618v.441c0 .212.018.406.072.583.035.176.107.352.196.476a.96.96 0 00.339.318c.142.07.303.123.499.123.178 0 .339-.017.464-.07a.602.602 0 00.303-.194.882.882 0 00.196-.3c.053-.124.09-.248.107-.406h.57v.017zM74.38 37.935c0 .318-.036.6-.125.865-.09.247-.196.477-.357.653a1.404 1.404 0 01-.553.406 1.835 1.835 0 01-1.409 0 1.544 1.544 0 01-.553-.406c-.16-.177-.267-.388-.356-.653a2.6 2.6 0 01-.125-.865v-.264c0-.318.036-.6.125-.865.089-.247.196-.476.356-.653.161-.176.34-.318.553-.406a1.835 1.835 0 011.409 0c.214.088.393.23.553.406.143.177.268.388.357.653.089.247.125.547.125.865v.264zm-.571-.264c0-.247-.018-.477-.071-.67a1.411 1.411 0 00-.232-.495 1.004 1.004 0 00-.375-.3 1.095 1.095 0 00-.5-.106c-.177 0-.338.035-.48.106-.143.07-.268.176-.375.3-.107.141-.178.3-.232.494-.053.194-.09.424-.09.67v.283c0 .265.037.476.09.67.053.195.143.354.232.495a1.071 1.071 0 00.856.406c.178 0 .357-.036.5-.106.142-.07.267-.177.374-.3.107-.142.178-.3.232-.494.053-.195.071-.424.071-.671v-.282zM75.985 39.947v-4.27h1.409c.214 0 .428.017.588.07a.952.952 0 01.446.212.93.93 0 01.285.353c.072.141.09.318.09.512s-.054.37-.179.53c-.107.158-.267.264-.463.352.124.035.231.088.32.141.09.07.179.142.233.23.07.088.106.194.142.3.036.106.054.23.054.335 0 .194-.036.37-.107.53-.072.158-.16.282-.286.388a1.182 1.182 0 01-.445.23 2.054 2.054 0 01-.589.087h-1.498zm.57-2.453h.857c.124 0 .231-.017.338-.053a.646.646 0 00.268-.14.483.483 0 00.16-.212.724.724 0 00.054-.283c0-.23-.071-.406-.214-.512-.143-.105-.357-.158-.624-.158h-.838v1.358zm0 .442v1.535h.946c.142 0 .25-.018.356-.053a.673.673 0 00.428-.406.847.847 0 00.054-.318.846.846 0 00-.196-.564c-.054-.07-.16-.124-.268-.16a1.197 1.197 0 00-.374-.052h-.945v.018zM81.085 38.27v1.677h-.57v-4.27h1.587c.25 0 .464.035.642.088.196.07.339.159.482.265.124.123.231.247.285.406.071.158.107.335.107.529 0 .212-.036.388-.107.547-.071.159-.16.3-.285.406a1.236 1.236 0 01-.482.247c-.196.053-.41.088-.642.088h-1.017v.018zm0-.458h1.017c.16 0 .303-.018.428-.053a.654.654 0 00.285-.176.663.663 0 00.16-.265 1.016 1.016 0 000-.653.664.664 0 00-.16-.265 1.148 1.148 0 00-.285-.194 1.089 1.089 0 00-.428-.07h-1.017v1.676zM87.541 37.97H85.67v1.519h2.176v.458h-2.747v-4.27h2.711v.459h-2.14v1.376h1.872v.459zM90.038 35.659l1.41 3.494 1.408-3.494h.731v4.27h-.57V38.27l.053-1.8-1.427 3.46h-.428l-1.409-3.46.054 1.783v1.659h-.57v-4.27h.748v.017zM97.796 37.97h-1.872v1.519h2.175v.458h-2.746v-4.27h2.71v.459h-2.14v1.376h1.873v.459zM102.879 39.947h-.571v-1.976h-2.193v1.976h-.57v-4.27h.57v1.835h2.176v-1.835h.57v4.27h.018zM107.962 39.947h-.571v-1.976h-2.176v1.976h-.57v-4.27h.57v1.835h2.176v-1.835h.571v4.27zM110.316 37.406h1.034c.232 0 .446.035.625.088.178.053.339.141.463.247.125.106.214.247.286.388.071.16.089.318.089.512s-.036.353-.089.512c-.072.159-.161.3-.286.406a1.66 1.66 0 01-.463.265c-.179.07-.393.088-.625.088h-1.605v-4.27h.571v1.764zm0 .476v1.606h1.034a.952.952 0 00.411-.07c.107-.053.214-.106.285-.177a.672.672 0 00.161-.265.93.93 0 000-.617.75.75 0 00-.161-.247.876.876 0 00-.285-.177 1.318 1.318 0 00-.411-.07h-1.034v.017zm3.603 2.065h-.571v-4.27h.571v4.27zM118.448 35.659h.571v4.27h-.571v-3.282l-2.122 3.3h-.571v-4.27h.571v3.3l2.122-3.318zm-.16-1.059a.84.84 0 01-.054.318.789.789 0 01-.178.247.742.742 0 01-.285.159 1.199 1.199 0 01-.375.053c-.142 0-.267-.018-.374-.053a.92.92 0 01-.286-.16.805.805 0 01-.178-.246.83.83 0 01-.071-.318h.446c0 .053 0 .106.017.159a.352.352 0 00.072.141c.035.035.089.07.142.088a.673.673 0 00.214.036.65.65 0 00.197-.036.384.384 0 00.142-.088.352.352 0 00.072-.141c.017-.053.017-.106.017-.159h.482zM126.082 37.988h-.464v1.941h-.571v-1.94h-.481l-1.231 1.94h-.713l1.462-2.259-1.337-2.011h.677l1.142 1.853h.481v-1.853h.571v1.87h.464l1.141-1.853h.678l-1.338 2.012 1.463 2.259h-.714l-1.23-1.959zM132.038 35.659h.571v4.27h-.571v-3.282l-2.122 3.3h-.571v-4.27h.571v3.3l2.122-3.318zM137.71 35.659v4.27h-.571v-3.812h-1.534l-.053 1.536c-.018.388-.036.723-.09 1.006a2.34 2.34 0 01-.231.706 1.135 1.135 0 01-.393.423c-.16.088-.356.141-.606.141h-.161v-.459h.125c.143 0 .25-.035.357-.105a.748.748 0 00.232-.318c.053-.141.107-.335.142-.565.036-.23.054-.511.072-.83l.071-1.993h2.64zM142.81 37.935c0 .318-.035.6-.125.865-.089.247-.196.477-.356.653a1.407 1.407 0 01-.553.406 1.836 1.836 0 01-1.409 0 1.549 1.549 0 01-.553-.406c-.16-.177-.267-.388-.357-.653-.089-.247-.124-.547-.124-.865v-.264c0-.318.035-.6.124-.865.09-.247.197-.476.357-.653a1.55 1.55 0 01.553-.406 1.836 1.836 0 011.409 0c.214.088.392.23.553.406.142.177.267.388.356.653.09.247.125.547.125.865v.264zm-.57-.264a2.56 2.56 0 00-.072-.67 1.403 1.403 0 00-.232-.495 1.008 1.008 0 00-.374-.3 1.097 1.097 0 00-.5-.106 1.07 1.07 0 00-.481.106c-.143.07-.268.176-.375.3-.107.141-.178.3-.231.494-.054.194-.09.424-.09.67v.283c0 .265.036.476.09.67.053.195.142.354.231.495a1.07 1.07 0 00.856.406c.179 0 .357-.036.5-.106.142-.07.267-.177.374-.3.107-.142.179-.3.232-.494a2.56 2.56 0 00.072-.671v-.282zM147.144 35.659h.571v4.27h-.571v-3.282l-2.122 3.3h-.571v-4.27h.571v3.3l2.122-3.318zm-.16-1.059a.84.84 0 01-.054.318.805.805 0 01-.178.247.754.754 0 01-.286.159 1.197 1.197 0 01-.374.053c-.143 0-.268-.018-.375-.053a.903.903 0 01-.285-.16.789.789 0 01-.25-.564h.446c0 .053 0 .106.018.159a.364.364 0 00.071.141c.036.035.089.07.143.088a.668.668 0 00.214.036.643.643 0 00.196-.036.388.388 0 00.143-.088.364.364 0 00.071-.141c.018-.053.018-.106.018-.159h.482zM152.316 38.27v1.677h-.571v-4.27h1.588c.249 0 .463.035.642.088.196.07.339.159.481.265.125.123.232.247.286.406.071.158.107.335.107.529 0 .212-.036.388-.107.547-.072.159-.161.3-.286.406a1.236 1.236 0 01-.481.247 2.463 2.463 0 01-.642.088h-1.017v.018zm0-.458h1.017c.16 0 .303-.018.428-.053a.655.655 0 00.285-.176.671.671 0 00.161-.265 1.035 1.035 0 000-.653.672.672 0 00-.161-.265 1.14 1.14 0 00-.285-.194 1.09 1.09 0 00-.428-.07h-1.017v1.676zM158.308 38.818h-1.819l-.41 1.111h-.588l1.658-4.27h.5l1.658 4.27h-.588l-.411-1.111zm-1.64-.46h1.462l-.731-1.993-.731 1.994zM163.355 35.659h.571v4.27h-.571v-3.282l-2.122 3.3h-.571v-4.27h.571v3.3l2.122-3.318zm-.16-1.059a.84.84 0 01-.054.318.789.789 0 01-.178.247.742.742 0 01-.285.159 1.199 1.199 0 01-.375.053c-.142 0-.267-.018-.374-.053a.92.92 0 01-.286-.16.805.805 0 01-.178-.246.83.83 0 01-.071-.318h.446c0 .053 0 .106.017.159a.352.352 0 00.072.141c.035.035.089.07.142.088a.673.673 0 00.214.036.65.65 0 00.197-.036.384.384 0 00.142-.088.352.352 0 00.072-.141c.017-.053.017-.106.017-.159h.482zM169.027 37.935c0 .318-.036.6-.125.865-.089.247-.196.477-.357.653a1.4 1.4 0 01-.553.406 1.831 1.831 0 01-1.408 0 1.54 1.54 0 01-.553-.406c-.161-.177-.268-.388-.357-.653a2.604 2.604 0 01-.125-.865v-.264c0-.318.036-.6.125-.865.089-.247.196-.476.357-.653.16-.176.339-.318.553-.406a1.831 1.831 0 011.408 0c.214.088.393.23.553.406.143.177.268.388.357.653.089.247.125.547.125.865v.264zm-.553-.264c0-.247-.018-.477-.071-.67a1.42 1.42 0 00-.232-.495 1.003 1.003 0 00-.375-.3 1.092 1.092 0 00-.499-.106c-.178 0-.339.035-.482.106-.142.07-.267.176-.374.3a1.42 1.42 0 00-.232.494 2.568 2.568 0 00-.089.67v.283c0 .265.036.476.089.67.054.195.143.354.232.495a1.075 1.075 0 00.856.406c.178 0 .357-.036.499-.106.143-.07.268-.177.375-.3.107-.142.178-.3.232-.494.053-.195.071-.424.071-.671v-.282zM173.967 39.947h-.571v-1.976h-2.176v1.976h-.57v-4.27h.57v1.835h2.176v-1.835h.571v4.27z"/></g><defs><clipPath id="clip0"><path fill="#fff" transform="translate(50 10)" d="M0 0h140v30H0z"/></clipPath></defs></svg>