<svg width="40" height="40" fill="none" xmlns="http://www.w3.org/2000/svg"><path fill="#fff" d="M0 0h40v40H0z"/><path d="M8.918 30.962h-.47v1.76h-.524v-3.91h.524v1.72h.403l1.37-1.72h.631l-1.49 1.895 1.611 2.015h-.631l-1.424-1.76zM11.443 32.72V28.8h1.277c.201 0 .376.026.537.067.161.04.295.107.403.188a.76.76 0 01.255.322c.054.134.094.296.094.47a.75.75 0 01-.161.484.873.873 0 01-.43.322c.107.027.202.08.296.134.08.054.16.135.214.215.054.081.108.175.135.27.027.107.04.2.04.322a1.072 1.072 0 01-.363.846 1.025 1.025 0 01-.416.215 1.685 1.685 0 01-.537.067h-1.344zm.51-2.242h.793c.108 0 .215-.014.31-.04a.684.684 0 00.241-.122.439.439 0 00.148-.201.566.566 0 00.054-.269c0-.215-.068-.376-.189-.47-.12-.094-.322-.148-.577-.148h-.766v1.25h-.013zm0 .416v1.41h.847c.121 0 .228-.013.336-.053a.816.816 0 00.242-.135.478.478 0 00.147-.215.723.723 0 00.054-.295 1.05 1.05 0 00-.04-.296c-.027-.094-.08-.16-.134-.228a.617.617 0 00-.242-.148 1.255 1.255 0 00-.336-.053l-.873.013zM17.031 31.7h-1.639l-.376 1.02h-.537L15.97 28.8h.443l1.505 3.922h-.537l-.35-1.021zm-1.477-.416h1.33l-.672-1.827-.658 1.826zM18.979 31.19v1.53h-.524V28.8h1.45c.23 0 .417.026.592.093.175.054.309.148.43.256.12.107.201.228.268.376.054.148.094.309.094.483 0 .188-.027.363-.094.497a.928.928 0 01-.268.377 1.1 1.1 0 01-.43.228c-.175.054-.363.08-.591.08h-.927zm0-.417h.927c.148 0 .282-.013.39-.054a.755.755 0 00.268-.16.563.563 0 00.148-.243c.027-.094.053-.188.053-.309a.723.723 0 00-.053-.295.705.705 0 00-.148-.255.775.775 0 00-.269-.175 1.123 1.123 0 00-.39-.067h-.926v1.558zM24.648 29.228h-1.263v3.493h-.51v-3.493h-1.25v-.416h3.023v.416zM27.186 31.7h-1.638l-.376 1.02h-.538l1.491-3.921h.444l1.504 3.922h-.537l-.35-1.021zm-1.49-.416h1.33l-.672-1.827-.659 1.826zM31.62 28.812v3.922h-.524v-3.492h-1.398l-.04 1.41a8.22 8.22 0 01-.08.927c-.04.269-.108.484-.202.645a1.018 1.018 0 01-.363.39 1.15 1.15 0 01-.55.12h-.135v-.43h.108c.12 0 .228-.026.322-.094a.734.734 0 00.215-.295 2.19 2.19 0 00.121-.51c.027-.216.054-.47.054-.766l.067-1.827h2.404z" fill="#003349"/><path d="M38 38H2V2h36v36zM3.652 36.334h32.682V3.666H3.652v32.668z" fill="#003349"/><path d="M21.155 26.69H7.965v-1.84l6.595-7.322a31.481 31.481 0 001.518-1.786c.403-.524.712-.994.953-1.424.242-.43.403-.833.497-1.21.095-.375.135-.751.135-1.14 0-.498-.08-.968-.242-1.411a3.563 3.563 0 00-.672-1.142 3.187 3.187 0 00-1.088-.766c-.43-.188-.927-.282-1.49-.282-.686 0-1.277.108-1.774.31a3.432 3.432 0 00-1.25.845 3.413 3.413 0 00-.738 1.29 5.416 5.416 0 00-.255 1.666H7.602c0-.847.134-1.653.43-2.405A5.617 5.617 0 019.28 8.098c.55-.564 1.236-1.007 2.055-1.33.82-.322 1.773-.496 2.848-.496.953 0 1.8.134 2.552.39.752.254 1.383.617 1.907 1.1.524.47.914 1.048 1.196 1.707.282.658.416 1.397.416 2.203 0 .59-.107 1.182-.309 1.786a9.217 9.217 0 01-.82 1.787 13.846 13.846 0 01-1.208 1.773c-.457.59-.94 1.155-1.45 1.72l-5.4 5.856h10.1l-.013 2.095zM31.62 26.69h-2.566V9.642l-5.159 1.894V9.213l7.321-2.753h.403v20.23z" fill="#003349"/></svg>