<svg width="30" height="30" fill="none" xmlns="http://www.w3.org/2000/svg"><g clip-path="url(#clip0)" fill="#0072C7"><path d="M16.763 5.985L15 6.933l-1.763-.95a.5.5 0 10-.474.88L14.5 7.8V9a.5.5 0 101 0V7.8l1.737-.933a.5.5 0 00-.474-.881v-.001z"/><path d="M22 11V4a.5.5 0 00-.244-.429c-.006-.004-.014-.005-.02-.009l-6.5-3.5a.5.5 0 00-.475 0l-6.5 3.5c-.006.004-.014.005-.02.01A.5.5 0 008 4v7a.5.5 0 00.263.44l6.5 3.5a.5.5 0 00.474 0l6.5-3.5A.5.5 0 0022 11zm-1-.3l-5.5 2.963V12a.5.5 0 10-1 0v1.663L9 10.7V4.837l1.263.679a.5.5 0 10.474-.881L9.556 4 15 1.068 20.445 4l-1.182.635a.5.5 0 10.474.881L21 4.836V10.7z"/><path d="M24.85 13.12l2.15-.64a.5.5 0 10-.286-.959l-3.354 1a.5.5 0 00-.336.622l1 3.354a.5.5 0 00.958-.286l-.67-2.245C27.297 15.606 29 17.92 29 20.38c0 4.753-6.28 8.62-14 8.62S1 25.133 1 20.38c0-2.456 1.705-4.773 4.69-6.413l-.669 2.243a.5.5 0 10.958.286l1-3.354a.5.5 0 00-.336-.622l-3.354-1a.5.5 0 00-.286.958l2.15.642C1.873 14.94 0 17.563 0 20.38c0 5.304 6.729 9.62 15 9.62s15-4.316 15-9.62c0-2.823-1.87-5.44-5.15-7.26z"/><path d="M10.5 16.5a1.997 1.997 0 00-1.9 1.368.5.5 0 00.95.316 1 1 0 11.95 1.316.5.5 0 100 1 1 1 0 11-.95 1.317.5.5 0 10-.95.315A2 2 0 1011.82 20a2 2 0 00-1.321-3.5zM15 23.5a2.138 2.138 0 002-2.25A2.138 2.138 0 0015 19a1.79 1.79 0 00-.664.137 2.75 2.75 0 011.368-1.681.5.5 0 10-.409-.912C13.027 17.562 13 20.86 13 21a.49.49 0 00.015.077c-.004.058-.015.114-.015.173a2.139 2.139 0 002 2.25zm0-3.5a1.15 1.15 0 011 1.25 1.15 1.15 0 01-1 1.25 1.15 1.15 0 01-1-1.25A1.15 1.15 0 0115 20zM17.5 18.5v3a2 2 0 104 0v-3a2 2 0 10-4 0zm3 0v3a1 1 0 11-2 0v-3a1 1 0 112 0z"/></g><defs><clipPath id="clip0"><path fill="#fff" d="M0 0h30v30H0z"/></clipPath></defs></svg>