<svg width="55" height="55" fill="none" xmlns="http://www.w3.org/2000/svg"><g clip-path="url(#clip0)" fill="#fff"><path d="M46.406 37.813a3.441 3.441 0 01-3.437-3.438V22.344c0-4.142-1.616-8.034-4.55-10.958a15.392 15.392 0 00-6.357-3.83 5.122 5.122 0 00.594-2.4A5.162 5.162 0 0027.5 0a5.162 5.162 0 00-5.156 5.156c0 .871.218 1.692.6 2.412-6.31 1.971-10.913 7.923-10.913 14.925v11.882a3.441 3.441 0 01-3.437 3.438c-.95 0-1.719.77-1.719 1.718v6.875c0 .95.77 1.719 1.719 1.719h12.952A6.022 6.022 0 0027.5 55a6.022 6.022 0 005.954-6.875h12.952c.95 0 1.719-.77 1.719-1.719v-6.875c0-.949-.77-1.718-1.719-1.718zM27.5 3.437a1.72 1.72 0 011.719 1.72A1.72 1.72 0 0127.5 6.874a1.72 1.72 0 01-1.719-1.719A1.72 1.72 0 0127.5 3.438zm2.578 45.547a2.581 2.581 0 01-2.578 2.578 2.581 2.581 0 01-2.432-3.437h4.864c.097.273.146.562.146.86zm14.61-4.297H10.313v-3.654c2.961-.766 5.156-3.46 5.156-6.658V22.493c0-6.693 5.377-12.157 11.988-12.18h.043a11.95 11.95 0 018.492 3.508 11.95 11.95 0 013.54 8.523v12.031c0 3.198 2.194 5.892 5.156 6.657v3.656z"/><path d="M20.625 24.063c-.95 0-1.719-.77-1.719-1.72 0-4.738 3.855-8.593 8.594-8.593a1.719 1.719 0 010 3.438 5.162 5.162 0 00-5.156 5.156c0 .949-.77 1.718-1.719 1.718z"/></g><defs><clipPath id="clip0"><path fill="#fff" d="M0 0h55v55H0z"/></clipPath></defs></svg>