<svg width="80" height="80" fill="none" xmlns="http://www.w3.org/2000/svg"><g clip-path="url(#clip0)" fill="#0072CE"><path d="M79.16 36.857l-45.2-25.852c-3.487-1.997-8.259-.92-10.557 2.369l-8.756 12.518a7.247 7.247 0 00-1.314 4.172 7.293 7.293 0 003.635 6.299l9.532 5.505-1.722 2.298a7.273 7.273 0 00-1.445 4.338c0 1.599.585 3.102 1.528 4.345l-2.537 3.817H10V51.65c0-.922-.746-1.65-1.667-1.65H1.667C.745 50 0 50.728 0 51.65v16.682C0 69.254.745 70 1.667 70h6.666C9.255 70 10 69.254 10 68.332v-1.665h12.324a9.976 9.976 0 008.32-4.456l2.732-4.101c.526.114 1.057.218 1.6.218a7.63 7.63 0 006.513-3.692l1.831-3.055 14.184 8.192a1.66 1.66 0 001.314.153c.44-.134.806-.442 1.01-.852l1.235-2.473c.202.015.397.059.603.059 6.433 0 11.667-5.24 11.667-11.677 0-.707-.105-1.436-.26-2.18l6.005-3.006a1.67 1.67 0 00.081-2.94zM6.666 66.667H3.333V53.332h3.334v13.334zm21.204-6.298a6.652 6.652 0 01-5.547 2.97H10v-3.334h12.324a3.32 3.32 0 002.773-1.485l2.308-3.463 2.863 1.717-2.397 3.595zm10.76-7.435c-1.165 1.939-3.908 2.629-5.848 1.462l-4.227-2.536a3.91 3.91 0 01-1.89-3.336c0-.837.277-1.665.779-2.336l1.963-2.617 11.024 6.36-1.801 3.003zm19.007 3.077L18.633 33.506a3.944 3.944 0 01-1.966-3.407c0-.812.245-1.592.71-2.257l4.185-5.977L62.807 45.66l-5.17 10.35zm5.115-2.783l3.488-6.986 3.703-1.851c.018.204.055.416.055.614 0 4.222-3.169 7.684-7.246 8.223zm2.303-10.12L23.482 19.124l2.652-3.788a4.694 4.694 0 016.172-1.384l42.496 24.284-9.746 4.872z"/><path d="M55 50a1.667 1.667 0 100-3.333A1.667 1.667 0 0055 50z"/></g><defs><clipPath id="clip0"><path fill="#fff" d="M0 0h80v80H0z"/></clipPath></defs></svg>