<svg width="55" height="55" fill="none" xmlns="http://www.w3.org/2000/svg"><g clip-path="url(#clip0)"><path d="M13.223 10.136A4.956 4.956 0 009.63 5.842L.875 3.372 0 6.471l8.75 2.47c.697.199 1.194.793 1.266 1.514l2.995 30.055h.002a4.984 4.984 0 004.97 4.672h1.742a4.839 4.839 0 004.556 6.446 4.839 4.839 0 004.556-6.446h10.221a4.839 4.839 0 004.556 6.446 4.839 4.839 0 004.834-4.834 4.839 4.839 0 00-4.833-4.833H17.983a1.76 1.76 0 01-1.758-1.757c0-.915.687-1.667 1.598-1.75l29.426-2.666a4.956 4.956 0 004.529-4.959V16.184H55V12.96H13.504l-.281-2.825zm12.67 36.66c0 .888-.724 1.61-1.612 1.61a1.613 1.613 0 01-1.611-1.61c0-.889.723-1.612 1.611-1.612s1.611.723 1.611 1.611zm19.333 0c0 .888-.723 1.61-1.611 1.61a1.613 1.613 0 01-1.611-1.61c0-.889.722-1.612 1.61-1.612.889 0 1.612.723 1.612 1.611zm-27.694-11.55a5.019 5.019 0 00-1.758.49l-.985-9.885h4.659v9.221l-1.916.174zm14.805-12.618v-6.444h6.444v6.444h-6.444zm6.444 3.223v7.47l-6.444.584V25.85h6.444zm-9.667-3.223H22.67v-6.444h6.444v6.444zm0 3.223v8.345l-6.444.584v-8.93h6.444zm17.844 6.73l-4.954.448v-7.178h6.552v4.98c0 .914-.688 1.667-1.598 1.75zm1.598-9.953h-6.552v-6.444h6.552v6.444zm-29.108-6.444v6.444h-4.98l-.643-6.444h5.623z" fill="#fff"/></g><defs><clipPath id="clip0"><path fill="#fff" d="M0 0h55v55H0z"/></clipPath></defs></svg>