<svg width="80" height="80" fill="none" xmlns="http://www.w3.org/2000/svg"><path d="M14.063 44.708c.41 0 .814-.168 1.104-.458.29-.29.458-.694.458-1.105 0-.413-.167-.814-.458-1.105a1.575 1.575 0 00-1.104-.457c-.411 0-.815.167-1.105.457-.29.291-.458.692-.458 1.105 0 .411.167.814.458 1.105.29.29.694.458 1.104.458z" fill="#0072CE"/><path d="M64.511 44.2a10.705 10.705 0 004.708 1.077C75.164 45.277 80 40.441 80 34.496c0-5.393-3.981-9.874-9.159-10.66a17.3 17.3 0 00.346-3.445c0-9.52-7.746-17.266-17.266-17.266-9.521 0-17.266 7.745-17.266 17.266 0 .558.027 1.118.08 1.674a13.776 13.776 0 00-10 13.285c0 2.203.507 4.316 1.48 6.233h-7.902a1.562 1.562 0 100 3.125h18.125v6.875H3.124v-6.875h4.688a1.563 1.563 0 000-3.125h-6.25c-.864 0-1.563.7-1.563 1.562v10c0 .863.7 1.563 1.563 1.563H6.25v5.605H1.562C.7 60.313 0 61.011 0 61.874v6.25c0 .863.7 1.563 1.563 1.563H6.25v4.062H1.562a1.562 1.562 0 100 3.125H70a1.562 1.562 0 100-3.125h-.158a9.16 9.16 0 00.015-.503c0-4.935-4.015-8.95-8.95-8.95-1.978 0-3.88.664-5.424 1.839v-15.36c3.92-.53 7.33-3.025 9.028-6.577zm-32.65-2.617a10.584 10.584 0 01-2.001-6.233 10.66 10.66 0 018.885-10.54 1.564 1.564 0 001.273-1.825 14.264 14.264 0 01-.238-2.594c0-7.798 6.344-14.141 14.14-14.141 7.797 0 14.141 6.343 14.141 14.14 0 1.506-.236 2.99-.701 4.41a1.56 1.56 0 001.547 2.048c.103-.004.207-.008.312-.008 4.222 0 7.656 3.434 7.656 7.656 0 4.222-3.434 7.656-7.656 7.656a7.591 7.591 0 01-4.57-1.513 1.561 1.561 0 00-2.44.832c-.89 3.19-3.546 5.55-6.726 6.141V37.306l7.756-7.756a1.563 1.563 0 00-2.21-2.21l-5.546 5.546v-6.253a1.563 1.563 0 00-3.125 0V38.5l-6.054-6.054a1.563 1.563 0 00-2.21 2.21l8.168 8.168c.031.03.063.058.096.086v4.705a8.516 8.516 0 01-4.735-2.6 1.562 1.562 0 00-1.9-.301 10.687 10.687 0 01-4.161 1.283v-2.852c0-.864-.7-1.563-1.563-1.563h-8.137zM40 54.708c.863 0 1.563-.7 1.563-1.563v-4.012a13.86 13.86 0 004.625-1.162 11.79 11.79 0 006.17 2.806v16.46a8.149 8.149 0 00-7.039 6.513H35.312v-4.063H40c.863 0 1.563-.699 1.563-1.562v-6.25c0-.863-.7-1.563-1.563-1.563h-4.688v-5.604H40zm-30.625 0h22.813v5.605H9.375v-5.605zm-6.25 8.73h35.313v3.124H3.124v-3.124zm6.25 6.25h22.813v4.062H9.375v-4.063zm46.798.166a5.845 5.845 0 014.734-2.432 5.832 5.832 0 015.803 6.328H48.542a5.015 5.015 0 015.981-3.292 1.563 1.563 0 001.65-.604z" fill="#0072CE"/><path d="M53.92 21.945c.413 0 .815-.167 1.105-.457.29-.291.458-.694.458-1.105 0-.411-.167-.814-.458-1.105a1.571 1.571 0 00-1.105-.458c-.41 0-.814.168-1.104.458-.29.29-.458.694-.458 1.105 0 .41.167.814.458 1.105.29.29.694.457 1.104.457z" fill="#0072CE"/></svg>