<svg width="80" height="80" fill="none" xmlns="http://www.w3.org/2000/svg"><g clip-path="url(#clip0)" fill="#0072CE"><path d="M31.17 59.692l1.677-1c.216-.13.399-.31.53-.524 2.341-3.813 2.602-7.622.717-10.449-1.354-2.03-3.624-3.203-5.955-3.132-2.313-2.137-5.046-3.377-7.946-3.596a12.17 12.17 0 00-7.992 2.235c-2.19 1.569-3.757 3.822-4.414 6.344-.725 2.781-.34 5.78 1.11 8.672.154.306.405.554.713.704l1.72.837v.922c0 2.285.778 4.391 2.082 6.07a13.984 13.984 0 00-6.225 11.663c0 .863.7 1.562 1.563 1.562h5.47a1.563 1.563 0 000-3.125h-3.797c.472-3.298 2.424-6.198 5.358-7.898a9.861 9.861 0 005.469 1.648c2.02 0 3.899-.608 5.468-1.648 2.933 1.701 4.886 4.603 5.358 7.898h-3.794a1.563 1.563 0 000 3.125h5.468c.863 0 1.562-.7 1.562-1.562 0-4.733-2.347-9.06-6.224-11.662a9.868 9.868 0 002.083-6.071v-1.013zM14.02 45.767c3.186-2.282 8.266-2.692 12.434 1.537.353.358.858.524 1.355.446 1.38-.217 2.86.467 3.685 1.703 1.076 1.613.933 3.9-.37 6.36a1.561 1.561 0 00-.735-.978l-.202-.116c-1.322-.758-2.277-1.305-2.523-3.318a1.562 1.562 0 00-2.656-.915c-2.401 2.402-8.904 4.14-12.116 4.14-.82 0-1.492.633-1.556 1.437-1.976-4.739.146-8.477 2.685-10.296zm.434 14.938v-3.04c3.242-.323 7.733-1.558 10.8-3.455.723 1.472 1.833 2.294 2.792 2.877v3.617A6.804 6.804 0 0121.25 67.5a6.803 6.803 0 01-6.796-6.795zM71.249 71.989V53.455c0-6.892-5.607-12.499-12.499-12.499s-12.499 5.607-12.499 12.499v18.53a14.015 14.015 0 00-1.563 6.453c0 .862.699 1.562 1.562 1.562h25c.863 0 1.563-.7 1.563-1.562 0-2.296-.553-4.495-1.564-6.45zM51.954 60.704V57.67c2.798-.301 5.073-1.44 6.796-3.397 1.723 1.958 3.998 3.096 6.796 3.397v3.036A6.804 6.804 0 0158.75 67.5a6.804 6.804 0 01-6.796-6.795zm14.634 6.072a9.908 9.908 0 001.536-2.83v4.02c-.48-.427-.993-.825-1.536-1.19zM58.75 44.081c5.169 0 9.374 4.205 9.374 9.374v1.547a1.555 1.555 0 00-1.016-.376c-3.276 0-5.502-1.213-7.005-3.816a1.562 1.562 0 00-2.706 0c-1.503 2.603-3.73 3.816-7.005 3.816-.388 0-.743.142-1.016.376v-1.547c0-5.169 4.205-9.374 9.374-9.374zm-7.838 22.695c-.543.364-1.055.761-1.536 1.19v-4.02a9.907 9.907 0 001.536 2.83zm-2.989 10.1c.472-3.3 2.424-6.199 5.359-7.9a9.862 9.862 0 005.468 1.65c2.02 0 3.899-.609 5.468-1.649 2.933 1.7 4.886 4.603 5.359 7.898H47.923z"/><path d="M21.251 76.875h-.001A1.562 1.562 0 1021.248 80a1.562 1.562 0 00.003-3.124zM46.335 38.514v-4.607a13.06 13.06 0 006.68-11.372C53.016 15.358 47.178 9.52 40 9.52c-7.177 0-13.016 5.839-13.016 13.016a13.06 13.06 0 006.681 11.372v4.607a5.387 5.387 0 005.38 5.38h1.91a5.386 5.386 0 005.38-5.38zM30.109 22.535c0-5.454 4.437-9.89 9.89-9.89 5.455 0 9.892 4.436 9.892 9.89a9.923 9.923 0 01-5.77 8.994c-.556.255-.912.81-.912 1.42v1.301H36.79V32.95c0-.61-.355-1.165-.91-1.42a9.924 9.924 0 01-5.77-8.994zM40.955 40.77h-1.91a2.258 2.258 0 01-2.255-2.255v-1.139h6.42v1.139a2.258 2.258 0 01-2.255 2.255zM40 6.394c.863 0 1.563-.7 1.563-1.563V1.562a1.563 1.563 0 00-3.126 0v3.27c0 .862.7 1.562 1.563 1.562zM26.377 11.122c.305.305.705.457 1.104.457a1.563 1.563 0 001.105-2.667L26.275 6.6a1.563 1.563 0 00-2.21 2.21l2.312 2.312zM19.027 24.097h3.27a1.563 1.563 0 000-3.125h-3.27a1.563 1.563 0 000 3.125zM24.066 38.47c.305.305.704.457 1.104.457.4 0 .8-.152 1.105-.458l2.312-2.31a1.563 1.563 0 00-2.21-2.21l-2.312 2.31c-.61.61-.61 1.6 0 2.21zM53.623 33.948a1.563 1.563 0 00-2.21 2.21l2.312 2.311c.305.306.705.458 1.105.458s.8-.152 1.104-.458c.61-.61.61-1.6 0-2.21l-2.311-2.31zM57.704 24.097h3.268a1.563 1.563 0 000-3.125h-3.268a1.563 1.563 0 000 3.125zM52.518 11.579c.4 0 .8-.153 1.105-.458l2.312-2.311a1.563 1.563 0 00-2.21-2.21l-2.312 2.311a1.563 1.563 0 001.105 2.668z"/></g><defs><clipPath id="clip0"><path fill="#fff" d="M0 0h80v80H0z"/></clipPath></defs></svg>