<svg width="60" height="60" fill="none" xmlns="http://www.w3.org/2000/svg"><path d="M1.04 31.865c2.113 0 3.114.63 4.272 1.36 1.25.788 2.668 1.68 5.381 1.68 2.714 0 4.13-.892 5.38-1.68 1.16-.73 2.16-1.36 4.273-1.36 2.113 0 3.114.63 4.273 1.36 1.25.788 2.667 1.68 5.38 1.68 2.714 0 4.131-.892 5.381-1.68 1.159-.73 2.16-1.36 4.273-1.36 2.113 0 3.114.63 4.273 1.36 1.25.788 2.667 1.68 5.38 1.68 2.714 0 4.131-.892 5.381-1.68 1.16-.73 2.16-1.36 4.273-1.36a1.04 1.04 0 000-2.08c-2.714 0-4.13.893-5.38 1.68-1.16.73-2.16 1.36-4.273 1.36-1.883 0-2.872-.5-3.886-1.125.026-.086.042-.176.046-.267V16.048a2.571 2.571 0 012.567-2.578 1.04 1.04 0 00.003-2.08 4.655 4.655 0 00-4.65 4.658v1.334H36.24v-1.334a2.596 2.596 0 012.595-2.578 1.04 1.04 0 00-.004-2.08 4.673 4.673 0 00-4.67 4.658V31.28c.005.074.02.147.04.218-1.136.715-2.13 1.326-4.21 1.326-2.113 0-3.11-.63-4.268-1.36-1.227-.773-2.614-1.647-5.231-1.679-.735-.65-1.32-1.195-1.936-1.767-.3-.278-.614-.572-.966-.895a4.368 4.368 0 002.837 1.045 4.408 4.408 0 003.996-2.514 4.329 4.329 0 00.178-3.38 4.412 4.412 0 10-8.318 2.936 4.46 4.46 0 001.07 1.694c-.445-.407-.95-.863-1.55-1.393-1.599-1.416-3.19-2.845-4.67-4.18-.678-.612-1.452-.829-2.299-.644-.938.204-1.876.406-2.815.605-1.07.229-2.177.465-3.266.704a2.587 2.587 0 00-1.977 3.046 2.518 2.518 0 002.921 2.004c1.453-.272 2.94-.59 4.42-.946.107-.029.216-.047.326-.054a.695.695 0 01.074.09c.258.355.537.694.836 1.016a.25.25 0 01.065.2.254.254 0 01-.108.185l-4.354 3.084c-.971-.47-2.177-.837-3.915-.837a1.04 1.04 0 000 2.08zm42.347-5.905H36.24v-1.95h7.148v1.95zm-7.148 4.424V28.04h7.148v2.488c-.91-.424-2.122-.742-3.742-.742a9.15 9.15 0 00-3.406.6zm7.148-10.923v2.47H36.24v-2.47h7.148zm-25.061 3.27c.27-.555.75-.98 1.335-1.177 1.245-.435 2.528.183 2.986 1.436a2.267 2.267 0 01-.1 1.768 2.328 2.328 0 01-4.305-.24 2.318 2.318 0 01.084-1.787zm-7.816 6.503a2.34 2.34 0 00.379-3.482 8.917 8.917 0 01-.678-.819c-.893-1.26-2.12-.964-2.582-.853a86.983 86.983 0 01-4.316.923.444.444 0 01-.497-.354.504.504 0 01.382-.621 553.98 553.98 0 013.253-.701 1009.7 1009.7 0 002.824-.607c.14-.031.25-.037.465.157a672.13 672.13 0 004.684 4.192c1.189 1.052 2 1.807 2.717 2.473l.618.574c-1.175.33-2.017.86-2.793 1.35-1.159.73-2.16 1.36-4.272 1.36-1.805 0-2.798-.46-3.771-1.049l3.588-2.543zM1.04 38.706c2.113 0 3.114.63 4.272 1.36 1.25.788 2.668 1.68 5.381 1.68 2.714 0 4.13-.892 5.38-1.68 1.16-.73 2.16-1.36 4.273-1.36 2.113 0 3.114.63 4.273 1.36 1.25.788 2.667 1.68 5.38 1.68 2.714 0 4.131-.892 5.381-1.68 1.159-.73 2.16-1.36 4.273-1.36 2.113 0 3.114.63 4.273 1.36 1.25.788 2.667 1.68 5.38 1.68 2.714 0 4.131-.892 5.381-1.68 1.16-.73 2.16-1.36 4.273-1.36a1.04 1.04 0 000-2.08c-2.714 0-4.13.893-5.38 1.68-1.16.73-2.16 1.36-4.274 1.36-2.113 0-3.114-.63-4.273-1.359-1.25-.787-2.667-1.68-5.38-1.68s-4.131.893-5.381 1.68c-1.16.73-2.16 1.36-4.273 1.36-2.113 0-3.114-.63-4.273-1.36-1.25-.787-2.667-1.68-5.38-1.68-2.714 0-4.131.893-5.382 1.68-1.158.73-2.158 1.36-4.271 1.36s-3.113-.63-4.273-1.36c-1.25-.787-2.667-1.68-5.38-1.68a1.04 1.04 0 000 2.08v-.001zM1.04 45.547c2.113 0 3.114.63 4.272 1.36 1.25.788 2.668 1.68 5.381 1.68 2.714 0 4.13-.892 5.38-1.68 1.16-.73 2.16-1.36 4.273-1.36 2.113 0 3.114.63 4.273 1.36 1.25.788 2.667 1.68 5.38 1.68 2.714 0 4.131-.892 5.381-1.68 1.159-.73 2.16-1.36 4.273-1.36 2.113 0 3.114.63 4.273 1.36 1.25.788 2.667 1.68 5.38 1.68 2.714 0 4.131-.892 5.381-1.68 1.16-.73 2.16-1.36 4.273-1.36a1.04 1.04 0 000-2.08c-2.714 0-4.13.893-5.38 1.68-1.16.73-2.16 1.362-4.274 1.362-2.113 0-3.114-.63-4.273-1.361-1.25-.787-2.667-1.68-5.38-1.68s-4.131.893-5.381 1.68c-1.16.73-2.16 1.36-4.273 1.36-2.113 0-3.114-.63-4.272-1.36-1.25-.788-2.668-1.681-5.381-1.681-2.714 0-4.131.893-5.38 1.68-1.16.73-2.16 1.36-4.273 1.36-2.113 0-3.114-.63-4.273-1.36-1.25-.787-2.667-1.68-5.38-1.68a1.04 1.04 0 000 2.08z" fill="#0072CE"/></svg>