<svg width="153" height="29" fill="none" xmlns="http://www.w3.org/2000/svg"><path d="M32.995 5.85v8.491h2.718V6.487h7.505v-2.34h-8.46c-.97 0-1.763.734-1.763 1.703zM63.721 4.08c-.955 0-1.528.632-1.967 1.483l-4.495 8.711h3.04l.896-1.748h6.506l.913 1.748h3.026L66.38 4.081H63.72zm-1.454 6.33l2.146-4.185 2.182 4.178-4.328.007zM88.934 9.862V8.443c0-1.454.28-1.925 1.412-1.925h7.771c-.31-2.144-1.72-2.452-3.806-2.452h-3.672c-2.586 0-4.51.485-4.51 3.85v2.642c0 3.716 2.157 3.863 4.553 3.863h3.334c1.292 0 2.307 0 3.234-.75.556-.47.777-1.092.879-1.695h-7.742c-1.262 0-1.453-.587-1.453-2.114zM82.955 9.213v-.102c1.351-.22 1.6-1.057 1.6-2.349 0-2.233-1.188-2.615-3.216-2.615h-8.543V14.34h8.6c2.16 0 3.322-.339 3.322-2.834 0-1.278-.252-2.189-1.763-2.293zM80.986 6.38c.764 0 .852.264.852.866 0 .823-.235.983-1.175.983h-5.148V6.38h5.471zm-.235 5.727h-5.236v-1.996h5.295c.88 0 1.19.133 1.19.97-.001.822-.366 1.026-1.249 1.026zM99.279 6.511h4.536v7.83h2.719v-7.83h4.671V4.147H99.279v2.364zM120.768 4.147h-8.296v10.194h2.718v-2.615h5.578c2.849 0 3.481-.971 3.481-3.834 0-2.673-.954-3.745-3.481-3.745zm-.329 5.214h-5.248V6.512h5.248c1.072 0 1.019.322 1.019 1.38 0 1.308.053 1.469-1.019 1.469zM133.625 4.066h-3.38c-2.335 0-4.406.589-4.406 3.731v2.88c0 3.142 2.056 3.744 4.406 3.744h3.38c2.349 0 4.421-.602 4.421-3.744v-2.88c0-3.143-2.174-3.73-4.421-3.73zm1.63 6.23c0 1.514-.646 1.675-1.63 1.675h-3.38c-.984 0-1.616-.16-1.616-1.674v-2.12c0-1.513.632-1.659 1.616-1.659h3.38c.91 0 1.63.147 1.63 1.66v2.119zM149.691 4.147c-1.067 0-1.622.661-2.37 1.424l-5.262 5.42h-.028l.075-6.844h-2.705v10.194h1.725c1.065 0 1.606-.662 2.354-1.426l5.275-5.433h.028l-.072 6.86h2.704V4.146h-1.724zM46.725 4.146l-.03.002a1.767 1.767 0 00-1.737 1.692l-.001.074.001.075v5.385c0 .822-.383 1.087-.956 1.087h-.573v1.88h2.232c1.367 0 2.013-1.218 2.013-2.555V6.512h5.876v7.83h2.718V4.147h-9.517l-.026-.002zM148.751 1.198h-6.686V2.77h6.686V1.198z" fill="#0A72B4"/><path d="M22.782 12.817L15.64 9.933v14.32h7.145l-.003-11.436zM2.37 14.056v10.197h10.208V9.93L2.37 14.056z" fill="#DC2D27"/><path d="M2.37 3.836v6.918L14.108 6.01l8.676 3.506v-5.68H2.37zM37.066 23.992H35.01c-.422 0-.759-.055-1.009-.163a1.044 1.044 0 01-.545-.527c-.112-.242-.172-.571-.178-.987v-1.366c.006-.416.065-.749.178-.998.114-.25.296-.431.549-.546.252-.116.587-.173 1.005-.173h2.056c1.136 0 1.704.447 1.704 1.341h-.487a.915.915 0 00-.112-.467c-.074-.128-.202-.226-.382-.296-.18-.07-.419-.104-.717-.104h-2.056c-.325 0-.576.037-.755.112a.688.688 0 00-.382.38c-.076.178-.114.43-.114.753v1.365c0 .238.021.433.065.586a.777.777 0 00.21.364c.096.09.224.155.381.194.157.04.355.06.595.06h2.056c.439 0 .75-.068.935-.205.183-.138.275-.358.275-.66h.487c0 .299-.055.546-.169.744-.112.197-.295.346-.547.446-.252.096-.581.147-.987.147zM42.52 23.979h-.54l2.435-4.694h.745l2.434 4.694h-.567l-.602-1.176h-3.3l-.604 1.176zm.868-1.65h2.787l-1.392-2.706-1.395 2.706zM50.874 23.979v-4.694h.487v2.03h4.166v-2.03h.486v4.694h-.486V21.8H51.36v2.179h-.487zM59.47 23.979v-4.694h.487v1.934h.784l3.191-1.934h.826l-3.504 2.138 3.476 2.556h-.837l-3.132-2.285h-.804v2.285h-.488zM67.766 19.284h5.059v.474H70.53v4.22h-.486v-4.22h-2.279v-.474zM76.104 21.761h2.151v.5h-2.15v-.5zM81.9 23.979v-4.694h5.14v4.694h-.487V19.77h-4.165v4.208H81.9zM90.564 23.979v-4.694h4.147v.474h-3.66v1.555h3.576v.474h-3.575v1.718h3.672v.474h-4.16v-.001zM98.063 19.284h5.058v.474h-2.293v4.22h-.487v-4.22h-2.279v-.474zM106.443 23.979v-4.694h4.145v.474h-3.659v1.555h3.577v.474h-3.577v1.718h3.673v.474h-4.159v-.001zM114.212 23.97v-4.686h3.166c.394 0 .709.048.95.143a.99.99 0 01.529.462c.113.213.17.494.17.844 0 .348-.054.616-.164.804a.863.863 0 01-.515.391c-.233.074-.555.11-.964.11h-2.685v1.934h-.487v-.001zm.487-2.406h2.827c.265 0 .469-.021.612-.063a.489.489 0 00.308-.24c.062-.118.093-.293.093-.528 0-.36-.074-.612-.22-.757-.149-.145-.397-.218-.746-.218h-2.874v1.806zM126.9 19.284v.474h-3.93v1.468h2.685c.398 0 .717.044.955.13.24.086.414.23.523.431.11.202.164.477.164.826 0 .25-.024.46-.073.63a.922.922 0 01-.244.417c-.113.11-.264.19-.451.24a2.675 2.675 0 01-.699.077h-3.347v-4.694h4.417v.001zm-3.93 4.221h2.875c.241 0 .43-.024.567-.07a.514.514 0 00.302-.263c.064-.127.096-.309.096-.546 0-.238-.032-.423-.095-.556a.558.558 0 00-.315-.285c-.147-.057-.348-.086-.603-.086h-2.826v1.806h-.001zM135.006 19.278h.583l-2.016 3.349a9.533 9.533 0 01-.457.71c-.125.17-.244.302-.36.394a.985.985 0 01-.376.192 2 2 0 01-.511.055h-.164v-.473h.171c.17 0 .305-.016.405-.048a.607.607 0 00.255-.156c.07-.074.152-.188.246-.344l-2.388-3.679h.562l2.103 3.3 1.947-3.3zM138.855 23.97v-4.686h3.166c.393 0 .709.048.949.143a.99.99 0 01.529.462c.114.213.17.494.17.844 0 .348-.054.616-.164.804a.864.864 0 01-.514.391c-.235.074-.556.11-.965.11h-2.684v1.934h-.487v-.001zm.487-2.406h2.825c.267 0 .469-.021.612-.063a.488.488 0 00.309-.24c.062-.117.093-.293.093-.528 0-.36-.073-.612-.221-.757-.147-.145-.396-.218-.745-.218h-2.874v1.806h.001zM151.19 19.284v.474h-3.538v4.22h-.486v-4.694h4.024z" fill="#0A72B4"/></svg>