<svg width="60" height="60" fill="none" xmlns="http://www.w3.org/2000/svg"><path d="M32.517 10.71V7.355h-5.033v3.355H24.13v5.032h3.355v3.355h5.032v-3.355h3.355V10.71h-3.355zm1.677 3.355h-3.355v3.354h-1.677v-3.354h-3.355v-1.678h3.355V9.032h1.677v3.355h3.355v1.678z" fill="#0072CE"/><path d="M56 30.839v-3.355a3.358 3.358 0 00-3.355-3.355H41.74v-8.387h-2.873a9.197 9.197 0 00.357-2.516C39.225 8.139 35.086 4 30 4c-5.087 0-9.226 4.139-9.226 9.226 0 .873.13 1.715.357 2.516h-2.873v8.387H7.354A3.358 3.358 0 004 27.484v3.355h2.516v23.484H4V56h52v-1.677h-2.517V30.839H56zM18.258 47.613H16.58v-3.355h1.678v3.355zm0-8.387H16.58V35.87h1.678v3.355zm0-5.032H9.87v6.71h8.387v1.677H9.87v6.71h8.387v5.032H8.193V30.839h10.065v3.355zm-3.355 1.677v3.355h-3.355V35.87h3.355zm0 8.387v3.355h-3.355v-3.355h3.355zm3.355-15.097H5.677v-1.677a1.68 1.68 0 011.677-1.678h10.904v3.355zm23.484 6.71h1.677v3.355h-1.677V35.87zm0 8.387h1.677v3.355h-1.677v-3.355zM30 5.678c4.162 0 7.548 3.386 7.548 7.548 0 4.161-3.386 7.548-7.548 7.548-4.163 0-7.549-3.387-7.549-7.548 0-4.162 3.386-7.549 7.549-7.549zm3.354 16.774h3.355v3.354h-3.355v-3.354zm-1.677 0v3.354h-3.355v-3.354h3.355zm-2.516 24.322h-1.678v1.678h1.678v5.87h-4.194v-12.58a.84.84 0 01.839-.839h3.355v5.871zm5.87 7.549h-4.193v-5.871h1.678v-1.678h-1.678v-5.87h3.355a.84.84 0 01.839.838v12.58zm5.033 0H36.71V41.742a2.52 2.52 0 00-2.516-2.516h-8.387a2.52 2.52 0 00-2.516 2.516v12.58h-3.355V17.42h1.857a9.279 9.279 0 002.92 3.355h-3.1v6.71h16.775v-6.71h-3.1a9.279 9.279 0 002.92-3.355h1.857v36.904zm-13.42-31.871v3.354H23.29v-3.354h3.355zm25.162 31.87H41.742V49.29h8.387v-6.71h-8.387v-1.677h8.387v-6.71h-8.387V30.84h10.064v23.484zm-6.71-6.709v-3.355h3.355v3.355h-3.355zm0-8.387V35.87h3.355v3.355h-3.355zM41.742 29.16v-3.355h10.903a1.68 1.68 0 011.677 1.678v1.677h-12.58z" fill="#0072CE"/><path d="M21.612 29.161v6.71h16.774v-6.71H21.612zm5.033 5.032H23.29V30.84h3.355v3.354zm5.032 0h-3.355V30.84h3.355v3.354zm5.032 0h-3.355V30.84h3.355v3.354z" fill="#0072CE"/></svg>