<svg width="55" height="55" fill="none" xmlns="http://www.w3.org/2000/svg"><path d="M55 27.965v-4.467l-7.246-9.068H32.097l-2.986-3.558v-1.92h9.306V0H25.89v10.872l-2.986 3.558H7.246L0 23.498v4.467h2.972v23.812H0V55h55v-3.223h-2.972V27.965H55zM29.111 3.223h6.084v2.506H29.11V3.223zM3.223 24.627l5.573-6.974h11.403l-5.949 7.09H3.223v-.116zm22.666 27.15h-3.653V40.57h3.653v11.207zm6.875 0H29.11V40.57h3.653v11.207zm16.041 0H35.986v-14.43H19.014v14.43H6.194V27.965h9.56l11.746-14 11.747 14h9.558v23.812zm2.972-27.034H40.75l-5.949-7.09h11.403l5.573 6.974v.116z" fill="#fff"/><path d="M14.144 33.229h-3.222v4.583h3.222V33.23zM14.215 42.396h-3.223v4.584h3.223v-4.584zM44.078 33.229h-3.222v4.583h3.222V33.23zM44.008 42.396h-3.223v4.584h3.223v-4.584zM27.5 22.451a5.055 5.055 0 00-5.049 5.049 5.055 5.055 0 005.049 5.049 5.055 5.055 0 005.049-5.049 5.055 5.055 0 00-5.049-5.049zm0 6.875a1.828 1.828 0 01-1.826-1.826c0-1.007.819-1.826 1.826-1.826 1.007 0 1.826.819 1.826 1.826 0 1.007-.819 1.826-1.826 1.826z" fill="#fff"/></svg>