<svg width="42" height="42" fill="none" xmlns="http://www.w3.org/2000/svg"><g clip-path="url(#clip0)" fill="#fff"><path d="M40.561 39.48h-3.083V23.031h2.055a2.057 2.057 0 001.455-3.51L22.485 1.019A2.052 2.052 0 0021.03.417c-.527 0-1.053.201-1.454.603L13.835 6.76V4.529c0-1.136-.92-2.056-2.056-2.056H9.723c-1.135 0-2.056.92-2.056 2.056v8.4l-6.593 6.593a2.055 2.055 0 001.454 3.51h2.055v16.447H1.5a1.027 1.027 0 100 2.056H40.56a1.027 1.027 0 100-2.056zM9.723 4.528h2.056v4.288l-2.056 2.056V4.529zm25.699 34.95H6.639V20.976H2.528L21.03 2.473l18.503 18.503h-4.111V39.48z"/><path d="M28.527 18.193L12.08 34.64l1.454 1.453 16.447-16.446-1.454-1.454zM15.891 17.891a4.116 4.116 0 00-4.112 4.112 4.117 4.117 0 004.112 4.112 4.116 4.116 0 004.112-4.112 4.116 4.116 0 00-4.112-4.112zm0 6.168a2.058 2.058 0 01-2.056-2.056c0-1.133.922-2.056 2.056-2.056s2.056.923 2.056 2.056a2.058 2.058 0 01-2.056 2.056zM26.17 28.17a4.116 4.116 0 00-4.112 4.113 4.116 4.116 0 004.112 4.111 4.116 4.116 0 004.112-4.111 4.116 4.116 0 00-4.112-4.112zm0 6.169a2.058 2.058 0 01-2.056-2.056c0-1.134.922-2.056 2.056-2.056s2.056.922 2.056 2.056a2.058 2.058 0 01-2.056 2.056z"/></g><defs><clipPath id="clip0"><path fill="#fff" transform="translate(.472 .417)" d="M0 0h41.118v41.118H0z"/></clipPath></defs></svg>