<svg width="80" height="81" fill="none" xmlns="http://www.w3.org/2000/svg"><g clip-path="url(#clip0)" fill="#0072CE"><path d="M71.25 39.435H50.937V5.685A4.693 4.693 0 0046.25.997H8.75a4.693 4.693 0 00-4.688 4.688v70.624a4.693 4.693 0 004.688 4.688h37.5a4.693 4.693 0 004.687-4.688V55.06H71.25a4.693 4.693 0 004.687-4.687v-6.25a4.693 4.693 0 00-4.687-4.687zM47.812 76.309c0 .862-.7 1.563-1.562 1.563H8.75a1.564 1.564 0 01-1.563-1.563V5.685c0-.862.701-1.563 1.563-1.563h37.5c.861 0 1.562.701 1.562 1.563v33.75h-8.619a14.117 14.117 0 00-11.693-6.25c-7.754 0-14.063 6.308-14.063 14.062S19.747 61.31 27.5 61.31c4.697 0 9.096-2.373 11.693-6.25h8.62v21.25zM21.274 50.851a4.694 4.694 0 004.663 4.209h9.214a10.978 10.978 0 01-7.65 3.124c-6.032 0-10.938-4.906-10.938-10.937S21.469 36.309 27.5 36.309c2.887 0 5.63 1.153 7.651 3.126h-9.213a4.694 4.694 0 00-4.688 4.687v6.25c0 .162.009.321.024.479zm51.538-.479c0 .862-.7 1.563-1.562 1.563H25.937a1.564 1.564 0 01-1.562-1.563v-6.25c0-.862.7-1.562 1.563-1.562H71.25c.861 0 1.562.7 1.562 1.562v6.25z"/><path d="M40 7.247H15a4.693 4.693 0 00-4.687 4.688v6.25A4.693 4.693 0 0015 22.872h25a4.693 4.693 0 004.688-4.687v-6.25A4.693 4.693 0 0040 7.247zm1.563 10.938c0 .861-.701 1.562-1.563 1.562H15c-.861 0-1.562-.7-1.562-1.562v-6.25c0-.862.7-1.563 1.562-1.563h25c.862 0 1.563.701 1.563 1.563v6.25zM22.345 71.623h-10.47a1.563 1.563 0 000 3.125h10.47a1.562 1.562 0 100-3.125zM26.963 71.623h-.074a1.562 1.562 0 100 3.125h.074a1.563 1.563 0 000-3.125z"/><path d="M36.973 13.497H22.645a1.562 1.562 0 100 3.125h14.328a1.563 1.563 0 000-3.125zM18.1 13.497h-.073a1.563 1.563 0 000 3.125h.074a1.562 1.562 0 100-3.125z"/></g><defs><clipPath id="clip0"><path fill="#fff" transform="translate(0 .997)" d="M0 0h80v80H0z"/></clipPath></defs></svg>