<svg width="39" height="39" fill="none" xmlns="http://www.w3.org/2000/svg"><path d="M39 12.568H27.31L25.023 0H13.976l-2.285 12.568H0v6.856h3.504v5.865h5.189L5.492 39h28.016l-3.2-13.71h5.188v-5.866H39v-6.856zM15.883 2.285h2.474v3.428h2.286V2.285h2.474l1.87 10.283h-4.344V9.141h-2.286v3.427h-4.343l1.87-10.283zM5.79 23.004v-3.58h4.273l-.836 3.58H5.79zm14.854 13.71v-3.427h-2.286v3.428H8.372l4.037-17.291h5.948v3.58h2.286v-3.58h5.948l4.037 17.29h-9.985zm12.568-13.71h-3.437l-.836-3.58h4.273v3.58zm3.504-5.865H2.285v-2.285h34.43v2.285z" fill="#B7312C"/><path d="M18.357 25.29h2.286v5.712h-2.286v-5.713z" fill="#B7312C"/></svg>