<svg width="39" height="39" fill="none" xmlns="http://www.w3.org/2000/svg"><g clip-path="url(#clip0)" fill="#B7312C"><path d="M19.5 0C11.94 0 5.79 6.15 5.79 13.71c0 2.555.707 5.048 2.046 7.21l10.883 17.54c.209.336.576.54.971.54h.01c.398-.003.766-.214.97-.555l10.607-17.71a13.695 13.695 0 001.934-7.024C33.21 6.15 27.06 0 19.5 0zm9.816 19.562l-9.643 16.1-9.895-15.945a11.412 11.412 0 01-1.719-6.006c0-6.3 5.14-11.441 11.441-11.441 6.3 0 11.433 5.14 11.433 11.44 0 2.067-.564 4.09-1.617 5.852z"/><path d="M19.5 6.855a6.863 6.863 0 00-6.855 6.856 6.847 6.847 0 006.855 6.855c3.877 0 6.855-3.14 6.855-6.855A6.863 6.863 0 0019.5 6.855zm0 11.442a4.589 4.589 0 01-4.585-4.586A4.602 4.602 0 0119.5 9.125c2.52 0 4.578 2.066 4.578 4.586 0 2.49-2.005 4.586-4.578 4.586z"/></g><defs><clipPath id="clip0"><path fill="#fff" d="M0 0h39v39H0z"/></clipPath></defs></svg>