<svg width="32" height="32" fill="none" xmlns="http://www.w3.org/2000/svg"><circle cx="16" cy="16" r="14.5" fill="#FBFBFB" stroke="#0072CE" stroke-width="3"/><path d="M12.026 10.341c-.3-1.095-1.113-.975-1.67-.465-1.37 1.366-3.155 4.232-2.013 8.359.957 3.496 4.937 5.732 4.937 5.732H8.64s-2.396-2.896-2.61-6.303c-.271-4.306 1.328-7.022 3.184-8.793 1.742-1.665 3.398-2.16 3.398-2.16L16 18.68l3.388-11.97s1.656.495 3.398 2.16c1.856 1.77 3.455 4.487 3.184 8.793-.214 3.406-2.61 6.303-2.61 6.303h-4.64s3.98-2.236 4.937-5.732c1.142-4.127-.643-6.993-2.013-8.359-.557-.51-1.371-.63-1.67.465L16 23.855 12.027 10.34z" fill="#0072CE"/></svg>