<svg width="49" height="39" fill="none" xmlns="http://www.w3.org/2000/svg"><path d="M16.195 10.143c-.608-2.094-2.258-1.865-3.386-.889-2.778 2.611-6.396 8.092-4.08 15.984C10.668 31.924 18.737 36.2 18.737 36.2H9.33s-4.856-5.538-5.29-12.052c-.55-8.236 2.692-13.43 6.454-16.816C14.025 4.147 17.382 3.2 17.382 3.2l6.868 22.894L31.118 3.2s3.357.947 6.888 4.132c3.762 3.386 7.004 8.58 6.454 16.816-.434 6.514-5.29 12.052-5.29 12.052h-9.407s8.068-4.276 10.008-10.962c2.316-7.89-1.302-13.372-4.08-15.984-1.13-.976-2.779-1.205-3.386.89l-8.054 25.843s-5.97-19.164-8.055-25.844h-.001z" fill="#B7312C"/></svg>