<svg width="20" height="16" fill="none" xmlns="http://www.w3.org/2000/svg"><path fill-rule="evenodd" clip-rule="evenodd" d="M16.575 2.152C14.878.66 13.265.198 13.265.198L10.01 11.012h-.028L6.7.198S5.087.646 3.39 2.152C1.583 3.753.025 6.21.289 10.103c.209 3.08 2.545 5.699 2.545 5.699l4.52-.014s-3.88-2.008-4.812-5.17c-1.112-3.73.626-6.322 1.961-7.557.543-.461 1.335-.57 1.627.42l3.867 12.212h.014s2.85-9.05 3.866-12.211c.306-.99 1.099-.882 1.627-.42 1.335 1.234 3.074 3.825 1.961 7.557-.932 3.161-4.812 5.17-4.812 5.17l4.52.013s2.35-2.632 2.545-5.699c.236-3.894-1.321-6.35-3.143-7.95z" fill="#fff"/></svg>