<svg width="60" height="60" fill="none" xmlns="http://www.w3.org/2000/svg"><path d="M7.92 51.203h-.022a.898.898 0 100 1.797h.022a.899.899 0 000-1.797zM52.102 51.203h-.02a.898.898 0 000 1.797h.02a.899.899 0 000-1.797zM49.5 51.203h-.632V37.727a.899.899 0 00-.898-.899h-2.695V7.898A.898.898 0 0044.376 7H26.407a.898.898 0 00-.898.898V18.86H12.032a.898.898 0 00-.898.899v31.445h-.632a.899.899 0 000 1.797H49.5a.898.898 0 000-1.797zM27.306 8.797h16.172v1.932H39.79a.898.898 0 100 1.796h3.687v1.932h-6.29a.898.898 0 000 1.797h6.29v1.932h-6.29a.898.898 0 100 1.797h6.29v1.931h-6.29a.898.898 0 100 1.797h6.29v1.932h-6.29a.898.898 0 100 1.796h6.29v1.932h-6.29a.898.898 0 100 1.797h6.29V33.1h-6.29a.898.898 0 100 1.797h6.29v1.931h-8.984v-17.07a.899.899 0 00-.9-.898h-6.288V8.796zm-1.797 28.93v9.883H22.72a.899.899 0 000 1.797h2.789v1.796H12.93V20.656h19.767v16.172h-6.29a.898.898 0 00-.898.899zm5.39.898v3.594c0 .991-.806 1.797-1.796 1.797-.991 0-1.797-.806-1.797-1.797v-3.594h3.593zm2.696 12.578h-6.29V45.33a3.585 3.585 0 004.492-.737c.47.53 1.092.924 1.798 1.106v5.504zm-.899-8.984v-3.594h3.594v3.594c0 .99-.806 1.797-1.797 1.797-.99 0-1.797-.806-1.797-1.797zm6.29 8.984h-3.594V45.7a3.598 3.598 0 001.796-1.107 3.6 3.6 0 001.797 1.107v5.504zm-.9-8.984v-3.594h3.595v3.594c0 .991-.806 1.797-1.797 1.797-.99 0-1.797-.806-1.797-1.797zm8.986 8.984h-6.29V45.7a3.599 3.599 0 001.797-1.107 3.585 3.585 0 004.493.737v5.874zm0-8.984c0 .99-.807 1.797-1.797 1.797-.991 0-1.797-.806-1.797-1.797v-3.594H47.072v3.594z" fill="#0072CE"/><path d="M37.187 12.525h.022a.898.898 0 100-1.796h-.022a.898.898 0 100 1.796zM17.422 22.453h-1.797a.898.898 0 00-.898.899v1.796c0 .497.402.899.898.899h1.797a.898.898 0 00.899-.899v-1.796a.899.899 0 00-.899-.899zM17.422 28.741h-1.797a.898.898 0 00-.898.899v1.797c0 .496.402.898.898.898h1.797a.899.899 0 00.899-.898V29.64a.898.898 0 00-.899-.899zM17.422 35.031h-1.797a.898.898 0 00-.898.898v1.797c0 .496.402.899.898.899h1.797a.898.898 0 00.899-.899V35.93a.899.899 0 00-.899-.898zM17.422 41.32h-1.797a.898.898 0 00-.898.899v1.796c0 .497.402.899.898.899h1.797a.898.898 0 00.899-.899V42.22a.898.898 0 00-.899-.899zM23.712 22.453h-1.797a.899.899 0 00-.898.899v1.796c0 .497.402.899.898.899h1.797a.898.898 0 00.898-.899v-1.796a.898.898 0 00-.898-.899zM23.712 28.741h-1.797a.898.898 0 00-.898.899v1.797c0 .496.402.898.898.898h1.797a.898.898 0 00.898-.898V29.64a.898.898 0 00-.898-.899zM30 22.453h-1.797a.898.898 0 00-.899.899v1.796c0 .497.402.899.899.899H30a.899.899 0 00.898-.899v-1.796a.899.899 0 00-.898-.899zM20.139 47.61h-.022a.899.899 0 000 1.797h.022a.899.899 0 000-1.797z" fill="#0072CE"/></svg>