<svg width="60" height="60" fill="none" xmlns="http://www.w3.org/2000/svg"><path d="M54 33.231c0-3.804-2.9-14.29-5.642-20.4-.718-1.6-1.896-2.518-3.231-2.518-1.428 0-2.705 1.053-3.505 2.888a65.413 65.413 0 00-1.736 4.489c-1.267-4.261-5.219-7.378-9.886-7.378-4.657 0-8.603 3.104-9.878 7.352-.617-1.755-1.263-3.413-1.9-4.834-.718-1.6-1.896-2.517-3.232-2.517-1.428 0-2.705 1.052-3.505 2.888C8.82 19.319 6 29.615 6 33.23c0 4.691 3.442 8.43 7.994 8.885v5.697H9.71a.938.938 0 000 1.874H50.29a.938.938 0 000-1.875h-4.285v-5.698C50.492 41.644 54 37.84 54 33.23zM30 12.187c4.653 0 8.438 3.786 8.438 8.438 0 4.336-3.288 7.918-7.5 8.385v-2.804l2.45-2.45a.937.937 0 10-1.326-1.326l-1.124 1.124v-2.929a.938.938 0 00-1.875 0v8.385c-4.213-.468-7.5-4.05-7.5-8.385 0-4.652 3.785-8.438 8.437-8.438zM14.932 25.3a.938.938 0 00-.938.938v4.608l-.878-.878a.938.938 0 00-1.326 1.326l2.204 2.204v6.729c-3.498-.446-6.119-3.358-6.119-6.996 0-3.078 2.584-12.98 5.33-19.281.48-1.103 1.148-1.762 1.785-1.762.556 0 1.125.527 1.521 1.41 2.821 6.287 5.477 16.39 5.477 19.633 0 3.573-2.67 6.533-6.119 6.993v-2.741l2.45-2.45a.938.938 0 00-1.326-1.326L15.87 34.83v-8.593a.938.938 0 00-.937-.938zm14.13 22.512H15.87v-5.698c4.486-.47 7.994-4.274 7.994-8.883 0-1.133-.257-2.858-.69-4.885a10.273 10.273 0 005.89 2.549v2.012a4.695 4.695 0 00-3.75 4.593 4.696 4.696 0 003.75 4.593v5.72zm.938-7.5a2.816 2.816 0 01-2.813-2.812A2.816 2.816 0 0130 34.687a2.816 2.816 0 012.813 2.813A2.816 2.816 0 0130 40.312zm14.13 7.5H30.938v-5.72a4.696 4.696 0 003.75-4.592 4.695 4.695 0 00-3.75-4.593v-2.012a10.273 10.273 0 005.91-2.566c-.444 2.054-.71 3.793-.71 4.902 0 4.691 3.442 8.43 7.994 8.885v5.696zm1.876-7.588v-2.741l2.45-2.45a.938.938 0 00-1.326-1.326l-1.124 1.124v-8.593a.938.938 0 00-1.875 0v4.608l-.879-.878a.937.937 0 00-1.326 1.325l2.205 2.205v6.729c-3.498-.446-6.12-3.358-6.12-6.996 0-3.078 2.585-12.98 5.33-19.281.481-1.103 1.148-1.762 1.786-1.762.556 0 1.124.527 1.52 1.41 2.822 6.287 5.478 16.39 5.478 19.633 0 3.573-2.67 6.532-6.12 6.993zM6.982 47.812h-.045a.938.938 0 000 1.875h.045a.938.938 0 000-1.875zM53.063 47.812h-.045a.938.938 0 000 1.875h.045a.938.938 0 000-1.875z" fill="#0072CE"/><path d="M34.281 19.604a.94.94 0 00.938-.937.94.94 0 00-.938-.938.94.94 0 00-.937.938.94.94 0 00.937.937zM14.387 17.728a.94.94 0 00-.937.938.94.94 0 00.938.937.94.94 0 00.937-.937.94.94 0 00-.938-.938zM42.161 24.115a.94.94 0 00-.937.937.94.94 0 00.938.938.94.94 0 00.937-.938.94.94 0 00-.938-.937zM28.774 16.733a.94.94 0 00.937-.937.94.94 0 00-.937-.938.94.94 0 00-.938.938.94.94 0 00.938.937zM24.993 21.83a.94.94 0 00.938-.938.94.94 0 00-.938-.937.94.94 0 00-.938.937.94.94 0 00.938.938zM48.606 28.978a.94.94 0 00-.937.937c0 .517.42.938.937.938a.94.94 0 00.938-.938.94.94 0 00-.938-.937zM18.84 30.208a.94.94 0 00.938-.937.94.94 0 00-.937-.938.94.94 0 00-.938.938.94.94 0 00.938.937zM46.498 19.602a.94.94 0 00-.938.938c0 .516.421.937.938.937a.94.94 0 00.937-.938.94.94 0 00-.937-.937z" fill="#0072CE"/></svg>