<svg width="70" height="70" fill="none" xmlns="http://www.w3.org/2000/svg"><path d="M56.452 46.233C64.017 45.653 70 39.324 70 31.613c0-4.703-2.19-9.005-5.927-11.77a11.823 11.823 0 003.104-7.988C67.177 5.318 61.86 0 55.323 0a11.832 11.832 0 00-10.164 5.775C43.084 2.322 39.313 0 35 0c-4.313 0-8.084 2.322-10.159 5.775A11.832 11.832 0 0014.677 0C8.14 0 2.823 5.318 2.823 11.855c0 2.975 1.116 5.814 3.104 7.988A14.543 14.543 0 000 31.613c0 7.711 5.983 14.04 13.548 14.62v21.509H0V70h70v-2.258H56.452v-21.51zm-20.323 0a14.616 14.616 0 009.04-4.061 14.666 14.666 0 009.025 4.057v21.513H36.129v-21.51zm9.031-28.291c.409.68.882 1.32 1.42 1.907-.485.366-.946.778-1.394 1.215-.45-.432-.926-.843-1.436-1.22a11.93 11.93 0 001.41-1.902zm9.034 26.035a12.422 12.422 0 01-7.529-3.479c.027-.036.045-.073.071-.11a14.58 14.58 0 002.941-8.775c0-.542-.036-1.077-.093-1.607l4.61 2.305v11.666zm1.129-41.719c5.291 0 9.596 4.305 9.596 9.597a9.591 9.591 0 01-3.368 7.292l-1.192 1.018 1.343.808c3.782 2.274 6.04 6.251 6.04 10.64 0 6.467-4.97 11.79-11.29 12.362V32.31l6.15-3.076-1.011-2.02-5.14 2.571v-14.41l3.892-1.947-1.01-2.02-4.01 2.006-4.012-2.005-1.01 2.02 3.893 1.945v14.411l-5.14-2.57-.043.083a14.449 14.449 0 00-2.337-4.548c.708-.7 1.468-1.296 2.268-1.78l1.342-.806-1.19-1.018a9.639 9.639 0 01-2.743-3.888v-.014c.327-1.09.502-2.228.502-3.39 0-1.181-.179-2.32-.502-3.396a9.587 9.587 0 018.972-6.2zM35 2.258c5.292 0 9.597 4.305 9.597 9.597a9.591 9.591 0 01-3.368 7.292l-1.192 1.018 1.342.808c3.782 2.274 6.04 6.251 6.04 10.64 0 6.467-4.97 11.79-11.29 12.362V32.31l6.15-3.076-1.01-2.02-5.14 2.571v-14.41l3.892-1.947-1.01-2.02L35 13.415l-4.012-2.005-1.01 2.02 3.893 1.945v14.411l-5.14-2.57-1.011 2.02 6.151 3.075v11.664c-6.32-.573-11.29-5.895-11.29-12.362 0-4.389 2.258-8.366 6.04-10.64l1.342-.808-1.192-1.018a9.591 9.591 0 01-3.368-7.292c0-5.292 4.305-9.597 9.597-9.597zm-11.665 38.24a12.428 12.428 0 01-7.529 3.479V32.31l4.61-2.305c-.057.53-.093 1.065-.093 1.607a14.58 14.58 0 002.94 8.776c.027.036.045.074.072.11zm.086-20.648a11.918 11.918 0 001.419-1.909c.405.675.873 1.315 1.41 1.902-.51.377-.985.789-1.436 1.22a15.055 15.055 0 00-1.393-1.213zM2.258 31.612c0-4.389 2.258-8.366 6.04-10.64l1.343-.808-1.192-1.018a9.591 9.591 0 01-3.368-7.292c0-5.292 4.305-9.597 9.596-9.597a9.582 9.582 0 018.97 6.2 11.798 11.798 0 00-.502 3.397c0 1.16.175 2.297.5 3.385.002.005 0 .013.003.019a9.632 9.632 0 01-2.743 3.888l-1.19 1.018 1.341.807c.8.482 1.56 1.08 2.269 1.78a14.411 14.411 0 00-2.337 4.547l-.042-.082-5.14 2.57V15.374l3.892-1.946-1.01-2.02-4.01 2.006-4.012-2.005-1.01 2.02 3.892 1.945v14.411l-5.14-2.57-1.01 2.02 6.15 3.075v11.664c-6.32-.573-11.29-5.895-11.29-12.362zm13.549 14.616a14.654 14.654 0 009.024-4.057 14.616 14.616 0 009.04 4.06v21.51H15.806V46.229z" fill="#0072CE"/></svg>