<svg width="55" height="55" fill="none" xmlns="http://www.w3.org/2000/svg"><path d="M55 22.565V0H32.435v22.565h10.428v29.212H27.346a8.343 8.343 0 001.606-3.45h9.157v-8.853c0-5.17-4.206-9.378-9.378-9.378h-3.794l-7.1-10.585H0v3.223h16.118l4.94 7.362H0v3.223h28.732c2.836 0 5.23 1.93 5.94 4.544h-4.015v3.223h4.23v4.017h-5.901c-.718-3.895-4.137-6.856-8.236-6.856-4.1 0-7.518 2.961-8.236 6.856H0v3.223h12.548a8.343 8.343 0 001.606 3.451H0V55h55v-3.223h-8.914V22.565H55zM15.596 46.624a5.16 5.16 0 015.154-5.154 5.16 5.16 0 015.154 5.154 5.16 5.16 0 01-5.154 5.153 5.16 5.16 0 01-5.154-5.153zM35.657 3.223h16.12v16.12h-16.12V3.223z" fill="#fff"/><path d="M43.678 5.68h-3.971l.005 10.97h3.223V13.68l.743-.002c2.23 0 4.045-1.794 4.045-3.998 0-2.205-1.815-3.998-4.045-3.998zm0 4.774l-.735.002-.004-1.552h.74c.437 0 .821.362.821.775 0 .413-.384.775-.822.775z" fill="#fff"/></svg>