<svg width="70" height="70" fill="none" xmlns="http://www.w3.org/2000/svg"><path d="M67.781 67.17H64.5a7.756 7.756 0 01-5.159-1.96l-5.981-5.317V43.818c7.434-.57 13.312-6.788 13.312-14.365 0-4.414-2.01-8.543-5.428-11.272a11.045 11.045 0 002.1-6.477C63.344 5.587 58.367.61 52.25.61c-6.116 0-11.093 4.977-11.093 11.094 0 2.334.739 4.595 2.1 6.477a14.403 14.403 0 00-5.428 11.272c0 7.577 5.878 13.795 13.312 14.365V57.92l-6.725-5.978a9.97 9.97 0 00-4.368-2.252v-8.035a5.553 5.553 0 00-5.547-5.547h-2.219v-15.53h3.44L19.5.612h-3.276L0 20.579h3.44V67.17H1.221v2.218H70v-2.218h-2.219zm-37.717 0H5.659V51.64h24.405v15.53zM5.659 49.422v-15.53h2.218v15.53H5.66zm4.437 0v-15.53h2.219v15.53h-2.219zm4.437 0v-15.53h2.219v15.53h-2.219zm4.438 0v-15.53h2.218v15.53h-2.218zm4.437 0v-15.53h2.219v15.53h-2.219zm6.656 0h-2.219v-15.53h2.219v15.53zm0-17.75H5.659V20.58h24.405v11.093zM4.661 18.36L17.28 2.83h1.162l12.62 15.53h-26.4zm27.622 19.968H34.5a3.332 3.332 0 013.329 3.328h-5.547v-3.328zm0 5.546h5.547v5.55c-.016 0-.032-.003-.047-.003h-5.5v-5.547zM51.14 67.171H32.283V51.64h5.5c1.903 0 3.736.696 5.158 1.96l8.2 7.289v6.28zm6.244-43.185L52.25 26.04l-5.134-2.055-.824 2.06 4.849 1.94V41.6c-6.21-.562-11.093-5.791-11.093-12.146 0-4.077 2.027-7.868 5.42-10.142l1.065-.715-.86-.952a8.845 8.845 0 01-2.297-5.94c0-4.894 3.981-8.875 8.874-8.875 4.894 0 8.875 3.981 8.875 8.875a8.845 8.845 0 01-2.297 5.94l-.86.952 1.065.715a12.193 12.193 0 015.42 10.142c0 6.354-4.883 11.584-11.093 12.146V27.986l4.85-1.94-.825-2.06zM53.36 67.171v-4.31l4.506 4.007c.121.108.25.203.374.303h-4.88z" fill="#0072CE"/></svg>