<svg width="70" height="70" fill="none" xmlns="http://www.w3.org/2000/svg"><path d="M70 56.452v-2.258h-6.774v-2.259h4.516v-6.774h-4.516v-2.258h4.516V36.13H24.839v6.774h4.516v2.258h-4.516v6.774h4.516v2.258H22.58v2.259h6.774v11.29H15.806v-6.774H12.42V29.355H10.16V8.468a6.218 6.218 0 016.21-6.21c3.265 0 5.943 2.536 6.186 5.739-3.812.561-6.75 3.844-6.75 7.81v1.129h4.516a3.391 3.391 0 003.387 3.387 3.391 3.391 0 003.387-3.387h4.516v-1.13c0-3.98-2.964-7.276-6.798-7.816C24.565 3.543 20.88 0 16.371 0c-4.67 0-8.468 3.798-8.468 8.468v20.887H5.645v31.613H2.258v6.774H0V70h70v-2.258h-6.774v-11.29H70zM23.71 18.064a1.13 1.13 0 01-1.13-1.129h2.259a1.13 1.13 0 01-1.13 1.13zm5.53-3.386H18.179a5.655 5.655 0 015.532-4.517 5.654 5.654 0 015.53 4.517zM7.904 31.612h2.258v29.355H7.903V31.613zm5.646 36.129H4.516v-4.516h9.033v4.516zm13.548-27.097v-2.258h38.387v2.258H27.097zm33.87 2.258v2.258H58.71v-2.258h2.258zm-4.515 0v2.258H36.129v-2.258h20.323zm-22.581 0v2.258h-2.258v-2.258h2.258zm22.58 24.839H36.13v-7.903h20.323v7.903zm2.259 0V57.58H33.87v10.162h-2.258v-11.29h29.355v11.29H58.71zM31.613 54.193v-2.258h2.258v2.258h-2.258zm4.516 0v-2.258h20.323v2.258H36.129zm24.839 0H58.71v-2.258h2.258v2.258zm-4.516-4.516H27.097V47.42h38.387v2.258h-9.032z" fill="#0072CE"/></svg>