<svg width="60" height="60" fill="none" xmlns="http://www.w3.org/2000/svg"><g clip-path="url(#clip0)" fill="#0072CE"><path d="M36.774 0H34.84v19.355H25.16V0h-1.935v23.226H0v1.935h19.355v9.678H0v1.935h23.226V60h1.935V40.645h9.678V60h1.935V36.774H60V34.84H40.645V25.16H60v-1.935H36.774V0zm1.936 25.161v9.678h-2.904a.968.968 0 00-.967.967v2.904H25.16v-2.904a.968.968 0 00-.968-.967H21.29V25.16h2.904a.968.968 0 00.967-.968V21.29h9.678v2.904c0 .534.434.967.967.967h2.904z"/><path d="M29.032 42.58h1.936v3.872h-1.936V42.58zM29.032 48.387h1.936v3.871h-1.936v-3.87zM29.032 54.194h1.936v3.87h-1.936v-3.87zM42.58 29.033h3.872v1.935H42.58v-1.935zM48.387 29.033h3.871v1.935h-3.87v-1.935zM54.194 29.033h3.87v1.935h-3.87v-1.935zM29.032 13.549h1.936v3.87h-1.936v-3.87zM29.032 7.742h1.936v3.87h-1.936v-3.87zM29.032 1.936h1.936v3.87h-1.936v-3.87zM13.549 29.033h3.87v1.935h-3.87v-1.935zM7.742 29.033h3.87v1.935h-3.87v-1.935zM1.936 29.033h3.871v1.935H1.936v-1.935zM55.161 42.58a4.844 4.844 0 00-4.838 4.84c0 .718.161 1.428.466 2.071a5.838 5.838 0 00-2.402 4.703A5.812 5.812 0 0054.194 60 5.812 5.812 0 0060 54.194a5.8 5.8 0 00-1.224-3.56A4.842 4.842 0 0060 47.419a4.844 4.844 0 00-4.839-4.838zm2.904 11.614a3.875 3.875 0 01-3.871 3.87 3.875 3.875 0 01-3.871-3.87c0-1.489.87-2.862 2.216-3.5a.97.97 0 00.345-1.476 2.86 2.86 0 01-.626-1.799c0-1.6 1.303-2.903 2.903-2.903s2.904 1.303 2.904 2.903c0 .706-.259 1.38-.712 1.904a5.77 5.77 0 00-1.998-.82L54.97 50.4a3.882 3.882 0 013.095 3.795zM42.58 52.258a3.875 3.875 0 00-3.87 3.871A3.875 3.875 0 0042.58 60a3.875 3.875 0 003.872-3.87 3.875 3.875 0 00-3.871-3.872zm0 5.807a1.937 1.937 0 01-1.935-1.936c0-1.067.868-1.935 1.936-1.935 1.067 0 1.935.868 1.935 1.935a1.937 1.937 0 01-1.935 1.936zM17.42 38.71a3.875 3.875 0 00-3.872 3.87 3.875 3.875 0 003.871 3.872 3.875 3.875 0 003.871-3.871 3.875 3.875 0 00-3.87-3.871zm0 5.806a1.937 1.937 0 01-1.936-1.935c0-1.068.868-1.936 1.935-1.936 1.068 0 1.936.868 1.936 1.936a1.937 1.937 0 01-1.936 1.935zM17.42 52.258a3.875 3.875 0 00-3.872 3.871A3.875 3.875 0 0017.42 60a3.875 3.875 0 003.871-3.87 3.875 3.875 0 00-3.87-3.872zm0 5.807a1.937 1.937 0 01-1.936-1.936c0-1.067.868-1.935 1.935-1.935 1.068 0 1.936.868 1.936 1.935a1.937 1.937 0 01-1.936 1.936zM42.58 11.496v4.956h1.936v-4.956c2.206-.54 3.871-2.885 3.871-5.69C48.387 2.605 46.217 0 43.55 0S38.71 2.604 38.71 5.807c0 2.804 1.666 5.149 3.87 5.689zm.969-9.56c1.6 0 2.903 1.736 2.903 3.87 0 1.68-.812 3.1-1.936 3.633V7.175l1.652-1.652L44.8 4.155 42.864 6.09a.965.965 0 00-.283.684V9.44c-1.124-.534-1.936-1.953-1.936-3.632 0-2.135 1.303-3.871 2.904-3.871zM54.194 16.334v4.956h1.935v-4.956c2.205-.54 3.87-2.884 3.87-5.689 0-3.202-2.17-5.806-4.838-5.806s-4.839 2.604-4.839 5.806c0 2.805 1.666 5.15 3.871 5.69zm.967-9.56c1.6 0 2.903 1.736 2.903 3.871 0 1.68-.811 3.099-1.935 3.633v-2.264l1.652-1.652-1.368-1.369-1.936 1.936a.965.965 0 00-.283.684v2.665c-1.124-.534-1.936-1.953-1.936-3.633 0-2.135 1.303-3.87 2.903-3.87zM15.484 11.496v4.956h1.936v-4.956c2.205-.54 3.87-2.885 3.87-5.69C21.29 2.605 19.12 0 16.453 0s-4.839 2.604-4.839 5.807c0 2.804 1.666 5.149 3.871 5.689zm.968-9.56c1.6 0 2.903 1.736 2.903 3.87 0 1.68-.812 3.1-1.935 3.633V6.774a.965.965 0 00-.284-.684l-1.935-1.935-1.369 1.368 1.652 1.652v2.264c-1.124-.534-1.935-1.953-1.935-3.632 0-2.135 1.302-3.871 2.903-3.871zM3.871 16.334v4.956h1.935v-4.956c2.206-.54 3.871-2.884 3.871-5.689 0-3.202-2.17-5.806-4.838-5.806S0 7.443 0 10.645c0 2.805 1.666 5.15 3.871 5.69zm.968-9.56c1.6 0 2.903 1.736 2.903 3.871 0 1.68-.812 3.099-1.936 3.633v-2.665a.965.965 0 00-.283-.684L3.587 8.993 2.22 10.361l1.652 1.652v2.265c-1.124-.534-1.936-1.953-1.936-3.633 0-2.135 1.303-3.87 2.904-3.87zM4.839 43.549C2.17 43.549 0 46.153 0 49.355c0 2.805 1.666 5.15 3.871 5.69V60h1.935v-4.956c2.206-.54 3.871-2.884 3.871-5.689 0-3.202-2.17-5.806-4.838-5.806zm.967 9.439v-2.665a.963.963 0 00-.283-.684l-1.936-1.936-1.368 1.369 1.652 1.652v2.264c-1.124-.534-1.936-1.953-1.936-3.633 0-2.135 1.303-3.87 2.904-3.87 1.6 0 2.903 1.735 2.903 3.87 0 1.68-.812 3.099-1.936 3.633z"/></g><defs><clipPath id="clip0"><path fill="#fff" d="M0 0h60v60H0z"/></clipPath></defs></svg>