<svg width="70" height="70" fill="none" xmlns="http://www.w3.org/2000/svg"><path d="M67.742 64.355V27.097H70v-5.645H58.71v-3.388h2.258V12.42h-7.904V9.032h2.258V3.387H14.677v5.645h2.259v3.387H9.032v5.645h2.258v3.388H0v5.645h2.258v37.258H0v2.258h70v-2.258h-2.258zm-56.452 0H4.516V27.097h6.774v37.258zm0-39.516H2.258v-1.13h9.032v1.13zm5.646 39.516h-3.388V18.064h3.388v46.29zm0-48.548H11.29v-1.13h5.646v1.13zm0-10.162h36.129v1.13h-36.13v-1.13zm16.935 58.71H23.71V50.806H33.87v13.549zm12.42 0H36.128V50.806H46.29v13.549zm4.515 0h-2.258V48.548H21.452v15.807h-2.258V46.29h31.612v18.065zm0-51.936v31.613H19.194v-35h31.612v3.387zm2.258 3.388v-1.13h5.645v1.13h-5.645zm3.388 5.645V64.355h-3.387v-46.29h3.387v3.387zm9.032 42.903H58.71V27.097h6.774v37.258zm2.258-39.516h-9.033v-1.13h9.033v1.13z" fill="#0072CE"/><path d="M48.548 15.806H21.452v15.807h27.096V15.806zM46.29 29.355H23.71v-11.29h22.58v11.29z" fill="#0072CE"/><path d="M44.032 20.323H25.968v2.258h18.064v-2.258zM44.032 24.839h-2.258v2.258h2.258v-2.258zM39.516 24.839H25.968v2.258h13.548v-2.258zM32.742 54.193h-2.258v5.646h2.258v-5.646zM39.516 54.193h-2.258v5.646h2.258v-5.646z" fill="#0072CE"/></svg>