<svg width="24" height="24" fill="none" xmlns="http://www.w3.org/2000/svg"><path d="M19.875 3H15.75v-.75A2.25 2.25 0 0013.5 0h-3a2.25 2.25 0 00-2.25 2.25V3H4.125C3.089 3 2.25 3.84 2.25 4.875v1.5c0 .414.336.75.75.75h18a.75.75 0 00.75-.75v-1.5C21.75 3.839 20.91 3 19.875 3zM9.75 2.25c0-.413.337-.75.75-.75h3c.413 0 .75.337.75.75V3h-4.5v-.75zM3.673 8.625a.234.234 0 00-.234.246l.619 12.986A2.247 2.247 0 006.304 24h11.39c1.202 0 2.19-.941 2.247-2.143L20.56 8.87a.234.234 0 00-.234-.246H3.673zM14.999 10.5a.75.75 0 111.5 0v9.75a.75.75 0 11-1.5 0V10.5zm-3.75 0a.75.75 0 111.5 0v9.75a.75.75 0 11-1.5 0V10.5zm-3.75 0a.75.75 0 111.5 0v9.75a.75.75 0 11-1.5 0V10.5z" fill="#D6D6D6"/></svg>