<svg width="12" height="12" fill="none" xmlns="http://www.w3.org/2000/svg"><path d="M9.429 4h-.572V2.857A2.83 2.83 0 006 0a2.83 2.83 0 00-2.857 2.857V4h-.571c-.629 0-1.143.514-1.143 1.143v5.714c0 .629.514 1.143 1.143 1.143h6.857c.628 0 1.143-.514 1.143-1.143V5.143c0-.629-.515-1.143-1.143-1.143zM6 9.143A1.146 1.146 0 014.857 8c0-.629.515-1.143 1.143-1.143.629 0 1.143.514 1.143 1.143S6.629 9.143 6 9.143zM7.772 4H4.229V2.857c0-.971.8-1.771 1.771-1.771.972 0 1.772.8 1.772 1.771V4z" fill="#005BB9"/></svg>