<svg width="17" height="17" fill="none" xmlns="http://www.w3.org/2000/svg"><path d="M11.159 2.81a1.063 1.063 0 000 2.122 1.062 1.062 0 000-2.122z" fill="#005BB9"/><path d="M15.03 3.871A3.875 3.875 0 0011.159 0a3.875 3.875 0 00-3.87 3.871c0 3.151 3.408 6 3.553 6.12a.497.497 0 00.634 0c.145-.12 3.554-2.969 3.554-6.12zm-3.871 2.057a2.06 2.06 0 01-2.057-2.057 2.06 2.06 0 012.057-2.057 2.06 2.06 0 012.057 2.057 2.06 2.06 0 01-2.057 2.057zM.027 6.278v5.546l5.317-2.06V3.877L.345 5.814a.498.498 0 00-.318.464zM.027 16.491a.5.5 0 00.678.475l4.639-1.797v-4.337l-5.317 2.06v3.6zM11.657 16.843l4.999-1.936a.498.498 0 00.318-.465v-3.995l-5.317 2.06v4.336zM6.34 15.17l4.32 1.673v-4.337l-4.32-1.674v4.337zM6.34 3.871v5.894l4.32 1.673S9.154 9.878 8.223 8.68C7.143 7.288 6.512 5.187 6.34 3.871zM16.757 3.808a.498.498 0 00-.461-.054l-.27.105v.012c0 1.539-.65 3.157-1.932 4.808-.93 1.199-2.437 2.76-2.437 2.76l5.317-2.06v-5.16a.498.498 0 00-.217-.411z" fill="#005BB9"/></svg>