<svg width="16" height="16" fill="none" xmlns="http://www.w3.org/2000/svg"><path d="M4.854 1.786c-1.61 0-2.92 1.389-2.92 3.096s1.31 3.097 2.92 3.097c1.61 0 2.92-1.39 2.92-3.097s-1.31-3.096-2.92-3.096zM11.493 2.229a2.423 2.423 0 00-1.797.804 2.719 2.719 0 00-.708 1.87 2.72 2.72 0 00.739 1.858c.474.5 1.102.774 1.77.774h.02a2.423 2.423 0 001.778-.803 2.719 2.719 0 00.707-1.87c-.012-1.457-1.135-2.633-2.509-2.633zM11.617 8.042h-.242c-1.13 0-2.16.43-2.938 1.134a5.646 5.646 0 011.764 2.282c.257.605.403 1.243.437 1.9H16v-.933a4.388 4.388 0 00-4.383-4.383zM9.698 13.358a4.701 4.701 0 00-1.888-3.48A4.686 4.686 0 005 8.948h-.292A4.708 4.708 0 000 13.654v.56h9.708v-.56c0-.1-.003-.198-.01-.296z" fill="#005BB9"/></svg>