<svg width="129" height="116" fill="none" xmlns="http://www.w3.org/2000/svg"><g opacity=".1" clip-path="url(#clip0_2597_2588)" fill="#fff"><path d="M64.5 129c35.566 0 64.5-28.934 64.5-64.5S100.066 0 64.5 0 0 28.934 0 64.5 28.934 129 64.5 129zm0-123.248c32.394 0 58.748 26.354 58.748 58.748S96.894 123.248 64.5 123.248 5.752 96.894 5.752 64.5 32.106 5.752 64.5 5.752z"/><path d="M48.602 58.703c6.578 0 11.909-5.332 11.909-11.909.001-6.578-5.331-11.91-11.91-11.91-6.578 0-11.909 5.332-11.909 11.909.007 6.575 5.335 11.903 11.91 11.91zm0-18.068c3.4 0 6.157 2.757 6.157 6.158a6.158 6.158 0 11-12.315 0 6.165 6.165 0 016.158-6.158zM67.768 82.93c0 6.578 5.332 11.909 11.909 11.909 6.578 0 11.91-5.331 11.91-11.91 0-6.578-5.332-11.91-11.91-11.91-6.575.008-11.901 5.336-11.91 11.91zm18.068 0a6.158 6.158 0 11-6.16-6.16 6.167 6.167 0 016.16 6.16zM42.602 98.076a2.875 2.875 0 003.98-.838l40.653-62.334a2.876 2.876 0 10-4.818-3.142L41.764 94.096a2.875 2.875 0 00.838 3.98z"/></g><defs><clipPath id="clip0_2597_2588"><path fill="#fff" d="M0 0h129v116H0z"/></clipPath></defs></svg>