<svg xmlns="http://www.w3.org/2000/svg" viewBox="0 0 18.651 18.651"><path fill="#005BB9" fill-rule="evenodd" d="M9.324 4.667C5.565 4.667 2.212 6.483 0 9.326c2.212 2.842 5.565 4.658 9.324 4.658 3.759 0 7.116-1.816 9.327-4.658-2.212-2.843-5.568-4.659-9.327-4.659zM2.953 9.326a8.244 8.244 0 016.334-2.962 2.962 2.962 0 000 5.924 8.25 8.25 0 01-6.334-2.962zm5.075 0a1.27 1.27 0 112.541-.003 1.27 1.27 0 01-2.541.003zm1.282 2.963h-.007a2.964 2.964 0 000-5.926h.007a8.246 8.246 0 016.357 2.963 8.246 8.246 0 01-6.357 2.963z"/></svg>