<svg width="40" height="40" viewBox="0 0 40 40" fill="none" xmlns="http://www.w3.org/2000/svg">
<g clip-path="url(#clip0)">
<path d="M13.1988 14.1682C12.9363 13.9057 12.9363 13.4688 13.1988 13.1971C13.4705 12.9346 13.8982 12.9346 14.1699 13.1971L19.9969 19.0339L25.8337 13.1971C26.0962 12.9346 26.5331 12.9346 26.795 13.1971C27.0667 13.4688 27.0667 13.9063 26.795 14.1682L20.968 19.9958L26.795 25.8326C27.0667 26.0951 27.0667 26.532 26.795 26.8037C26.5325 27.0662 26.0956 27.0662 25.8337 26.8037L19.9969 20.9669L14.1699 26.8037C13.8982 27.0662 13.4705 27.0662 13.1988 26.8037C12.9363 26.532 12.9363 26.0945 13.1988 25.8326L19.0258 19.9958L13.1988 14.1682Z" fill="#A3A3A3"/>
</g>
<defs>
<clipPath id="clip0">
<rect width="14" height="14" fill="white" transform="translate(13 13)"/>
</clipPath>
</defs>
</svg>
