<svg width="20" height="20" viewBox="0 0 20 20" fill="none" xmlns="http://www.w3.org/2000/svg">
<path fill-rule="evenodd" clip-rule="evenodd" d="M10.1277 13.8667L12.4957 11.475C12.735 11.225 12.735 10.8334 12.4875 10.5917C12.2482 10.35 11.8604 10.35 11.6211 10.5917L10.3092 11.925V7.90835C10.3092 7.55835 10.037 7.28335 9.69868 7.28335C9.3604 7.28335 9.07987 7.55835 9.07987 7.90835V11.925L7.76799 10.5917C7.52872 10.35 7.14093 10.35 6.90165 10.5917C6.66238 10.8334 6.66238 11.225 6.90165 11.475L9.26139 13.8667C9.31914 13.925 9.38515 13.9667 9.45941 14C9.53367 14.0334 9.61617 14.05 9.69868 14.05C9.78119 14.05 9.85545 14.0334 9.9297 14C10.004 13.9667 10.07 13.925 10.1277 13.8667ZM16.1066 7.52136C16.3006 7.51912 16.5118 7.51669 16.7036 7.51669C16.9182 7.51669 17.0832 7.68335 17.0832 7.89169V14.5917C17.0832 16.6584 15.4165 18.3334 13.3703 18.3334H6.81089C4.65743 18.3334 2.9165 16.575 2.9165 14.4084V5.42502C2.9165 3.35835 4.57492 1.66669 6.63763 1.66669H11.0436C11.2498 1.66669 11.4231 1.84169 11.4231 2.05002V4.73335C11.4231 6.25835 12.6607 7.50835 14.1789 7.51669C14.5276 7.51669 14.8396 7.51933 15.112 7.52164C15.323 7.52343 15.5102 7.52502 15.6723 7.52502C15.7897 7.52502 15.942 7.52326 16.1066 7.52136ZM16.3369 6.3051C15.6595 6.3076 14.86 6.3051 14.2849 6.29926C13.3724 6.29926 12.6207 5.5401 12.6207 4.61843V2.42177C12.6207 2.0626 13.0522 1.88427 13.2981 2.14343C13.9334 2.80997 14.9058 3.83139 15.7279 4.69482C16.061 5.04474 16.3694 5.36872 16.6207 5.6326C16.8616 5.8851 16.6851 6.30427 16.3369 6.3051Z" fill="#9EB0B7"/>
</svg>
