<svg width="16" height="18" viewBox="0 0 16 18" fill="none" xmlns="http://www.w3.org/2000/svg">
<path fill-rule="evenodd" clip-rule="evenodd" d="M0.916504 7.59812C0.916504 3.7649 4.11974 0.666656 7.99438 0.666656C11.8799 0.666656 15.0832 3.7649 15.0832 7.59812C15.0832 9.52973 14.3807 11.323 13.2244 12.843C11.9488 14.5196 10.3766 15.9804 8.60696 17.127C8.20193 17.392 7.8364 17.412 7.39188 17.127C5.61212 15.9804 4.03991 14.5196 2.77525 12.843C1.61816 11.323 0.916504 9.52973 0.916504 7.59812ZM5.6617 7.81393C5.6617 9.09806 6.70956 10.108 7.99438 10.108C9.28004 10.108 10.338 9.09806 10.338 7.81393C10.338 6.5398 9.28004 5.48066 7.99438 5.48066C6.70956 5.48066 5.6617 6.5398 5.6617 7.81393Z" fill="#9EB0B7"/>
</svg>
