<svg width="40" height="40" viewBox="0 0 40 40" fill="none" xmlns="http://www.w3.org/2000/svg">
<path d="M19.9999 39.82C16.0799 39.82 12.2479 38.6576 8.98854 36.4797C5.72916 34.3019 3.18878 31.2064 1.68865 27.5848C0.188519 23.9632 -0.203983 19.978 0.560776 16.1333C1.32554 12.2886 3.21321 8.75702 5.98508 5.98514C8.75696 3.21327 12.2885 1.3256 16.1332 0.560837C19.978 -0.203922 23.9631 0.18858 27.5847 1.68871C31.2064 3.18884 34.3018 5.72922 36.4797 8.9886C38.6575 12.248 39.8199 16.08 39.8199 20C39.8146 25.255 37.7248 30.2932 34.0089 34.009C30.2931 37.7248 25.2549 39.8147 19.9999 39.82ZM19.9999 6.25333C17.2811 6.25333 14.6233 7.05956 12.3627 8.57007C10.1021 10.0806 8.34013 12.2275 7.29968 14.7394C6.25922 17.2513 5.98699 20.0153 6.51741 22.6818C7.04783 25.3484 8.35707 27.7979 10.2796 29.7204C12.2021 31.6429 14.6515 32.9521 17.3181 33.4825C19.9847 34.0129 22.7487 33.7407 25.2606 32.7003C27.7724 31.6598 29.9194 29.8979 31.4299 27.6372C32.9404 25.3766 33.7466 22.7188 33.7466 20C33.7431 16.3552 32.2936 12.8608 29.7164 10.2835C27.1392 7.7063 23.6447 6.25686 19.9999 6.25333Z" fill="#7C8499"/>
<path d="M10.5132 17.2733C10.426 16.9816 10.4145 16.6724 10.4799 16.375C10.5452 16.0776 10.6851 15.8017 10.8866 15.5733L19.2599 10.5C19.4187 10.4723 19.579 10.4545 19.7399 10.4466C20.0013 10.4299 20.2624 10.4827 20.4966 10.5999C20.7309 10.717 20.9299 10.8942 21.0732 11.1133C21.2132 11.3266 21.3399 11.5466 21.4866 11.78L21.7332 11.66C21.9899 11.5296 22.2818 11.4858 22.5654 11.5351C22.8489 11.5843 23.109 11.724 23.3066 11.9333C23.3466 11.9733 23.3932 12 23.4332 12.0333L24.5399 13.86C24.5366 13.8865 24.5366 13.9134 24.5399 13.94C24.676 14.2589 24.6824 14.6182 24.558 14.9418C24.4335 15.2654 24.1879 15.5278 23.8732 15.6733C22.2599 16.6666 20.6666 17.6466 19.0666 18.6133C18.7532 18.8066 18.6932 18.98 18.8599 19.28L20.3332 21.7066C20.3573 21.74 20.3882 21.768 20.4238 21.7886C20.4594 21.8093 20.499 21.8223 20.5399 21.8266C20.8656 21.7653 21.2024 21.8107 21.5003 21.956C21.7981 22.1013 22.0412 22.3389 22.1932 22.6333C22.9999 23.9066 23.7799 25.2066 24.5532 26.5C24.6638 26.6812 24.7166 26.8918 24.7047 27.1037C24.6928 27.3156 24.6167 27.5189 24.4866 27.6866L24.3599 27.8866L23.2799 28.5533H23.0199C22.8221 28.5758 22.622 28.5428 22.4418 28.458C22.2617 28.3732 22.1087 28.24 21.9999 28.0733C21.2066 26.74 20.3999 25.48 19.6399 24.1666C19.4556 23.8952 19.3615 23.5726 19.3711 23.2447C19.3807 22.9167 19.4934 22.6002 19.6932 22.34C19.7399 22.28 19.6932 22.12 19.6599 22.04C19.1999 21.26 18.7266 20.4933 18.2666 19.72C18.1721 19.5747 18.1023 19.4147 18.0599 19.2466C18.0076 19.001 18.0389 18.7448 18.1488 18.5189C18.2587 18.2931 18.441 18.1104 18.6666 18L23.5199 15.0466C23.9066 14.8133 23.9999 14.54 23.7932 14.1733C23.4999 13.64 23.1799 13.12 22.8466 12.6133C22.6066 12.26 22.2932 12.24 21.9132 12.52L22.2799 13.12C22.3871 13.2874 22.4598 13.4746 22.4937 13.6705C22.5276 13.8665 22.522 14.0672 22.4773 14.2609C22.4326 14.4547 22.3497 14.6375 22.2333 14.7988C22.117 14.96 21.9697 15.0964 21.7999 15.2C19.1644 16.7911 16.531 18.3911 13.8999 20C13.6198 20.1682 13.2924 20.2404 12.9675 20.2055C12.6426 20.1706 12.3379 20.0305 12.0999 19.8066L11.9599 19.6933L10.5132 17.2733Z" fill="#B29A7C"/>
</svg>
