<svg width="31" height="30" viewBox="0 0 31 30" fill="none" xmlns="http://www.w3.org/2000/svg">
<path d="M25.6623 7.19978C25.163 7.07876 24.6604 7.38559 24.5391 7.88483L24.2394 9.12109C23.3229 7.68641 22.0913 6.4722 20.6257 5.56981C15.2962 2.28821 8.29063 3.95424 5.00898 9.28383C1.72738 14.6134 3.39348 21.619 8.723 24.9006C14.0525 28.1822 21.0582 26.5161 24.3398 21.1866C24.6091 20.7491 24.4728 20.1759 24.0353 19.9065C23.5979 19.6372 23.0247 19.7734 22.7553 20.2109C20.0116 24.6668 14.1545 26.0598 9.69864 23.3161C5.2428 20.5725 3.84983 14.7153 6.59347 10.2595C9.33715 5.80356 15.1943 4.41066 19.6501 7.1543C20.8779 7.9103 21.9093 8.92745 22.6755 10.1292L21.3752 9.81401C20.876 9.69304 20.373 9.99987 20.2519 10.4991C20.131 10.9985 20.4377 11.5015 20.937 11.6225L24.3876 12.4588C24.7894 12.5563 25.1935 12.3768 25.3992 12.0428C25.4491 11.9617 25.4874 11.8714 25.5111 11.7739L26.3475 8.32323C26.4685 7.82386 26.1618 7.32091 25.6623 7.19978Z" fill="#A9A9A9"/>
</svg>
