<svg width="24" height="24" fill="none" xmlns="http://www.w3.org/2000/svg"><g clip-path="url(#clip0)" fill="#B19A7C"><path d="M6 0a.857.857 0 00-.857.857v1.714h1.714V.857A.857.857 0 006 0zM18 0a.857.857 0 00-.857.857v1.714h1.714V.857A.857.857 0 0018 0zM21.429 2.571h-2.572V6a.857.857 0 11-1.714 0V2.571H6.857V6a.857.857 0 11-1.714 0V2.571H2.57A2.571 2.571 0 000 5.143v16.286A2.571 2.571 0 002.571 24H21.43A2.571 2.571 0 0024 21.429V5.143a2.571 2.571 0 00-2.571-2.572zm.857 18.858a.857.857 0 01-.858.857H2.572a.857.857 0 01-.857-.857V10.286h20.572v11.143z"/><path d="M17.75 12.252a.857.857 0 00-1.213 0l-6.251 6.25-2.823-2.822a.857.857 0 10-1.212 1.213L9.68 20.32a.857.857 0 001.212 0l6.857-6.857a.857.857 0 000-1.212z"/></g><defs><clipPath id="clip0"><path fill="#fff" d="M0 0h24v24H0z"/></clipPath></defs></svg>