<svg width="61" height="56" fill="none" xmlns="http://www.w3.org/2000/svg"><g clip-path="url(#clip0)"><mask id="a" maskUnits="userSpaceOnUse" x="-1" y="-.515" width="62" height="53" fill="#000"><path fill="#fff" d="M-1-.515h62v53H-1z"/><path d="M59.59 22.203L23.027 1.095a4.576 4.576 0 00-6.241 1.672l-4.21 7.29-2.802 4.853a4.576 4.576 0 001.674 6.244l12.536 7.237-1.95 3.324a2.942 2.942 0 01-2.527 1.448h-7.32v-5.578a.82.82 0 00-.82-.82H6.914v-1.059a3.637 3.637 0 00-3.633-3.633H.821a.82.82 0 00-.821.82v27.805a.82.82 0 00.82.82h2.461a3.637 3.637 0 003.633-3.632V45.28h4.453a.82.82 0 00.82-.82v-4.031h7.32a10.234 10.234 0 008.794-5.037l1.975-3.368 6.872 3.967a4.547 4.547 0 003.467.457 4.54 4.54 0 001.985-1.12 6.833 6.833 0 004.667.397 6.85 6.85 0 003.736-2.532l1.68.97a.82.82 0 001.121-.3l6.084-10.538a.82.82 0 00-.298-1.122zM5.273 47.886a1.994 1.994 0 01-1.992 1.992h-1.64V23.714h1.64a1.994 1.994 0 011.992 1.992v22.18zm5.274-4.247H6.914V28.405h3.633V43.64zm16.339-9.077a8.587 8.587 0 01-7.38 4.226h-7.319v-3.984h7.32a4.588 4.588 0 003.942-2.258l1.957-3.334 3.451 1.992-1.971 3.358zm11.083.009l-25.7-14.838a2.933 2.933 0 01-1.073-4.002l2.39-4.143L37.14 25.187l7.222 4.169-2.392 4.144-.003.005a2.882 2.882 0 01-.206.305v.003a2.933 2.933 0 01-3.791.758zm8.877-.431a5.23 5.23 0 01-3.252-.171l2.19-3.794 3.794 2.19a5.229 5.229 0 01-2.734 1.775h.002zm5.95-1.81l-5.305-3.062-1.6-.924L27.78 17.888l-13.373-7.72 3.8-6.58a2.933 2.933 0 014.002-1.072l35.85 20.698-5.263 9.116z"/></mask><path d="M59.59 22.203L23.027 1.095a4.576 4.576 0 00-6.241 1.672l-4.21 7.29-2.802 4.853a4.576 4.576 0 001.674 6.244l12.536 7.237-1.95 3.324a2.942 2.942 0 01-2.527 1.448h-7.32v-5.578a.82.82 0 00-.82-.82H6.914v-1.059a3.637 3.637 0 00-3.633-3.633H.821a.82.82 0 00-.821.82v27.805a.82.82 0 00.82.82h2.461a3.637 3.637 0 003.633-3.632V45.28h4.453a.82.82 0 00.82-.82v-4.031h7.32a10.234 10.234 0 008.794-5.037l1.975-3.368 6.872 3.967a4.547 4.547 0 003.467.457 4.54 4.54 0 001.985-1.12 6.833 6.833 0 004.667.397 6.85 6.85 0 003.736-2.532l1.68.97a.82.82 0 001.121-.3l6.084-10.538a.82.82 0 00-.298-1.122zM5.273 47.886a1.994 1.994 0 01-1.992 1.992h-1.64V23.714h1.64a1.994 1.994 0 011.992 1.992v22.18zm5.274-4.247H6.914V28.405h3.633V43.64zm16.339-9.077a8.587 8.587 0 01-7.38 4.226h-7.319v-3.984h7.32a4.588 4.588 0 003.942-2.258l1.957-3.334 3.451 1.992-1.971 3.358zm11.083.009l-25.7-14.838a2.933 2.933 0 01-1.073-4.002l2.39-4.143L37.14 25.187l7.222 4.169-2.392 4.144-.003.005a2.882 2.882 0 01-.206.305v.003a2.933 2.933 0 01-3.791.758zm8.877-.431a5.23 5.23 0 01-3.252-.171l2.19-3.794 3.794 2.19a5.229 5.229 0 01-2.734 1.775h.002zm5.95-1.81l-5.305-3.062-1.6-.924L27.78 17.888l-13.373-7.72 3.8-6.58a2.933 2.933 0 014.002-1.072l35.85 20.698-5.263 9.116z" fill="#B19A7C"/><path d="M59.59 22.203L23.027 1.095a4.576 4.576 0 00-6.241 1.672l-4.21 7.29-2.802 4.853a4.576 4.576 0 001.674 6.244l12.536 7.237-1.95 3.324a2.942 2.942 0 01-2.527 1.448h-7.32v-5.578a.82.82 0 00-.82-.82H6.914v-1.059a3.637 3.637 0 00-3.633-3.633H.821a.82.82 0 00-.821.82v27.805a.82.82 0 00.82.82h2.461a3.637 3.637 0 003.633-3.632V45.28h4.453a.82.82 0 00.82-.82v-4.031h7.32a10.234 10.234 0 008.794-5.037l1.975-3.368 6.872 3.967a4.547 4.547 0 003.467.457 4.54 4.54 0 001.985-1.12 6.833 6.833 0 004.667.397 6.85 6.85 0 003.736-2.532l1.68.97a.82.82 0 001.121-.3l6.084-10.538a.82.82 0 00-.298-1.122zM5.273 47.886a1.994 1.994 0 01-1.992 1.992h-1.64V23.714h1.64a1.994 1.994 0 011.992 1.992v22.18zm5.274-4.247H6.914V28.405h3.633V43.64zm16.339-9.077a8.587 8.587 0 01-7.38 4.226h-7.319v-3.984h7.32a4.588 4.588 0 003.942-2.258l1.957-3.334 3.451 1.992-1.971 3.358zm11.083.009l-25.7-14.838a2.933 2.933 0 01-1.073-4.002l2.39-4.143L37.14 25.187l7.222 4.169-2.392 4.144-.003.005a2.882 2.882 0 01-.206.305v.003a2.933 2.933 0 01-3.791.758zm8.877-.431a5.23 5.23 0 01-3.252-.171l2.19-3.794 3.794 2.19a5.229 5.229 0 01-2.734 1.775h.002zm5.95-1.81l-5.305-3.062-1.6-.924L27.78 17.888l-13.373-7.72 3.8-6.58a2.933 2.933 0 014.002-1.072l35.85 20.698-5.263 9.116z" stroke="#B19A7C" stroke-width=".6" mask="url(#a)"/><path d="M49.29 27.872a3.136 3.136 0 002.395.315 3.154 3.154 0 10-2.394-.315zm.268-3.49a1.505 1.505 0 011.313-.754 1.515 1.515 0 11-1.313.757v-.002zM21.328 19.564l-6.722-3.882a.819.819 0 00-1.206.923.821.821 0 00.386.498l6.724 3.881a.82.82 0 00.818-1.42z" fill="#B19A7C"/></g><defs><clipPath id="clip0"><path fill="#fff" d="M0 0h61v56H0z"/></clipPath></defs></svg>