<svg width="60" height="60" fill="none" xmlns="http://www.w3.org/2000/svg"><path d="M59.848 40.908L45.726 16.163a1.166 1.166 0 00-.5-.468l-7.98-3.935a1.178 1.178 0 00-.709-.099C35.13 8.552 32.708 6 28.724 6c-4.55 0-7.363 2.154-9.027 4.82a11.662 11.662 0 00-2.508-.278c-6.36 0-11.536 5.11-11.536 11.392A11.25 11.25 0 008.4 29.295L.366 47.477c-1 2.265.12 4.942 2.498 5.965l.358.154A4.91 4.91 0 005.158 54c.548 0 1.093-.094 1.616-.281a4.416 4.416 0 002.573-2.37l1.234-2.793-.387-.207a1.153 1.153 0 01-.478-1.572 1.182 1.182 0 011.592-.472l.217.116 1.477-3.343-.539-.286a1.154 1.154 0 01-.478-1.572 1.183 1.183 0 011.591-.472l.37.197 1.402-3.176-.116-.062a1.153 1.153 0 01-.479-1.572c.298-.547.974-.75 1.534-.492l1.026-2.32c6.302-.066 11.412-5.146 11.412-11.387 0-4.59-2.768-8.544-6.737-10.347 1.28-1.804 3.352-3.265 6.737-3.265 2.98 0 4.718 2.04 5.734 4.404l-4.203 2.34a1.16 1.16 0 00-.597.967l-.342 8.567c-.01.216.043.429.15.617l14.124 24.744c.216.379.614.591 1.025.591.195 0 .394-.048.576-.15l14.21-7.909c.271-.15.471-.403.556-.7.082-.3.043-.618-.11-.887zM7.192 50.416a2.09 2.09 0 01-1.224 1.118c-.58.211-1.22.184-1.807-.069l-.359-.154c-1.188-.51-1.762-1.815-1.28-2.907l7.697-17.417a11.547 11.547 0 004.63 2.1L7.191 50.416zm19.18-28.484c0 5.002-4.12 9.07-9.184 9.07-.327 0-.651-.019-.97-.052l-.4-.06a9.204 9.204 0 01-4.628-2.105c-1.947-1.664-3.186-4.116-3.186-6.853 0-5.002 4.12-9.07 9.184-9.07.488 0 .964.049 1.43.12a15.18 15.18 0 00-.708 2.382c-1.617.38-2.826 1.809-2.826 3.52 0 2 1.647 3.627 3.672 3.627 2.026 0 3.673-1.627 3.673-3.627 0-1.463-.885-2.719-2.151-3.291.137-.615.335-1.28.606-1.96 3.227 1.41 5.488 4.598 5.488 8.299zm-7.616-2.436c.65 0 1.176-.52 1.176-1.161 0-.095.01-.695.126-1.544a2.456 2.456 0 011.195 2.094c0 1.36-1.12 2.466-2.497 2.466-1.376 0-2.497-1.106-2.497-2.466 0-.98.588-1.824 1.43-2.22-.072.596-.108 1.16-.108 1.669 0 .642.526 1.162 1.175 1.162zm17.131.387c.001.64.527 1.16 1.176 1.16h.001c.649 0 1.174-.52 1.174-1.162 0-.362-.016-.752-.04-1.157.307.294.5.703.5 1.157 0 .891-.733 1.616-1.635 1.616a1.628 1.628 0 01-1.637-1.616c0-.405.158-.772.41-1.055.048.635.051 1.036.051 1.057zm9.173 27.924L31.678 24.361l.304-7.591 3.23-1.8c.274 1.067.438 2.092.534 2.928a2.362 2.362 0 00-1.089 1.983c0 1.31 1.08 2.376 2.406 2.376s2.405-1.066 2.405-2.376c0-.933-.554-1.734-1.347-2.122a22.27 22.27 0 00-.583-3.263l6.318 3.116 13.367 23.425-12.163 6.77z" fill="#B19A7C"/></svg>