<svg width="40" height="40" fill="none" xmlns="http://www.w3.org/2000/svg"><path fill-rule="evenodd" clip-rule="evenodd" d="M20 0C8.954 0 0 8.954 0 20s8.954 20 20 20 20-8.954 20-20S31.046 0 20 0zm-4.397 9.398c1.138-.052 1.501-.065 4.398-.065h-.003c2.897 0 3.26.013 4.397.065 1.136.052 1.912.232 2.592.495a5.212 5.212 0 011.889 1.23 5.235 5.235 0 011.23 1.89c.263.678.443 1.453.496 2.589.051 1.138.065 1.501.065 4.398s-.014 3.26-.065 4.398c-.053 1.135-.233 1.91-.495 2.588a5.237 5.237 0 01-1.232 1.89 5.22 5.22 0 01-1.888 1.23c-.678.265-1.454.444-2.59.496-1.138.052-1.5.065-4.397.065-2.897 0-3.26-.013-4.398-.065-1.136-.052-1.91-.231-2.59-.495a5.224 5.224 0 01-1.888-1.231 5.228 5.228 0 01-1.23-1.89c-.264-.678-.444-1.453-.496-2.589-.052-1.137-.065-1.5-.065-4.397 0-2.897.014-3.26.065-4.398.05-1.136.23-1.91.495-2.59a5.237 5.237 0 011.231-1.889 5.223 5.223 0 011.89-1.23c.678-.263 1.453-.443 2.589-.495z" fill="#fff"/><path fill-rule="evenodd" clip-rule="evenodd" d="M19.043 11.255H20c2.848 0 3.185.01 4.31.061 1.04.048 1.605.222 1.98.368.498.193.853.424 1.226.798.374.373.605.729.799 1.226.145.376.32.94.367 1.98.05 1.125.062 1.463.062 4.31 0 2.846-.011 3.184-.062 4.308-.048 1.04-.221 1.605-.367 1.98a3.298 3.298 0 01-.799 1.226 3.3 3.3 0 01-1.225.797c-.376.147-.941.32-1.981.368-1.124.051-1.462.062-4.31.062-2.849 0-3.186-.011-4.31-.062-1.04-.048-1.605-.222-1.981-.368a3.305 3.305 0 01-1.227-.798 3.307 3.307 0 01-.798-1.226c-.146-.375-.32-.94-.367-1.98-.052-1.124-.062-1.462-.062-4.31 0-2.849.01-3.185.061-4.31.048-1.04.222-1.604.368-1.98.193-.498.425-.853.798-1.226a3.31 3.31 0 011.227-.799c.376-.146.94-.32 1.98-.368.985-.044 1.366-.057 3.354-.06v.003zm6.65 1.771a1.28 1.28 0 100 2.561 1.28 1.28 0 000-2.561zM14.52 20a5.478 5.478 0 1110.957 0 5.478 5.478 0 01-10.957 0z" fill="#fff"/><path fill-rule="evenodd" clip-rule="evenodd" d="M20 16.445a3.556 3.556 0 110 7.111 3.556 3.556 0 010-7.111z" fill="#fff"/></svg>