<svg width="55" height="55" fill="none" xmlns="http://www.w3.org/2000/svg"><path d="M49.55 14.26h0a25.71 25.71 0 01.26 26.033.911.911 0 01-1.245.337s0 0 0 0l.075-.13a.762.762 0 01-.281-1.04l1.19-25.2zm0 0a.912.912 0 00-1.252-.313h0a.912.912 0 00-.311 1.252h0a23.886 23.886 0 01.241 24.186l1.322-25.126zM14.698 5.185h0a.912.912 0 00-.337 1.245h0a.912.912 0 001.245.337h0C22.819 2.624 31.818 2.56 39.091 6.6h0a.912.912 0 001.24-.354h0a.912.912 0 00-.354-1.24c-7.83-4.349-17.515-4.28-25.28.18zM6.587 14.112a.912.912 0 00-1.249.322l1.442.85a.762.762 0 00-.269-1.043l.076-.13s0 0 0 0zm-.234 24.526c-3.838-7.277-3.625-16.197.556-23.277l-1.441-.851a25.622 25.622 0 00-.596 24.91l-.133.069s0 0 0 0a.912.912 0 101.614-.85l-.133.07.133-.07zM14.501 49.696h0a.912.912 0 01-.325-1.248l.325 1.248zm0 0a25.698 25.698 0 0012.997 3.512c4.305 0 8.613-1.07 12.478-3.218l-.073-.131m-25.402-.163l25.402.163m0 0l.073.13a.912.912 0 00-.886-1.594m.813 1.464l-.813-1.464m0 0c-7.348 4.082-16.417 3.978-23.666-.272a.912.912 0 00-1.248.325l24.915-.053zM48.438 6.017h0a5.06 5.06 0 010 7.147 5.022 5.022 0 01-3.573 1.48 5.021 5.021 0 01-3.574-1.48s0 0 0 0m7.147-7.147l-7.04.106a4.871 4.871 0 00-1.437 3.468c0 1.31.51 2.54 1.437 3.467l-.107.106m7.147-7.147a5.06 5.06 0 00-7.147 0h0a5.021 5.021 0 00-1.48 3.574c0 1.35.526 2.619 1.48 3.573m7.147-7.147l-7.147 7.147m5.842-1.274l.015-.016a3.233 3.233 0 000-4.567 3.22 3.22 0 00-2.283-.944c-.828 0-1.654.315-2.284.944 0 0 0 0 0 0m4.552 4.582l-5.648-2.298c0-.903.352-1.752.99-2.39l.106.106m4.552 4.582c-.608.601-1.413.931-2.268.931a3.207 3.207 0 01-2.284-.946h0a3.207 3.207 0 01-.946-2.283l5.498 2.299zm-4.552-4.582c-.61.61-.946 1.42-.946 2.284l.946-2.284zM6.114 48.341h0a5.021 5.021 0 01-1.48-3.573c0-1.35.526-2.62 1.48-3.574m0 7.147v-7.147m0 7.147a5.038 5.038 0 003.574 1.478 5.04 5.04 0 003.573-1.478l.044-.044m-7.19.044l7.19-.044m-7.19-7.102a5.06 5.06 0 017.146 0l-.106.106.106-.107a5.059 5.059 0 01.044 7.103m-7.19-7.102l7.19 7.102m0 0v0m0 0v0m-5.9-1.245a3.233 3.233 0 004.566 0s0 0 0 0m-4.567 0l4.674-4.674a3.384 3.384 0 010 4.78l-.107-.107m-4.567 0a3.208 3.208 0 01-.946-2.283c0-.863.336-1.674.946-2.284a3.219 3.219 0 012.284-.944 3.22 3.22 0 012.284.944m-4.568 4.567l4.568-4.567m0 4.567a3.234 3.234 0 000-4.567m0 4.567v-4.567M48.438 41.194h0a5.06 5.06 0 010 7.147 5.038 5.038 0 01-3.573 1.478 5.039 5.039 0 01-3.574-1.478l-.043-.044v0a5.02 5.02 0 01-1.437-3.53c0-1.349.526-2.618 1.48-3.573h7.147zm0 0a5.06 5.06 0 00-7.147 0h7.147zm-5.857 5.857l-.015-.015a3.207 3.207 0 01-.93-2.268c0-.863.335-1.674.945-2.284h0a3.233 3.233 0 014.567 0 3.233 3.233 0 010 4.567 3.233 3.233 0 01-4.567 0zM6.114 6.017h0a5.06 5.06 0 017.147 0l-.106.106.106-.106a5.059 5.059 0 010 7.147 5.021 5.021 0 01-3.573 1.48 5.02 5.02 0 01-3.574-1.48s0 0 0 0m0-7.147l.106.106a4.871 4.871 0 00-1.436 3.468c0 1.31.51 2.54 1.436 3.467l-.106.106m0-7.147a5.021 5.021 0 00-1.48 3.574c0 1.35.526 2.619 1.48 3.573m0-7.147v7.147M7.42 11.89c.609.6 1.413.93 2.269.93.863 0 1.673-.336 2.283-.946 0 0 0 0 0 0m-4.552.015l4.659-4.688a3.384 3.384 0 010 4.78l-.107-.107m-4.552.015l-.015-.015a3.207 3.207 0 01-.946-2.283c0-.863.336-1.674.946-2.284m.015 4.582l4.552-4.582m0 4.567a3.234 3.234 0 000-4.567m0 4.567V7.307m0 0a3.22 3.22 0 00-2.283-.944c-.828 0-1.654.314-2.284.944m0 0l-.106-.106.106.106m0 0s0 0 0 0m0 0h0M30.444 30.28v0a3.07 3.07 0 00-3.066-3.066 3.07 3.07 0 00-3.066 3.066v.015c0 .57 0 1.735.855 2.454v1.82c0 .503.409.912.912.912h2.49a.912.912 0 00.911-.912v-1.813c.65-.524.963-1.366.963-2.476zM28.2 31.416h0a.912.912 0 00-.544.834v1.407h-.664V32.25a.912.912 0 00-.544-.834h0a.382.382 0 01-.127-.085.442.442 0 01-.093-.162c-.058-.161-.092-.428-.092-.889 0-.684.557-1.242 1.242-1.242.684 0 1.241.558 1.241 1.242 0 .51-.084.78-.17.925-.083.138-.175.178-.248.21H28.2z" fill="#B19A7C" stroke="#B19A7C" stroke-width=".3"/><path d="M24.225 18.578h0v-.15a2.246 2.246 0 012.243-2.244h1.819a2.246 2.246 0 012.243 2.244v5.451h-6.305v-5.301zm8.728 5.301h-.599v-5.451a4.072 4.072 0 00-4.067-4.068h-1.819a4.072 4.072 0 00-4.067 4.068v5.451h-.598a2.427 2.427 0 00-2.424 2.424v10.733a2.427 2.427 0 002.424 2.424h11.15a2.427 2.427 0 002.424-2.424V26.303a2.427 2.427 0 00-2.424-2.424zm.6 13.157a.6.6 0 01-.6.6h-11.15a.6.6 0 01-.6-.6V26.303c0-.33.269-.6.6-.6h11.15c.33 0 .6.27.6.6v10.733z" fill="#B19A7C" stroke="#B19A7C" stroke-width=".3"/></svg>