<svg width="25" height="25" fill="none" xmlns="http://www.w3.org/2000/svg"><g clip-path="url(#clip0)" fill="#B19A7C"><path d="M12.5 7.737A4.769 4.769 0 007.736 12.5a4.769 4.769 0 004.764 4.764 4.769 4.769 0 004.763-4.764A4.769 4.769 0 0012.5 7.737zm2.828 3.866l-3.412 3.413a.732.732 0 01-1.038 0l-1.304-1.304a.733.733 0 111.037-1.037l.786.785 2.894-2.894a.733.733 0 111.037 1.037z"/><path d="M23.12 6.783l-.001-.02a26.01 26.01 0 01-.023-.776 2.65 2.65 0 00-2.494-2.596c-2.875-.16-5.098-1.098-6.998-2.95l-.017-.015a1.6 1.6 0 00-2.174 0l-.016.016c-1.9 1.851-4.124 2.789-6.998 2.95a2.65 2.65 0 00-2.495 2.595c-.004.28-.011.535-.022.777l-.001.045c-.056 2.93-.126 6.579 1.095 9.89.67 1.82 1.687 3.403 3.02 4.704 1.518 1.482 3.507 2.658 5.91 3.496a1.823 1.823 0 00.946.066c.083-.017.165-.039.243-.066 2.4-.84 4.387-2.017 5.904-3.498 1.333-1.302 2.349-2.885 3.02-4.706 1.226-3.32 1.156-6.975 1.1-9.912zM12.5 18.731a6.237 6.237 0 01-6.23-6.23 6.237 6.237 0 016.23-6.23 6.237 6.237 0 016.23 6.23 6.237 6.237 0 01-6.23 6.23z"/></g><defs><clipPath id="clip0"><path fill="#fff" d="M0 0h25v25H0z"/></clipPath></defs></svg>