<svg width="60" height="60" fill="none" xmlns="http://www.w3.org/2000/svg"><path d="M16.524 10.51a.879.879 0 00.622-1.5A7.827 7.827 0 0011.573 6.7c-2.104 0-4.082.82-5.57 2.308a.879.879 0 101.242 1.243 6.08 6.08 0 014.328-1.793 6.08 6.08 0 014.328 1.793.875.875 0 00.622.257zM8.473 14.58a3.105 3.105 0 003.101 3.1 3.105 3.105 0 003.101-3.1 3.105 3.105 0 00-3.1-3.102 3.105 3.105 0 00-3.102 3.101zm4.444 0c0 .74-.602 1.343-1.343 1.343a1.345 1.345 0 010-2.686c.74 0 1.344.602 1.344 1.342z" fill="#B19A7C"/><path d="M4.237 7.242a10.308 10.308 0 017.337-3.039c2.772 0 5.377 1.08 7.337 3.04a.876.876 0 001.243 0 .879.879 0 000-1.244 12.055 12.055 0 00-8.58-3.553 12.055 12.055 0 00-8.58 3.553.879.879 0 101.243 1.243zM59.121 58.144H53.11v-22.56a1.96 1.96 0 00-1.5-1.91l-8.684-2.11v-2.318a.879.879 0 10-1.758 0v1.89l-1.852-.45a1.969 1.969 0 00-.67-.045V15.51h2.522v10.22a.879.879 0 101.758 0V15.125c0-.757-.616-1.373-1.373-1.373h-.35v-2.524c0-.785-.639-1.424-1.423-1.424h-1.135V8.428a2.265 2.265 0 00-2.262-2.262h-.69V.879a.879.879 0 10-1.757 0v5.287h-.69a2.265 2.265 0 00-2.262 2.262v1.377h-1.134c-.785 0-1.424.639-1.424 1.424v2.524h-.35c-.757 0-1.372.616-1.372 1.373v4.424l-10.126 2.461a1.66 1.66 0 00-1.27 1.617v5.719H6.934A2.257 2.257 0 004.681 31.6v5.237a.879.879 0 101.758 0v-5.237c0-.274.222-.496.496-.496h11.714c.274 0 .496.222.496.496v26.543H6.44v-17.79a.879.879 0 10-1.758 0v17.79H.879a.879.879 0 100 1.758H59.12a.879.879 0 100-1.758zM38.723 32.433a.199.199 0 01.177-.039l12.293 2.988a.206.206 0 01.158.201v22.56H38.645V32.596a.2.2 0 01.078-.162zm-1.83.035c-.002.042-.006.084-.006.127v25.549h-1.8V15.511h1.8v16.85a.88.88 0 00.007.107zm-4.152-24.04c0-.278.226-.504.505-.504h3.136c.279 0 .505.226.505.504v1.377H32.74V8.428zm-2.558 3.135h9.261v2.19h-9.26v-2.19zm-1.723 3.948h4.869v42.633h-1.8v-37.65c0-.514-.232-.99-.635-1.308a1.655 1.655 0 00-1.421-.309l-1.012.246v-3.612zm1.311 14.087v2.743l-8.868 2.219v-2.743l8.868-2.219zm-8.868 11.329l8.868-2.219v2.743l-8.868 2.219v-2.743zm0 4.555l8.868-2.219v2.743l-8.868 2.219v-2.743zm0 4.555l8.868-2.22v2.527l-8.868 2.262v-2.57zm8.868-13.14l-8.868 2.218v-2.743l8.868-2.219v2.743zM20.903 54.42l8.868-2.262v2.52l-8.868 2.22V54.42zm8.868 2.07v1.654h-6.607l6.607-1.653zm0-35.877v2.619L17.064 26.41V23.7l12.707-3.088zM18.65 29.347h-1.584v-1.124l12.706-3.18v2.743l-9.408 2.354a2.249 2.249 0 00-1.714-.793z" fill="#B19A7C"/><path d="M9.176 36.124a.879.879 0 00.879-.88v-1.539a.879.879 0 10-1.758 0v1.54c0 .485.393.879.879.879zM12.792 36.124a.879.879 0 00.88-.88v-1.539a.879.879 0 00-1.759 0v1.54c0 .485.394.879.88.879zM16.409 36.124a.879.879 0 00.879-.88v-1.539a.879.879 0 10-1.758 0v1.54c0 .485.393.879.879.879zM41.334 39.19a.879.879 0 00.879-.879v-.848a.879.879 0 10-1.758 0v.848c0 .486.394.879.88.879zM44.95 39.19a.879.879 0 00.88-.879v-.848a.879.879 0 10-1.758 0v.848c0 .486.393.879.878.879zM48.444 39.19a.879.879 0 00.878-.879v-.848a.879.879 0 10-1.757 0v.848c0 .486.393.879.879.879zM41.334 43.41a.879.879 0 00.879-.879v-.848a.879.879 0 10-1.758 0v.848c0 .485.394.879.88.879zM44.95 43.41a.879.879 0 00.88-.879v-.848a.879.879 0 10-1.758 0v.848c0 .485.393.879.878.879zM48.444 43.41a.879.879 0 00.878-.879v-.848a.879.879 0 10-1.757 0v.848c0 .485.393.879.879.879zM41.334 47.63a.879.879 0 00.879-.879v-.848a.879.879 0 10-1.758 0v.848c0 .486.394.88.88.88zM44.95 47.63a.879.879 0 00.88-.879v-.848a.879.879 0 10-1.758 0v.848c0 .486.393.88.878.88zM48.444 47.63a.879.879 0 00.878-.879v-.848a.879.879 0 10-1.757 0v.848c0 .486.393.88.879.88zM41.334 51.85a.879.879 0 00.879-.879v-.848a.879.879 0 10-1.758 0v.848c0 .486.394.88.88.88zM44.95 51.85a.879.879 0 00.88-.879v-.848a.879.879 0 10-1.758 0v.848c0 .486.393.88.878.88zM48.444 51.85a.879.879 0 00.878-.879v-.848a.879.879 0 10-1.757 0v.848c0 .486.393.88.879.88zM41.334 56.07a.879.879 0 00.879-.879v-.848a.879.879 0 10-1.758 0v.848c0 .486.394.88.88.88zM44.95 56.07a.879.879 0 00.88-.879v-.848a.879.879 0 10-1.758 0v.848c0 .486.393.88.878.88zM48.444 56.07a.879.879 0 00.878-.879v-.848a.879.879 0 10-1.757 0v.848c0 .486.393.88.879.88zM8.297 40.354a.879.879 0 101.758 0v-1.54a.879.879 0 10-1.758 0v1.54zM11.913 40.354a.879.879 0 101.758 0v-1.54a.879.879 0 10-1.758 0v1.54zM15.53 40.354a.879.879 0 101.758 0v-1.54a.879.879 0 10-1.758 0v1.54zM8.297 45.463a.879.879 0 101.758 0v-1.54a.879.879 0 10-1.758 0v1.54zM11.913 45.463a.879.879 0 101.758 0v-1.54a.879.879 0 00-1.758 0v1.54zM15.53 45.463a.879.879 0 101.758 0v-1.54a.879.879 0 10-1.758 0v1.54zM8.297 50.572a.879.879 0 101.758 0v-1.54a.879.879 0 10-1.758 0v1.54zM11.913 50.572a.879.879 0 101.758 0v-1.54a.879.879 0 00-1.758 0v1.54zM15.53 50.572a.879.879 0 101.758 0v-1.54a.879.879 0 10-1.758 0v1.54zM8.297 55.68a.879.879 0 101.758 0v-1.539a.879.879 0 10-1.758 0v1.54zM11.913 55.68a.879.879 0 101.758 0v-1.539a.879.879 0 00-1.758 0v1.54zM15.53 55.68a.879.879 0 101.758 0v-1.539a.879.879 0 10-1.758 0v1.54z" fill="#B19A7C"/></svg>