<svg width="24" height="24" fill="none" xmlns="http://www.w3.org/2000/svg"><g clip-path="url(#clip0)" fill="#B19A7C"><path d="M11.997 5.977c-4.374 0-7.306 4.568-5.458 8.554 1.389 2.998 4.995 4.32 7.992 2.93 2.998-1.389 4.32-4.995 2.93-7.992a6.021 6.021 0 00-5.464-3.492zm-2.221 6.994a.401.401 0 11-.568.568l-1.255-1.255a.401.401 0 010-.568l1.255-1.254a.401.401 0 01.568.567L8.805 12l.97.97zm3.573-2.473l-2.006 3.411a.401.401 0 01-.692-.407l2.006-3.411a.401.401 0 01.692.407zm2.647 1.786l-1.254 1.255a.401.401 0 01-.568-.568l.971-.97-.97-.972a.401.401 0 11.567-.567l1.254 1.254a.401.401 0 010 .568z"/><path d="M23.133 16.028l-1.886-1.475a9.641 9.641 0 000-5.106l1.886-1.475a.401.401 0 00.1-.516l-1.681-2.912a.401.401 0 00-.498-.171l-2.222.897a9.537 9.537 0 00-4.42-2.555l-.334-2.37A.4.4 0 0013.681 0h-3.362a.4.4 0 00-.397.345l-.334 2.37a9.537 9.537 0 00-4.42 2.555l-2.222-.897a.402.402 0 00-.498.171L.767 7.456a.401.401 0 00.1.516l1.886 1.475a9.642 9.642 0 000 5.106L.867 16.028a.401.401 0 00-.1.516l1.681 2.912c.1.173.312.246.498.171l2.222-.897a9.537 9.537 0 004.42 2.555l.334 2.37a.4.4 0 00.397.345h3.362a.4.4 0 00.397-.345l.334-2.37a9.537 9.537 0 004.42-2.555l2.222.897a.402.402 0 00.498-.171l1.681-2.912a.401.401 0 00-.1-.516zm-8.264 2.162a6.772 6.772 0 01-5.213.203 6.777 6.777 0 01-4.05-8.737 6.797 6.797 0 018.742-4.061A6.778 6.778 0 0118.19 9.13c1.576 3.401.078 7.483-3.321 9.059z"/></g><defs><clipPath id="clip0"><path fill="#fff" d="M0 0h24v24H0z"/></clipPath></defs></svg>